/* XPM */
static char *result[] = {
/* columns rows colors chars-per-pixel */
"64 64 228 2 ",
"   c #0A0B07",
".  c #0E0E0B",
"X  c #11110E",
"o  c #151512",
"O  c #191715",
"+  c #161814",
"@  c #1A1816",
"#  c #1C1C18",
"$  c #211E1B",
"%  c #261F1A",
"&  c #23211D",
"*  c #2C251C",
"=  c #2D291C",
"-  c #342A1E",
";  c #262421",
":  c #2D2B27",
">  c #342E2A",
",  c #35332D",
"<  c #3B3429",
"1  c #2E2B34",
"2  c #2B2B39",
"3  c #322D38",
"4  c #343234",
"5  c #3C3434",
"6  c #3C3A34",
"7  c #34323D",
"8  c #3D343B",
"9  c #3D3C3B",
"0  c #453729",
"q  c #4A3528",
"w  c #4A3B2B",
"e  c #473633",
"r  c #413D35",
"t  c #4D3B33",
"y  c #43363A",
"u  c #443B3C",
"i  c #4A3D3C",
"p  c #523B33",
"a  c #5A3F33",
"s  c #513D3A",
"d  c #48442E",
"f  c #56462C",
"g  c #45443D",
"h  c #4A4438",
"j  c #4B453D",
"k  c #4B493E",
"l  c #544135",
"z  c #5B4434",
"x  c #594934",
"c  c #54443C",
"v  c #59463A",
"b  c #544A3D",
"n  c #5B4A3D",
"m  c #555038",
"M  c #5D513C",
"N  c #644533",
"B  c #684532",
"V  c #644A33",
"C  c #6A4E37",
"Z  c #644B3A",
"A  c #665935",
"S  c #63523D",
"D  c #6C543D",
"F  c #735738",
"G  c #72563C",
"H  c #6F693C",
"J  c #282D44",
"K  c #2E3349",
"L  c #343443",
"P  c #3B3743",
"I  c #3C3942",
"U  c #32374D",
"Y  c #35384D",
"T  c #3B3C4C",
"R  c #2E3554",
"E  c #2F3A51",
"W  c #323A53",
"Q  c #393D53",
"!  c #363E5A",
"~  c #433C42",
"^  c #4F3E41",
"/  c #5C3E42",
"(  c #3C4055",
")  c #35415E",
"_  c #3A415E",
"`  c #364364",
"'  c #3A4464",
"]  c #3A4966",
"[  c #374468",
"{  c #3D4B6B",
"}  c #454341",
"|  c #4C4542",
" . c #4B4A42",
".. c #48474C",
"X. c #574643",
"o. c #524E44",
"O. c #5A4A42",
"+. c #514F49",
"@. c #525147",
"#. c #5B5245",
"$. c #55544B",
"%. c #5A544C",
"&. c #5A584D",
"*. c #43475B",
"=. c #474A5A",
"-. c #5D4B53",
";. c #5D5A51",
":. c #51525C",
">. c #644C49",
",. c #685846",
"<. c #6C5944",
"1. c #635B4C",
"2. c #715C47",
"3. c #674F58",
"4. c #675A57",
"5. c #625E56",
"6. c #6E6542",
"7. c #626156",
"8. c #6B6355",
"9. c #66645A",
"0. c #69665D",
"q. c #6B695E",
"w. c #736353",
"e. c #766C5D",
"r. c #79725D",
"t. c #444D64",
"y. c #444E6D",
"u. c #4B5066",
"i. c #44516E",
"p. c #4A546C",
"a. c #57596A",
"s. c #53586C",
"d. c #454E70",
"f. c #455373",
"g. c #495474",
"h. c #4E5974",
"j. c #475478",
"k. c #4E5C7B",
"l. c #525B75",
"z. c #525E7B",
"x. c #5F606C",
"c. c #54627E",
"v. c #5E677E",
"b. c #6D6B61",
"n. c #666468",
"m. c #766E63",
"M. c #726E64",
"N. c #747265",
"B. c #7A7465",
"V. c #767469",
"C. c #797769",
"Z. c #7B796C",
"A. c #686A76",
"S. c #707077",
"D. c #7D7B71",
"F. c #78787C",
"G. c #867869",
"H. c #837D72",
"J. c #887C74",
"K. c #93846F",
"L. c #838076",
"P. c #8B8475",
"I. c #8E8877",
"U. c #84827A",
"Y. c #8A867C",
"T. c #8D8A7E",
"R. c #928474",
"E. c #928B7E",
"W. c #566483",
"Q. c #5A6685",
"!. c #576A85",
"~. c #5B6986",
"^. c #576788",
"/. c #5A6789",
"(. c #576A89",
"). c #5A6989",
"_. c #646E88",
"`. c #64728D",
"'. c #797981",
"]. c #657491",
"[. c #6B7996",
"{. c #6D7D9A",
"}. c #717C96",
"|. c #807F87",
" X c #73829D",
".X c #7A839E",
"XX c #7584A2",
"oX c #7A86A3",
"OX c #7789A5",
"+X c #7C8AA5",
"@X c #7C8BA9",
"#X c #868486",
"$X c #8B8A83",
"%X c #83828B",
"&X c #8B8B8B",
"*X c #938D82",
"=X c #908E89",
"-X c #92918A",
";X c #9A9488",
":X c #9E998D",
">X c #8D8D93",
",X c #8F9094",
"<X c #979694",
"1X c #92939A",
"2X c #9C9C9B",
"3X c #A09A8E",
"4X c #A19F9D",
"5X c #A1A09B",
"6X c #A9A49F",
"7X c #818AA6",
"8X c #828DAB",
"9X c #8392AE",
"0X c #8896AF",
"qX c #9D9EA3",
"wX c #848FB0",
"eX c #8695B2",
"rX c #8D9CB6",
"tX c #8E9BB9",
"yX c #909BB7",
"uX c #919BB9",
"iX c #9EA0A4",
"pX c #A5A5A2",
"aX c #A8A9A6",
"sX c #A3A5A8",
"dX c #ABABAA",
"fX c #AFB0B1",
"gX c #B4B4B4",
"hX c #B8B8B8",
/* pixels */
"_ ! ! ! ! W W W W W U E W W W W ! ! ! ! _ E R R R R U J J K E E E E W E E W ! Q Q ! ! ! ! ! ! ! R E E E E E E W W E ( ) ) ) ) ) ",
"+X7X7X7X7X+X+X+X+X+X+X+X+X+X7X7X7X7X7X7X7Xl.) ) ) %X>X>X>X>X>X>X>X>X,X>X,X,X'.A.}..X7X7X7X7X7X7X7X7X7X+X+X+X+X+X+X+X+X@X XOX+X.X",
"yXuXuXuXtXtXtXtXrXrXrXrXrXrXrXyXuXuXrXtXuXc.! ` ` fXgXgXgXgXgXgXgXgXgXgXgXhX>X_.oXoX7X+X7X}.}.uXrXrXrXrXrXtXuXtXrXrXrXrXrXrXrXrX",
"oX+X+X@X@X@XOXOXOX+X@X@X@XoX+X+X+XOXS.F.'.'.'.'.'.-X-X-X-X-X-X-X=X-X-X-X-X-X&X'.'.%X%X%X|.F.s.7X0X0X7X XXXOX@X@XOX@X@XOXOX+X+X.X",
"_.W./.).).).~.!.).~.).~.!.~.(.~.(.(.aXhXgXhXgXhXaXC.C.V.C.C.V.Z.C.C.C.C.Z.B.$XgXgXgXgXgXhXqX=.s.0X0X X) ] k.).).).~.(.!.!.!._.v.",
"Q.Q.).).(./.).!.!.(.~.~.~.).).).!.!.2XaXaXaXaXaX<Xb.0.9.0.b.N.M.b.q.0.q.0.9.D.aXdXdXaXaXdX1Xx.a.0X0X X] ] k.).).).~.(.~.!.!._.~.",
"Q././.~./.).).).).~.~.!.!. X+XA.aXpXL.Z.D.D.D.D.9.# + + + 6 $. ., : # X + o 4 Z.D.D.D.D.H.Y.aXqX`.].`.k.k.!.).).).).).).~.~.!.v.",
"Q./././.~.).).).).).~.!.v.oXrXS.fXaXZ.N.N.N.b.N.&.X . . . , &.+.: ; X . . . : M.M.M.M.V.V.H.fXsX:.x.!.(.~.~.~.).~.~.(.(.(.~.~.~.",
"/.).).).~.).).).~.~.(.~.~.S.2X-XU.Z.9 , ; & & & # X . . . +.*XH. .g +   . . O & & & & } &.9.H.F.M.M.a.W.~.~.~.~.).~.).(.^.(.).Q.",
"~.).(.).~.).~.).).~.).!.~.%XhX<XC.b., & X . . . . . . . . ;.:XE.@.k + . . . . .   . . 4 @.&.V.D.Z.Z.5.W.^.(.~.~.~.).).).).).~.~.",
"^.).).).~.(.!.!.!.~.~.!.).#X2XU.0.9.6 , + . . . . . . . . &.:XY.@.g #   . . . . . . .  .N.0.&.&.V.V.5.:.Q.^.(.(.~.).).).)./.~.~.",
"^./.(.).~.[. X{.k.j.c.dXgX&XC.0.+.+. . .# . . X . . . . . ;.3XT.@.g # . . . . . . . . 0.:XH.: , M.D.9. ...c.f.j.~.~.~.(.).~.~.Q.",
"Q.).).).~.@XrX9X{ ` f.2XpXZ.;.;.9.7. . .# . . . X . . .   ;.:XT.@.g o . . . . . . X . 9.:XL., 6 &.;.;.&.$.h.` { ~.~.(.(.).).).~.",
"Q./.).).!.OXrX@Xi.fXpXZ.Z.6 . @.:X$X$. .# . . . . . . . . ;.:X$X@.g O . . . . . . . . 9.:XP. .g O . g Z.0. ...] W.~.~.(.(.).~.Q.",
"~.~.).~.!.`.].].W.fXaXZ.C.,   +.:X*X$.| # . X . . . . X . &.3XY.@.g + . X   . . . . . 9.:XY. .g o   g Z.9. . .=.u.~.~.(.~.!.~.Q.",
"Q.~.~.~.~.!.S.&X&X$XD., > #   +.:X=X$.} # . . . . . . . . ;.:XE.@. .#   o o O O o o o q.:XY.@.g # o & , k 0.0.@...s.~.~.~.~.~.~.",
"Q./._.Q.Q.Q.,XhX4XC.7.X . .   +.:X*X$.g # . . . . X . X . ;.:XT.$.g O . o O # O O O O b.:XY.o.g $ O o   , Z.C.$. .s.).(.(.).).~.",
"/._././././.>XhX5XZ.9.+ . .   @.:X$X$. .# . . . . . . . . ;.:XT.+.g # o O O O @ O O O 9.:XP.o.g # # o o 6 C.V.@. .=.^.^.).)./.~.",
"/./././././.>XgX5XZ.9.o . . . @.:X*X&.g # . . . . X . .   ;.3X*X@.g ; O O O @ @ O # O b.3XY.+.g # # O O r C.V.@. .I !.^./.)./._.",
"g.j.j.j.g.j.>XgX5XC.9.o . .   +.:X*X$.k # . . . . . . . . :.:XY.$.g & O @ @ @ @ O O O b.:XY.@.g $ O O O 6 C.V.$. .I y.f.j.j.g.g.",
"' ` ` ' ' ' >XgX4XZ.9.o . .   +.:X-X$. .# . . . . . . o o 5.3XT.@.k & O O @ @ @ O O O b.:XY. .g # # O O 6 Z.V.$.} 9 K ` [ [ ` ' ",
"f.y.i.i.y.y.>XgX2XV.7.o . X   +.:X$X$.g # . . . . . . O O 5.:XT.@.g & O @ @ @ @ # O o b.:XY.@.g $ O O O 6 V.M.$. .9 7 T f.d.y.y.",
"+X8X8X8X&X1X$XY.b.; & X X .   +.:XE.$.k # . . . X O O O O 5.:XT.@. .& O @ @ O O O O O b.:XY.o.g $ # O O $ : > 9.b.$. ...+X7X8X7X",
"uXuXtXtXqXgXY.C.$.. . . . . . @.:XE.$.k # . . . X O O O O 5.:XT.@.} & O @ @ O # O O O n.:XP.@.g $ O O # O O $ 0.Z.&. ...0XrXyXyX",
"oXoX+XoXiXgXY.C.&.X . . . . .  .;XI.$. .# . . X o O # O O 5.:XE.@.} & O O # O @ @ @ @ q.3XY.o.j $ O O O @ O $ 0.V.&.k k  X@X.X.X",
"_.^.Q.^.2XgXY.C.$.X . . . . . k I.L.@. .# . X # O O O O o 5.:XY.@.k & O + + @ @ @ @ + q.3XY.+.g # # O # @ O $ 0.C.&.k ( c.!._.!.",
"Q._.~./.iXfXY.C.&.X . . . . . g T.P.@. .$ X o @ @ O # O o 4.3XT.@.g & O @ @ @ @ @ @ O 0.;XJ.+.g $ # @ # @ @ $ 0.C.&. .} c.~.!.!.",
"Q.~./.Q.iXfXY.C.&.X . . . .   +.:X$X@. .& O O @ @ @ O O o 5.3XT.$.k & O @ @ @ @ + O O 5.P.C.o.g $ O @ @ O @ $ 0.C.&. .} h.~.~.~.",
"Q._././.qXfX$XC.&.. . X . . . +.:X*X$.| ; O O O @ @ @ @ O 4.3XT.$.| & O @ @ @ @ O # O &.P.C.+.g $ O O # # O $ 9.C.&. .9 p.(.(.~.",
"Q.Q././.qXgXY.C.&.. . . . . . @.:X*X#.X.; O # O O # @ O O %.Y.H.+.} & O @ @ @ @ O O O 9.;XL. .g # # O O + # $ 8.C.&. .} p.(.~.~.",
"v._.Q.Q.qXgXY.C.&.. . . . X . ..:X*X>.c ; O O O O O O O O +.J.B.+.} & O @ @ @ @ O # + b.:XP.@.g # O O # # + $ 9.Z.&. .9 t.)./._.",
"Q.Q./.Q.qXgXY.C.&.. . . . . . +.:XE.%.j ; O O O O # O # O %.E.J.#. .& @ @ @ @ @ # # + q.:XP.#.k $ O O # # + $ 9.C.&. .g t.).~.~.",
"_./.).Q.iXfX$XV.%.X . . . .   +.:XE.%.g ; O @ @ @ @ O O o 5.3XE.1.m & O O @ @ @ # O O q.:XI.M m & + # O @ @ % 9.C.%. .9 p.(.~.~.",
"Q./.).c.iXgXY.Z.%.X . . . . . +.;XE.%.k ; O # @ @ O O # o 5.:XE.1.@.& O @ @ O @ O O O q.:XP.,.v & + @ + @ @ $ 0.C.&.k d k.(.~.~.",
"Q./.).l.iXgXY.V.&.. . . . .   r B.r.@.k ; O @ @ @ @ O O O 4.3XT.%.| % O @ O $ O # O # 4.*XJ.<.Z $ # @ # O O # 0.C.&. .( W.).~.Q.",
"_.Q.).l.iXdX$XZ.;.o X X . . . r r.e.o. .& O @ O @ @ O # o 5.;XY.+.| ; O @ O O O O O O 5.*XJ.<.>.$ O O O O # & 0.C.&. .9 W.~.!._.",
"W._./.p.a.A.-XpX$X;.@.o . X .  .E.I.@.k ; O O @ @ O @ # O %.R.G.+.| ; O # O # O O # O 0.:XP.#.k $ O O O 4 5.;.&.$.6 : 7 k.).~.~.",
"/./././.s.*.1XgX5XD.9.o . .   @.3XE.$. .; O @ @ @ @ O O O X.G.G.o.| % O O O O O O O O b.:XY. .k $ O # O r C.V.$. .1 ! ^.^.^.~.~.",
"_./././.!.s.1XgX4XZ.9.o . . . h K.G.#.j * O @ @ O # O # O #.R.G.@.k & O @ O $ O O # O 1.P.B. .g $ O O O r Z.V.@. .1 z.^.W.^.~._.",
"Q./././.W.Q.1XgX4XZ.9.o . . . < F G f f & O @ @ O O O O O 5.3XT.@.g & @ @ O O O O O # w S Z  .k $ # O O r Z.V.$. .1 W.Q.^.~.^.Q.",
"d.g.g.d.g.i.1XgX5XZ.9.o . . . 0 G.F f w & O O # O @ @ @ O 5.*XP.@. .& O @ @ @ @ @ @ @ l 2.,.m h # # O O 6 r.r.@. .1 y.f.f.g.g.g.",
"_ ' ' ' ` _ 1XgX5XZ.8.o . . .  .;XK.m d & # O O @ @ @ @ o i w.w.3.-.; O @ @ @ @ @ @ O 9.;XR.D V % O O O < <.<.n  .4 ` ] ` [ [ ' ",
"d.d.d.y.y.t.1XgX6XZ.9.o . .   $.3X*Xb d & O O # @ @ @ @ O t 2.1.3.-.; O @ @ O O @ O # b.:XR.F V $ O # O < D D o. .4 ] { f.d.d.d.",
"8XwXwX8X@X].n.S.F.<X$Xs w $   < 2.1.k h & O O O @ @ @ @ O #.P.G.3./ ; O @ @ @ # @ O O n.:XR.M l $ # - q w n o.9 7 L OX9X9XwXwX8X",
"tXuXtXrXrX7X=.T x.gX6X2.D -   * w w k k ; O O O @ @ @ O O 9.3X*X>./ % # O O O O @ @ O b.3XR.+.g @ o 0 N v o.| 2 s.0X0XrXrXtXtXtX",
"oXOXOXOXOXXXXX*.:.#XJ.w.w.b < d f f M n * # O # @ @ @ @ O #.G.B.>.^ % O # O O O @ @ O %.G.m.n v h u h z v h i 1 v.[.[..XOXoXoXoX",
"/./.~.~.!.!.!.z.~ ^ O.B.C.C.Z.w.C C F F * O O O @ @ # O O w G D o.| & O O # O # O @ @ < p z N Z B.C.5. .c t t 1 p.c.!.!.!.!./.^.",
"^./.~.~.!.!.W.W.I ^ X.N.V.V.N.w.C C F C - O O # O O O O O w D D | | & O O O O O @ @ @ 0 v z Z Z e.B.5. .h t e 1 c.c.!.!.v.!.Q.Q.",
"Q./.~.~.~.~.).~.*.P ~ #.>.$.+.n N V A A = + + @ @ @ @ @ O < A M  .k $ O # O # # + # # d H 6.e.e.2.2.S v y : 1 L ^.W.~.(.).(.~.Q.",
"Q./.!.~.^.).~.(.~.h.I X.O.b  .v N V A A = # # @ @ @ @ @ O 0 M m  .| $ O O O O # @ # + f H 6.B.B.2.D Z x y 2 l.p.z.Q.).).(.).~.Q.",
"~.~.).].].).).~.c.^.~ X.O.v s c b v V C &.;.m q q O @ @ O < f x ,.o.* O O O : ;.&.l w ,.r.r.%.%.z z v v i 7 Q.^.c.c.W.).~.~.~.Q.",
"~.).{.eXeX[.~.).).!.Q O.v s p j  . .N N r.C.e.B q $ + @ O - f f ,.>.& O O o 4 C.C.D N w.Z.M.o.k t p p v i 7 .XOXg.] f.(.).~.~.Q.",
"^.^.{.tXtX[.^.)./.Q.P X.n i y i o.b v v 8.q.4.N a < < , , h M S 1.1.< - > < h b.q.D V 2.e.4.b k e e e | u T tX8Xi.` f.^.).).(.~.",
"~.~.]. X X].~.(./.Q.l.s s y 3 i X.c b  . . . .| @.V.V.V.N.V.C.B.B.B.2.D w.B.0. .b D G Z N N v c 1 2 3 L L {.XX{.k.f.k.(.(.).~.~.",
"Q.~.~.).^.~.).~./.~.W.i i P t.~ n n o. . . .j j @.M.m.m.N.M.M.N.m.e.,.<.w.r.8.k k Z D Z N z v c 2 2 h.c.g.Q.~.).).~.).).(.~.~.~.",
"!.Q.~.~.!.).).).~.).z.P L T ^.y X.n n c l p p t l +.o.,.<.,.o.b Z Z b b v Z z p t p p z v z x c 3 y.c.^.^.Q.).).~.~.).).^.~.Q._.",
"~.~.~.!.Q.^./.~.~.~.Q.l.h.s.W.y O.v X.X.p p p p i  . .,.D M  .b N N o.| v N z p e p p p a a v c 7 c.c.~.).`.).~.).~.~.).).~.~._.",
"Q.~.~.~.!.^._./._.Q.Q.Q.Q.l.z.~ O.v i y 8 y 5 5 y c s v Z v b c a p 5 5 i z p > > 8 y ~ ~ ^ c c 7 ^.).).).).).~.~.~./.~./.~._.Q.",
"Q.~.~.!.!.c.W.z.^././._./.l.g.^ X.X.3 L L t.J 7 8 s p v v v c v p e l.t.5 z t L *.W.W.l.L P / X.7 )./.~.).).(.~.~.~.~.~.).~.Q.Q.",
"~.~.(.(.~.f.[ { Q././././.f.! I ^ ^ L R ' j./.h.L y u c v h i u y y y.Q.*.| 8 Y /./.W.W.t.~ c c 7 ).(.(.(.(.(.(./././.).(.).Q._.",
"/.).).).(.f.] { ^././././.j.' W L L K ' ! W./.Q.z.L P | v u T *.Q W./.W.l.t.Q h././././.Q.I O.c 3 ~.!.).!.(.!.~././././.(.^.^.).",
"g.j.j.j.f.{ ' { d.j.d.j.f.{ ' ' [ ' ' [ [ d.d.j.g.Q L | O.~ Q d.g.g.d.j.g.g.y.y.d.j.j.d.g.I X.| L f.p.f.f.p.f.f.f.j.j.d.j.j.g.f.",
"` ' { ` ' ' ' ' ' [ ' _ ' ' ' ' ' ' ' ' ' ' ' ' ' ! P ^ X.^ L ' ' ' ' ' ' ' _ ' ' d.{ ' ) U 7 P W ) ` ] ' ' ' ' ' ' [ [ ` ` ' ' ",
"' ' ' ' ' _ ' t.' ' t.' ' ' ' ' ' ' ' ' ' ' ' ' t.' Q | X.~ K _ ' ' _ _ t.' ' ' ' ' ' ' ' ' ' _ ' ' ' _ _ ' _ ' ' ' ' ' [ ' t.' "
};
