/* XPM */
static char *result[] = {
/* columns rows colors chars-per-pixel */
"64 64 255 2 ",
"   c #060604",
".  c #120B0B",
"X  c #191B17",
"o  c #3A0905",
"O  c #2C1908",
"+  c #351708",
"@  c #2E1210",
"#  c #0E390A",
"$  c #15370C",
"%  c #132A11",
"&  c #173614",
"*  c #272709",
"=  c #27340C",
"-  c #33310F",
";  c #252919",
":  c #3A2616",
">  c #0E0C28",
",  c #25112C",
"<  c #11332B",
"1  c #2C3229",
"2  c #373736",
"3  c #460805",
"4  c #4D0A04",
"5  c #530504",
"6  c #5B0503",
"7  c #540805",
"8  c #451407",
"9  c #56180B",
"0  c #610203",
"q  c #55240C",
"w  c #4F2E12",
"e  c #5E2A1B",
"r  c #453514",
"t  c #483428",
"y  c #0D4708",
"u  c #12440B",
"i  c #134C0B",
"p  c #13540D",
"a  c #14590B",
"s  c #0D4F12",
"d  c #174615",
"f  c #175612",
"g  c #2D4E0C",
"h  c #245A17",
"j  c #13620B",
"k  c #156A09",
"l  c #0F7A03",
"z  c #137406",
"x  c #127B03",
"c  c #15740C",
"v  c #17780A",
"b  c #186714",
"n  c #177916",
"m  c #2C6B0C",
"M  c #134B2E",
"N  c #294A26",
"B  c #30542C",
"V  c #3B4636",
"C  c #166D2C",
"Z  c #176436",
"A  c #336D2A",
"S  c #50450B",
"D  c #6F4C0B",
"F  c #476404",
"G  c #506000",
"H  c #6E600F",
"J  c #504634",
"K  c #455A3E",
"L  c #755239",
"P  c #47653D",
"I  c #48773C",
"U  c #0F0A4E",
"Y  c #14304E",
"T  c #25244C",
"R  c #171B71",
"E  c #182A6D",
"W  c #173B77",
"Q  c #313769",
"!  c #533C42",
"~  c #15544F",
"^  c #1D5F58",
"/  c #16476B",
"(  c #4F564A",
")  c #536F48",
"_  c #5A6856",
"`  c #6C644D",
"'  c #67745A",
"]  c #586069",
"[  c #6D706B",
"{  c #885A0A",
"}  c #925C0C",
"|  c #996E12",
" . c #B37925",
".. c #8C6849",
"X. c #0E8402",
"o. c #158808",
"O. c #189709",
"+. c #188916",
"@. c #199612",
"#. c #248C14",
"$. c #249915",
"%. c #1AA809",
"&. c #1CB407",
"*. c #1CBD04",
"=. c #1EBA09",
"-. c #1DAD12",
";. c #21A60F",
":. c #21AB0D",
">. c #22B60B",
",. c #26A715",
"<. c #24B613",
"1. c #1F9331",
"2. c #259136",
"3. c #22A131",
"4. c #779F2A",
"5. c #749E34",
"6. c #749D38",
"7. c #4EA63E",
"8. c #53A43E",
"9. c #59A83D",
"0. c #64AB3D",
"q. c #73A335",
"w. c #6AB33F",
"e. c #69B93D",
"r. c #74B73C",
"t. c #1BC101",
"y. c #1EC507",
"u. c #26D00E",
"i. c #3BED22",
"p. c #3EF224",
"a. c #73C53B",
"s. c #46FA28",
"d. c #1F844D",
"f. c #218252",
"g. c #4B9E43",
"h. c #579946",
"j. c #688659",
"k. c #6A845C",
"l. c #4EA446",
"z. c #4CA847",
"x. c #4EA44A",
"c. c #52A444",
"v. c #5BAA43",
"b. c #58A846",
"n. c #51A34A",
"m. c #54A74F",
"M. c #63AC45",
"N. c #66B343",
"B. c #6AB242",
"V. c #6BB74B",
"C. c #73B942",
"Z. c #76B848",
"A. c #6EB952",
"S. c #758C6B",
"D. c #78C14C",
"F. c #AF8D12",
"G. c #B18925",
"H. c #84BD3E",
"J. c #D49115",
"K. c #ECA414",
"L. c #CC9F25",
"P. c #8BC73C",
"I. c #96C73E",
"U. c #95CA3D",
"Y. c #F5D113",
"T. c #829271",
"R. c #88B161",
"E. c #8DC542",
"W. c #8BC848",
"Q. c #94CB42",
"!. c #94C947",
"~. c #8CCA53",
"^. c #94CA53",
"/. c #9ED063",
"(. c #191691",
"). c #172B8C",
"_. c #17338A",
"`. c #162995",
"'. c #1815AA",
"]. c #1C17B5",
"[. c #2713A7",
"{. c #1725AB",
"}. c #1625B5",
"|. c #1736B1",
" X c #2630B9",
".X c #3739B6",
"XX c #493FB8",
"oX c #1A4688",
"OX c #1C419B",
"+X c #265494",
"@X c #1542B7",
"#X c #334BB5",
"$X c #1072AE",
"%X c #454A85",
"&X c #494DB7",
"*X c #5C64B6",
"=X c #6E78A6",
"-X c #1716C9",
";X c #1915D5",
":X c #1F1ED3",
">X c #1724C5",
",X c #1235CE",
"<X c #1525D3",
"1X c #1538D7",
"2X c #2A2EC8",
"3X c #2336C8",
"4X c #1245DA",
"5X c #0F55D6",
"6X c #1558D9",
"7X c #2D51CE",
"8X c #2C4AD7",
"9X c #126ED8",
"0X c #376BD9",
"qX c #0E5FE1",
"wX c #175AE4",
"eX c #1363E4",
"rX c #116DE3",
"tX c #0C78E4",
"yX c #3B6CE2",
"uX c #3078E6",
"iX c #4A6ED1",
"pX c #6E7AC4",
"aX c #7B89B4",
"sX c #0585DE",
"dX c #3A96DE",
"fX c #0786E1",
"gX c #1A90E7",
"hX c #3C86EA",
"jX c #2D9AEE",
"kX c #2EA5F1",
"lX c #37A9F5",
"zX c #4899D2",
"xX c #4589E9",
"cX c #4593EE",
"vX c #4E91EF",
"bX c #4898F1",
"nX c #49A9F8",
"mX c #46B5FD",
"MX c #4BB4FE",
"NX c #54B0F5",
"BX c #839283",
"VX c #959792",
"CX c #96A98E",
"ZX c #8796B2",
"AX c #9CACA5",
"SX c #B3B5B2",
"DX c #BFDA90",
"FX c #BFC3BE",
"GX c #C4E499",
"HX c #C1C4BF",
"JX c #B4CFE6",
"KX c #D0D1CF",
"LX c #C7D5EB",
"PX c #EBECED",
"IX c #F9FAFC",
/* pixels */
"PX/.U.Q.U.U.U.U.U.U.U.U.U.U.U.U.Q.Q.Q.U.U.I.Q.I.I.I.U.U.Q.Q.Q.Q.U.Q.Q.P.Q.I.I.Q.Q.U.U.U.U.U.U.U.U.U.U.Q.I.Q.I.U.U.U.U.U.U.I.DXHX",
"GXW.D.C.r.e.r.r.C.e.C.r.C.e.C.C.C.r.r.C.Z.Z.C.A p p p p p p p p p p p C.C.C.C.C.C.C.C.C.C.C.C.r.C.e.C.C.C.C.C.C.r.r.r.C.r.e./.CX",
"P.9.z.7.7.l.l.z.c.l.l.l.7.l.c.l.9.9.7.l.h d h ,.=.=.=.=.&.=.=.*.=.=.>.#.f d I c.l.7.l.l.l.c.l.l.7.l.c.c.l.l.g.8.l.l.7.l.x.l.C.q.",
"W.b.7.l.x.7.z.z.8.l.z.l.z.x.x.x.7.V.j.h $.:.&.=.t.t.t.*.t.t.t.t.t.t.t.&.:.:.#.N N P x.g.x.x.x.x.x.x.x.x.x.x.n.c.n.n.l.8.l.m.V.6.",
"P.v.c.b.M.b.x.x.c.c.c.c.b.c.n.c.7.A A $.y.u.i.p.i.i.u.t.t.*.*.t.t.*.t.t.t.t.>.@.z b P 8.M.b.c.c.c.c.n.c.c.n.c.c.l.c.v.w.v.x.N.5.",
"W.v.l.c.A.B.7.z.c.c.c.c.n.c.n.c.j.n %.y.u.i.s.s.s.u.y.t.t.t.t.t.t.t.t.*.t.t.t.>.%.o.a I A.B.c.c.c.c.c.c.c.c.b.n.n.b.Z.!.Z.n.V.6.",
"P.9.m.x.M.v.l.z.x.n.n.b.A.b.c.K a >.*.u.s.s.p.p.u.t.t.*.t.*.t.*.t.t.*.*.*.*.t.t.t.&.X.y N Z.M.n.n.l.x.g.c.l.x.l.x.c.9.B.v.l.w.5.",
"P.v.x.x.x.x.z.l.x.n.x.v.C.b.l.K a =.*.u.p.s.p.y.y.y.t.t.t.t.t.t.*.&.&.*.&.*.*.&.*.&.x p N V.M.n.n.l.x.#X-X2X>X.Xn.x.l.l.l.l.N.5.",
"E.b.x.l.l.l.z.l.l.x.n.c.9.T.N Z n >.*.*.y.y.t.t.t.*.t.t.t.t.*.&.O.n n n n n n n -.%.X.l b d c.n.&X>X.XeXgXbXnXbX XaXl.g.g.l.B.5.",
"E.v.x.c.l.c.7.7.x.c.x.l.l.aX(.(./ +.o.O.=.t.t.*.t.t.t.t.=.O.o.+.~ `.`.`.`.`.`.`.Z +.l c n & Q #X6XuXcXlXlXmXmXlXhXiX&X.X.X&XB.5.",
"P.v.x.l.x.l.z.c.c.n.x.x.=XiX0XyX7X/ W / +.%.*.*.t.*.%.%.@.Z W W #XyXuXyXyXyXyXyXOXW W / W E |.5XtX9XwX8X0XgXgXkXmXhXyXyX8X].B.5.",
"E.v.x.c.l.c.7.z.n.x.l.x..X7XMXMXdX8X8X#X/ 1.%.%.&.@.Z ~ / OX8X8XhXMXuXuXuXnXMXmXyX8X8X1X,X1X4X5X6X5X,X,X4XtXgXgXlXMXMXhXiX*XB.5.",
"E.v.n.n.l.c.v.M.l.x.l.n..X8XNXnXcXcXvXxX XW Z Z Z Z OX3X3XxXnXvXbXxX&X.X.XiXbXmXMXMXlXgXfXtX5X<X;X1XtXgXfXgXkXnXcXxXyX#X*Xc.B.5.",
"W.b.g.n.z.c.V.A.x.x.z.c.2X8XNX8X>X2X-X3XvX0X}.{.}.}.hXbXbXnXxX}.]..XLXIXPX&X8XNXmXkXsXsXfXfXtXrX<X1XtXkXnXnXnXbX3X2X#Xc.8.c.B.5.",
"E.b.g.g.z.l.9.8.z.x.l.c. X7XNXuXiXJX%XU .X0XbXcXhXcXnXhX3X3X}.U > T LXIXIXXX3XNXmXlXfXfXsXsXfXtX:X;X<X3X3X3X2X#XZXm.l.V.V.l.B.5.",
"H.0.h.c.l.c.8.c.z.x.c.b.ZXpX7XrXzXIX[   U +XMXmXmXmXmXnXyX:X'.    X KXIXPXXX3XMXmXlXsXsXfXfXfXtX<X;X-XpXZXaXZXZXx.n.l.V.M.n.B.5.",
"I.M.n.n.l.l.c.c.l.n.l.l.l.aX-XqXzXIX[     / kXkXgXkXjXkXmX7X(.>   ; KXIXIXpXyXMXlXlXfXqX4X5XrXtX<X:X0XpXZXm.z.7.z.m.x.8.c.x.B.5.",
"E.v.n.c.l.l.l.l.z.x.c.x.x.=X-XeXdXJX]     Y $X$X$X$X$X$XzX7X{.Y < Y JXLXJXNXlXkXnXhXqX|.`.{.|.qX:X8XNX7X&XAXAXCXCXm.l.z.l.c.w.5.",
"E.0.M.M.9.x.z.l.l.l.x.x.B Y }.6XsX$X^ $ $ s s s M s s d s oX$X$X9X9X9X9X9XfXtXtX@X}.{.~ C # E {.-X8XbXnXxX|.R > . ' v.l.x.c.w.5.",
"P.0.Z.~.( ; ; S.z.z.S.h b b Z `.`.M 1.;.:.;.-.-.;.;.-.&.%.C M ~ ).}.>X>X>X}.>X}./ C Z n l c s Y $X5X3XcXnXcX#X(.> ' N.l.x.n.w.5.",
"!.9.v.N.V . o w _ M.S.# c l n < ~ #.-.t.t.t.t.t.t.t.t.t.>.;.O.@.C ~ ~ ^ f.f.f.d.@.%.l l x x a < $XtX6XlXmXMX8X'.> ' v.c.x.x.w.5.",
"!.v.c.8.V . 6 3 @ ` V u k l X.c o.*.t.*.t.*.t.t.t.t.t.t.t.y.>.y.%.%.O.&.y.t.t.t.y.&.X.l x v a < @XqXsXgXkXMXxX7XR =Xb.n.x.x.w.5.",
"W.v.l.g.' t o 5 5 o . % a z l -.=.t.%.%.=.t.t.t.t.t.t.t.t.t.-.O.O.@.O.%.*.t.t.t.&.O.l l v j A ( R }.wXqX9XlXlXhX].pXn.b.x.l.w.5.",
"W.v.x.c.h.c.2 @ 5 6 o . % i c %.&.,.A h $.&.:.-.:.:.:.:.:.:.$.A N N N n -.=.*.&.O.x z z b h j.AX2 U [.'.|.rXrXwX-XaXn.c.x.x.w.5.",
"E.b.z.l.n.l.c._ . 5 6 5 . . # k c y S.AXN d d d d & d d & u ( KXKXAXSXS.s %.-.x x k # # B AX[ , 3 7 3 , U }.>X>X-XaXl.l.l.x.w.5.",
"E.9.z.l.x.g.n.n.8.@ o 6 5 @ . # i j B _ SXKXFXFXHXHXSXKXKXHXKXIXVXK K A @.>.$.y i $ . j.R.( : 3 0 3 . z.m.c.b.l.z.x.l.8.l.x.w.5.",
"P.9.l.l.x.g.l.l.g.n.t o 7 5 o . % p a f S.BXS.BXBXBXBXBXBXBXBXT.A n n $.O.o.f * . % T _ ] . o 6 o ! x.g.z.b.l.l.x.c.l.l.l.g.w.5.",
"P.v.x.x.x.n.c.x.n.n.n.( o 5 5 o   % u j j j b a j j j a j a j a n $.#.m g - + O . @ ` t ;   . o ! n.l.l.x.l.l.x.l.8.z.l.g.l.e.5.",
"P.v.x.x.x.x.x.x.x.n.n.n.J : 5 .   . % u $.,.:.-.;.;.;.:.;.;.;.,.m * = + 6 5 4 + O + + t ` X   X g.c.l.g.x.c.l.7.b.V.N.l.x.g.B.6.",
"P.v.l.c.l.x.x.x.g.b.v.b.n.S.  . ; _ V & d u u y y s i i i y u * 8 7 6 0 6 8 O $ - r J w : ] 2 X x.c.c.c.l.n.l.c.b.V.v.c.l.x.e.6.",
"P.v.c.c.c.8.x.x.c.M.D.8.n.T.  2 ( 1 ; O 4 8 * g n $.;.O.$.v g + 5 6 0 7 + g k k u - r r 8 1 t ( 2 c.c.x.n.x.g.n.n.c.c.c.l.l.w.6.",
"!.9.l.8.N.w.l.z.n.v.M.c._ ( ( 1 1 % * o 0 6 3 = j O.O.O.O.a - 8 6 6 4 r v O.%.%.v f & r e @ : 2 x.l.c.l.x.x.x.n.n.8.n.l.x.x.w.5.",
"E.9.l.8.Z.r.l.x.n.n.g.n._ ( ( X % i $ @ 4 6 6 o - F F F F - o 6 6 3 = m %.*.*.*.O.k # - t w @ . z.z.l.l.c.l.l.x.x.l.l.l.c.x.N.5.",
"E.v.x.l.A.C.8.x.c.c.n.x.n.n.1 & y c g - + 4 6 4 q D { } D q 4 0 4 O g z X.%.&.=.O.c # - r S w : x.x.x.7.8.l.x.x.x.l.l.c.x.x.B.6.",
"P.v.x.c.M.v.z.x.c.c.x.n.x.n.l.P y z F D 8 9 0 0 4 8 G. .+ 5 0 6 8 - d i l X.O.*.*.%.u = r r + : x.l.l.v.C.b.x.l.l.l.n.c.x.x.B.5.",
"E.v.x.c.c.c.z.x.c.c.x.c.l.l.l.K y z G { J.} 8 0 6 7 q 9 7 0 0 4 | L.g f l x o.*.*.-.c i = J w : l.x.z.b.Z.M.8.c.c.x.l.n.x.x.w.5.",
"E.b.x.g.x.x.x.x.l.g.c.n.l.l.l.) # k G } K.K. .9 3 4 4 5 0 5 e G.Y.Y.H g i z o.t.*.*.%.j & r w t J T.x.8.0.D.9.c.l.l.l.c.n.x.w.5.",
"Q.v.n.c.l.x.x.x.g.l.x.c.l.z.l.A v v G } K.K.K.q o 7 6 6 4 o S Y.Y.Y.} w # k X.%.&.*.%.j = r S t + ` n.c.b.N.b.c.l.n.l.8.x.x.w.5.",
"!.v.x.g.l.c.c.c.l.x.l.c.b.b.$ $.>.X.F D J.J. .q 5 0 6 5 8 3 q  .J.J.} S $ p z z 1.d.Z Y T = r r + ` n.n.l.c.c.g.l.l.l.z.7.l.w.5.",
"E.v.g.l.l.c.c.l.x.x.l.c.m.D.< C $.v i - D q 4 7 0 7 q 9 6 0 0 8 q D D r % < M Z oX}.>X-X{.Y t ! + ` g.n.l.x.l.l.g.l.x.V.V.l.B.6.",
"E.v.g.g.n.n.l.l.l.l.l.b.V.Z.{.}./ Z & + + 4 6 6 7 8 G.G.8 7 0 6 3 + 8 * < R ].].8XrXrXrXwX}.[.[., ` c.n.x.n.n.l.g.l.c.B.V.c.B.5.",
"!.v.g.c.c.x.l.b.b.l.l.v.*X7XwXeX6X_.2 o 5 4 3 3 8 + e e + o 3 3 o o 7 + < '.;X;X<X,X1X1X1XwX1X]., ` b.8.c.l.x.l.l.x.l.8.c.l.N.5.",
"E.v.c.c.x.x.c.V.V.c.x.b. X<X4X4X4X6XT + 6 6 4 L L L L J 4 4 4 4 4 7 0 8 ; Y R E E / W {.;X4X|.E , ` M.A.b.l.x.x.n.c.x.l.z.x.w.5.",
"W.0.c.c.x.x.g.V.V.c.x.l.Q +XoX_.|.6XQ O 5 5 4 ........L 4 7 5 5 7 7 7 + $ f f j o.O.+.~ )._.Y % O ` M.A.8.l.x.x.l.n.l.x.x.z.w.5.",
"!.9.9.7.x.x.c.8.8.n.x.# 3.y.<.+.~ `.Y & * + 8 w w w w q q q w q q + + * $ ;.t.>.>.*.*.O.n n f & : ' c.b.c.l.x.c.l.x.c.l.x.z.9.5.",
"!.v.V.m.l.n.x.l.x.n.n.d ;.>.>.o.x C d # b G { J.K.K.{ } K.K.K.K.| D m a y $.>.>.t.t.*.*.-.X.f & x.z.l.l.x.x.c.x.l.c.x.c.x.z.w.5.",
"E.9.A.M.l.l.l.x.x.c.x.z.h k o.X.z y $ y c F { Y.Y.Y.{ F.Y.Y.Y.Y.F.D v z k p v y.t.&.o.%.&.X.a d x.x.l.x.n.c.n.x.m.8.c.l.l.z.w.5.",
"W.0.8.c.x.n.l.l.x.l.l.b.z.) i k j # % y c n F | F.F.{ | F.F.F.F.H S z v c y a <.%.o.a O.&.X.p & l.x.l.l.x.l.l.n.W.M.c.c.x.x.w.5.",
"E.9.8.c.l.l.l.l.x.c.x.c.l.x.' h p # % y +.o.x m S w S S w S S w = u o.X.l y j <.O.k # n $.j A ' l.x.x.g.g.l.c.C.r.Z.v.c.x.l.w.5.",
"E.b.l.c.z.l.x.l.l.x.b.b.c.l.z._ B V N y >.%.o.l k u $ = & * = $ & u ,.-.X.p j $.x j # p j % k.n.x.x.n.l.l.l.b.Z.w.r.M.g.x.x.w.5.",
"W.v.7.g.z.l.c.l.c.x.v.A.c.S.1 AXKXKX_ y &.t.&.X.l k i = - r r - = u -.=.=.o.k s y y # & = X ' b.l.x.l.l.l.x.l.0.W.B.b.c.x.x.w.5.",
"E.v.g.7.b.x.x.n.x.x.v.A.J [ FXKXSX2 ; d ,.<.<.+.c n u * @ + + O ; & ,.=.<.-.@.b b f < S.HXFX[ 2 n.c.n.x.l.l.x.z.B.b.n.n.x.x.w.5.",
"E.b.g.n.x.n.z.x.l.x.c.8.% ] PX[ _ BX%X).oXoXoX_._._.).%Xg.x.n.l.%X).oXoXoXoXoX_._._.(.Q ] KXKXVX( S.c.c.x.l.x.x.x.c.n.x.l.x.B.5.",
"E.v.n.c.x.n.n.x.l.c.g.b.; 2 BX[ S.g.*X;X4X4X4X4X4X1X;X&Xx.x.n.g.*X-X1X1X4X1X4X4X4X1X-X%X[ [ SXKX1 ( c.n.c.x.l.x.l.c.n.n.c.l.N.5.",
"H.b.x.c.c.b.b.x.l.c.l.n.; X 2 n.n.n.*X:XwXwXqXqXeXeX<X&Xc.c.n.l.*X-XwXwXeXeXqXqXqXwX-XM.c.K [ AXX ( b.c.x.l.c.x.c.0.e.v.c.c.B.5.",
"!.0.x.g.b.A.A.x.n.n.g.g.V _ x.n.n.b.*X'.}.}.{.}.}.].'.&X0.8.l.c.*X].}.}.{.{.}.}.{.].[.M.c.b.[ X   ( b.n.c.x.x.m.b.D.P.w.l.l.N.5.",
"E.v.x.l.c.0.b.n.n.c.g.x.x.n.x.c.9.e._ < 3.3.3.C Z Z < ( A.b.l.x._ < 2.3.3.3.1.C C M < b.c.c.l.g.; ( n.x.l.l.l.l.8.M.M.v.n.x.N.5.",
"E.v.x.l.c.8.8.x.x.l.c.l.c.x.x.l.9.e.) p >.t.=.X.x c y P A.b.c.c.) y :.y.*.t.%.l x k # c.n.n.x.g.x.x.n.c.l.l.z.z.l.l.g.l.c.c.B.5.",
"E.v.x.l.x.c.l.x.l.z.l.l.x.x.n.x.z.z.) y >.y.=.%.O.l y P b.n.x.n.) y -.*.t.t.&.O.X.k # l.n.c.x.x.l.l.l.x.l.x.c.n.l.l.l.l.c.l.N.5.",
"E.v.x.z.c.x.x.l.l.7.x.n.x.x.g.m.x.n.I b #.@.O.>.%.z # P n.n.n.c.) k #.@.@.#.%.=.O.j # l.x.l.x.x.7.l.l.c.l.l.c.c.x.x.x.c.x.c.N.5.",
"E.v.x.c.v.c.n.b.v.l.z.9.n.x.7.( & i #.,.i d a :.O.x y P n.) $ d +.<.i u i p c <.O.k # l.7.9.b.n.7.b.b.c.x.l.l.9.7.l.l.8.b.8.B.5.",
"P.0.9.Z.~.B.h.Z.Z.b.v.a.n.n.l.P f ,.>.$.y b ,.<.O.c u P c.I y ,.>.,.u b ,.,.>.<.O.j # c.7.C.w.h.B.W.C.c.8.c.8.D.9.7.x.w.E.r.w.5.",
"U.Z.r.P.Q.P.r.H.H.r.a.P.r.r.e.K # a a d $ u a a p d S.Z.Z.) # f a p $ u f a p p i B Z.Z.Z.H.H.Z.H.Q.P.Z.r.Z.C.Q.r.r.V.W.!.P.H.4.",
"W.~.~.I.Q.Q.Q.Q.U.U.Q.Q.Q.U.Q.T.k.k.k.k.k.k.k.k.j.S.^.!.!.T.k.k.k.k.k.k.k.k.k.k.k.S.E.Q.!.^.~.!.!.!.Q.!.Q.^.^.!.^.U.Q.^.^.^.^.4."
};
