/* XPM */
static char *result[] = {
/* columns rows colors chars-per-pixel */
"64 64 253 2 ",
"   c #090807",
".  c #1A0504",
"X  c #10130C",
"o  c #171A16",
"O  c #3A0905",
"+  c #2D130E",
"@  c #351808",
"#  c #0E3A09",
"$  c #15370C",
"%  c #132B12",
"&  c #193816",
"*  c #262709",
"=  c #372F0E",
"-  c #27330C",
";  c #252919",
":  c #3A2616",
">  c #263515",
",  c #110F24",
"<  c #25112C",
"1  c #13332A",
"2  c #32342F",
"3  c #460805",
"4  c #4D0A04",
"5  c #530504",
"6  c #5B0503",
"7  c #540805",
"8  c #451407",
"9  c #56180B",
"0  c #610203",
"q  c #55240C",
"w  c #4F2E13",
"e  c #5E2A1B",
"r  c #453514",
"t  c #483428",
"y  c #0D4608",
"u  c #12440B",
"i  c #134C0B",
"p  c #0D5506",
"a  c #155709",
"s  c #13540C",
"d  c #135A0C",
"f  c #0D4A1C",
"g  c #174615",
"h  c #165612",
"j  c #2A5010",
"k  c #0F6B05",
"l  c #166A07",
"z  c #14620C",
"x  c #136A0A",
"c  c #0F7D03",
"v  c #137406",
"b  c #117B03",
"n  c #15750B",
"m  c #167A0A",
"M  c #196814",
"N  c #177916",
"B  c #2C6C0A",
"V  c #144B2E",
"C  c #294A26",
"Z  c #324F2E",
"A  c #156E2D",
"S  c #176436",
"D  c #336C2A",
"F  c #4F440A",
"G  c #704D0A",
"H  c #446605",
"J  c #6E600F",
"K  c #4C4D37",
"L  c #755239",
"P  c #47653D",
"I  c #477A3C",
"U  c #08244E",
"Y  c #152F4E",
"T  c #24235D",
"R  c #171C71",
"E  c #173171",
"W  c #533C42",
"Q  c #14544F",
"!  c #1D5F58",
"~  c #174669",
"^  c #525A4D",
"/  c #556A4D",
"(  c #6C644D",
")  c #68755A",
"_  c #535E65",
"`  c #6F726C",
"'  c #885A0A",
"]  c #915C0E",
"[  c #996E12",
"{  c #B37925",
"}  c #8C6849",
"|  c #0E8302",
" . c #148708",
".. c #189709",
"X. c #188916",
"o. c #189510",
"O. c #248C13",
"+. c #249A15",
"@. c #19A608",
"#. c #1CAB0B",
"$. c #1CB605",
"%. c #1CBD05",
"&. c #1DB309",
"*. c #1EBB09",
"=. c #1EA711",
"-. c #21A60F",
";. c #21AB0D",
":. c #21B60B",
">. c #26A715",
",. c #24B612",
"<. c #229134",
"1. c #22A131",
"2. c #4A9038",
"3. c #779F2A",
"4. c #749E34",
"5. c #749D38",
"6. c #4EA53E",
"7. c #53A43D",
"8. c #5AA93D",
"9. c #64AC3C",
"0. c #73A335",
"q. c #67B63D",
"w. c #6AB33F",
"e. c #74B73C",
"r. c #1BC102",
"t. c #1EC507",
"y. c #26D00E",
"u. c #3BED22",
"i. c #3EF224",
"p. c #73C53B",
"a. c #46FA28",
"s. c #1F844C",
"d. c #218252",
"f. c #4C9D44",
"g. c #539446",
"h. c #688659",
"j. c #6A845C",
"k. c #4EA445",
"l. c #4CA847",
"z. c #4DA449",
"x. c #52A444",
"c. c #5BAA43",
"v. c #58A945",
"b. c #51A349",
"n. c #55A84F",
"m. c #63AC45",
"M. c #66B343",
"N. c #6AB242",
"B. c #6AB64B",
"V. c #73B942",
"C. c #76B847",
"Z. c #6FB952",
"A. c #748C6B",
"S. c #77C14F",
"D. c #AF8D12",
"F. c #B18925",
"G. c #85BD3E",
"H. c #D59115",
"J. c #EAA415",
"K. c #CAA726",
"L. c #8BC63C",
"P. c #96C73E",
"I. c #95CA3D",
"U. c #F5D113",
"Y. c #829271",
"T. c #89AC69",
"R. c #8DC542",
"E. c #8AC747",
"W. c #94CB42",
"Q. c #94C948",
"!. c #90CA53",
"~. c #9ED063",
"^. c #1A1791",
"/. c #172B8B",
"(. c #173289",
"). c #162996",
"_. c #1914AA",
"`. c #1C17B5",
"'. c #2713A7",
"]. c #1725AA",
"[. c #1634AF",
"{. c #1625B6",
"}. c #232AB8",
"|. c #2437BA",
" X c #3739B6",
".X c #493FB8",
"XX c #1A4686",
"oX c #1C419B",
"OX c #1542B7",
"+X c #2657A0",
"@X c #344AB7",
"#X c #1072AE",
"$X c #454A85",
"%X c #494DB7",
"&X c #5D63B8",
"*X c #6E78A6",
"=X c #1815CA",
"-X c #1915D5",
";X c #1F1BD4",
":X c #1724C5",
">X c #1235CE",
",X c #1526D2",
"<X c #1537D6",
"1X c #292DC7",
"2X c #243ACA",
"3X c #1244DA",
"4X c #0C55D9",
"5X c #1556D8",
"6X c #2C51CE",
"7X c #2C4AD7",
"8X c #126DD8",
"9X c #3767DA",
"0X c #316DDC",
"qX c #0E5FE1",
"wX c #1959E4",
"eX c #0E69E5",
"rX c #1464E4",
"tX c #0C77E4",
"yX c #1375E3",
"uX c #3B6CE2",
"iX c #3078E6",
"pX c #4A6ED1",
"aX c #6E7AC4",
"sX c #7B89B2",
"dX c #0585DE",
"fX c #0786E1",
"gX c #1A90E7",
"hX c #3C86EA",
"jX c #2D9AEE",
"kX c #2EA5F1",
"lX c #37A9F5",
"zX c #4193C7",
"xX c #4589E9",
"cX c #4593EE",
"vX c #4E91EF",
"bX c #4898F1",
"nX c #49A9F8",
"mX c #46B5FD",
"MX c #4BB4FE",
"NX c #54B0F5",
"BX c #839283",
"VX c #959792",
"CX c #94A98E",
"ZX c #8796B2",
"AX c #9CACA5",
"SX c #B1B7B0",
"DX c #BFDA90",
"FX c #BFC3BE",
"GX c #C4E499",
"HX c #C1C4BF",
"JX c #D1D1D1",
"KX c #EAEAEA",
"LX c #F7F9FB",
/* pixels */
"KX~.I.W.L.I.I.I.I.I.I.I.I.I.I.I.W.W.W.I.I.P.W.I.W.I.I.W.W.W.W.I.W.I.W.I.I.P.W.I.W.P.P.I.I.I.I.I.I.I.I.I.I.P.W.W.I.P.I.W.I.I.DXHX",
"GXE.q.S.e.e.e.p.V.e.V.e.e.V.V.V.V.e.e.V.C.C.V.B.V.V.V.V.V.s s s h s s s s h s s D V.V.V.V.e.V.e.V.N.V.V.V.V.V.e.e.e.e.V.e.e.~.CX",
"L.c.l.x.6.k.k.k.k.k.k.k.k.k.k.l.7.8.7.k.v.l.x.k.x.I g g X.,.$.%.*.*.*.*.*.*.&.:.>.h s C k.z.k.k.6.k.x.x.k.k.f.7.x.k.6.k.l.k.V.0.",
"R.c.6.x.k.k.l.l.6.k.k.z.l.z.z.k.l.Z.m.b.b.z./ j C O.;.#.$.r.r.r.%.r.r.r.r.r.r.r.*.&.#.o.M h.z.z.z.z.z.z.z.b.b.x.b.b.k.7.k.n.B.0.",
"R.c.x.v.n.m.z.z.x.x.x.b.x.v.b.x.7.N.c.x.b.D M v +.:.r.r.r.r.r.%.r.r.r.r.r.y.u.u.i.u.y.$.+.O./ f.k.x.x.k.b.x.x.b.k.x.c.N.v.z.M.5.",
"E.c.k.x.S.N.6.l.x.x.x.x.x.x.x.k.6.7.x.x./ a  .@.%.%.r.r.r.%.r.%.r.%.r.r.r.t.y.i.a.a.i.u.t...N g.x.x.x.x.z.x.b.b.b.v.C.Q.C.b.N.5.",
"L.8.n.z.c.c.k.z.z.x.f.v.Z.v.b.z.f.6.x.C p b &.r.%.r.r.r.r.r.r.r.%.r.r.r.r.r.t.y.u.a.a.a.t.*.,.p P b.b.b.x.f.b.z.z.b.8.N.c.k.M.4.",
"L.c.l.z.z.z.l.k. X:X1X:X Xv.k.k.k.f.x.C p | #.%.$.$.$.$.$.$.$.%.r.r.r.r.r.r.t.t.t.u.a.a.t.r.*.d Z b.l.v.m.x.b.x.z.k.k.k.k.k.w.5.",
"L.c.b.v.f.k.sX|.vXnXbXgX5X|.1X%Xk.x.g M c | #.#.N N N N N N X.o.*.%.%.%.r.r.r.r.r.r.t.t.%.%.&.N C 1 Y.9.S.8.k.x.x.z.k.f.f.k.w.4.",
"R.c.%X1X X XpXcXnXmXmXlXlXxX0X5X%XE & M m c  .! ).).).).).)./.~ X. ...%.%.%.r.%.r.r.r.%.o. .X.~ ).^.ZXZXm.x.k.k.x.k.k.b.k.k.w.4.",
"R.m.`.7XuX9XhXmXjXjXgX0X7X6XyXtX4X[.R E E E ~ oX0XuXuXuXuXuXuXpX+XE S o...@.%.r.%.%.#.X.Q E ~ 6X@XiXuXpXsXf.z.b.z.z.x.b.k.k.M.4.",
"L.c.&XpXhXNXMXmXgXfXdX4X<X<X4X4X4XwX<X>X3X7X7XuX0XMXMXnXiXiXiXNXhX7X7X~ Q S =.@.@.@.<.~ @X6X7X7XnXMXMX7X}.z.b.z.z.x.z.b.k.k.N.4.",
"R.v.b.&X|.xXvXjXnXkXgXfXfXfX<X-X,X4XdXfXdXjXlXmXmXmXbXpX X X6XxXbXbXnXiX1XoXS S S S ~ 6X|.iXvXvXbXbXNX6X1Xv.x.z.b.k.z.x.k.k.N.4.",
"E.v.b.v.k. X}.1XvXlXnXnXlXtX<X,XeXeXtXdXdXdXdXlXmXNX7X%XKXU U  X`.:XxXnXvXNXxX{.{.].|.9XvX2X`.1X:X6XMX7X Xk.x.b.k.k.b.x.7.k.N.4.",
"R.v.f.f.z.k.m.ZX6X1X1X2X1X,X;X,XtXtXfXdXdXdXdXlXmXMX7X.XLXU U U _ JX|.2X2XcXnXcXhXbXcX9X XU U U 1XyXNX7X Xk.k.6.k.k.k.B.B.k.N.4.",
"G.9.7.x.x.b.v.7.ZXZXZXZXaX;X-X,XtXtXtXfXdXdXdXlXlXnX2X.XKXU U U _ LX_.1XuXnXmXmXlXmXMX+XJXU U U LX8X6XaXZXz.k.l.f.z.k.B.m.z.N.4.",
"P.m.b.k.z.k.x.x.f.b.b.ZXaX6X;X,XtXtXeX4X4XeXdXlXmXMXiXaXLXU U U _ JX^.6XmXkXjXkXkXkXlX~ JXU U U LXqX`.sXb.b.k.k.n.n.k.7.k.b.N.4.",
"R.v.b.x.k.k.n.T.T.CXZXpX6XNX7X;XwXrXOX_.).[.rXhXhXlXlXNX2X6X2X6X7XU {.OXzX#X#X#X#X#X#XY 7XU U U LXrX=X&Xb.b.k.z.g.b.x.k.k.k.w.4.",
"R.m.m.w.v.z.A.X , R |.xXNXbX7X;X{.E & M Q ].].].OXtXtXtX8X8X8X8X8X#X#X+Xi f f f f f f u 2X7X6X#X1X5X].Z b.b.x.x.9.9.x.k.z.x.w.4.",
"G.0.Z.!.m.f.) , ^.@XbXnXvX>X5X#XY f v b N A A ~ {.{.{.:X{.:X:X:X(.V A >.&.#.#.;.#.@.;.;.>.N Y ).).(.N M C A.x.c.Y.; ; ^ z.b.w.4.",
"W.8.m.m.v.b.` , _.6XMXmXlX4XtX#X1 d b c v c ..o.s.d.d.d.! Q Q A o.o...t.r.r.r.r.r.r.r.r.r.#.X.V V n c x # h.x./ t O . Z z.z.w.4.",
"E.8.k.7.x.v.*XR 6XhXMXkXgXdXqXOX1 s b c c c &.t.r.t.r.t.&...@.&.r.r.r.r.r.r.r.r.r.r.r.r.t.*.t.X.N c c x # P ) + 3 6 . 2 z.z.w.4.",
"E.c.k.x.x.b.*X:XhXlXlX8XqXrX`.R P S k b c c @.&.r.r.r.r.#.o.O.o...,.r.r.r.r.r.r.r.r.r.%.@.#.%.t.#.| k d % X . 6 5 O t ) z.z.w.4.",
"E.c.z.b.b.n.sX=XwXyXyX{._.'.R 2 AXA.C M k k c ..&.%.%.#.D C V Z Z +.;.#.;.;.;.;.;.;.#.+.h D >.&.o.n y % . O 0 6 O 2 z.x.z.k.w.4.",
"E.c.l.x.z.k.sX`.,X:X}.T < 3 7 3 * ` AXZ & y z c | #.=.y j.SXSXHXJX/ g g g & g g g g g C AXA.y v x # X . 5 6 7 . ^ n.k.7.z.z.q.5.",
"R.8.l.k.f.f.z.b.x.x.x.6.b.. 3 0 3 : ^ T.) X # f u +.*.+.D ^ Z VXLXJXFXFXFXFXSXJXFXJXFXSX/ Z k y $   + 3 6 O + l.z.z.l.6.z.k.w.4.",
"L.8.z.b.z.x.x.k.z.z.k.6.l.k.t O 7 O . ^ ^ t % o * h X...o.X.m I A.sXY.Y.BXBXBXBXBXA.BXY.C p h % X O 5 5 O t k.z.b.k.k.k.f.k.w.4.",
"L.c.z.b.z.b.b.z.z.z.f.z.k.k.g.^ @ .   < 2 ^ + . @ @ * j B O.O.N M z k z d z z d z d d M z i %   . 6 5 O ^ n.k.k.b.v.x.k.f.k.q.5.",
"L.c.z.x.z.z.z.z.b.b.b.b.z.z.f.z.o   + _ K 8 @ + @ 8 6 6 @ - * B >.>.-.;.;.-.-.>.;.-.-.>.g o o   . 7 : ^ b.k.k.6.7.Z.M.6.k.f.M.4.",
"W.8.k.l.z.z.l.z.x.v.c.v.b.z.z.b.o 2 _ : r e r = * * 8 0 0 6 7 8 * $ y i y i p y y y u $ & Z ^ + X . ` g.k.z.k.x.x.B.c.x.k.z.M.4.",
"L.8.k.x.x.x.l.z.x.m.S.8.x.x.x.Z ^ W : : r r - g x z j @ 7 0 0 5 @ j m >.+...+.N j * 8 4 @ ; j l l $ ) x.z.x.f.n.b.v.v.k.x.b.M.4.",
"R.c.k.7.M.q.x.z.x.v.c.x.x.x.C.c.2 : + e = > d m @.@...m j 5 0 0 4 = a ........l - 3 6 6 3 O...@.@.v a / b.z.z.z.b.x.b.k.b.x.M.4.",
"R.8.k.x.C.e.k.l.x.b.b.b.z.v.C.8.+ @ w t = # k ..%.%.%.#.B = 8 6 0 O - H B B H r O 6 6 7 B #.%.r.%...k P x.k.z.z.z.k.k.k.x.z.M.4.",
"R.c.k.x.Z.V.x.z.x.x.z.z.z.b.v.x.: t F r > # v ..%.$.@.b v h @ 4 0 4 9 G ' ] G 9 4 6 5 a k | @.$.%...v 2.7.7.z.z.z.k.k.x.z.z.N.5.",
"L.c.z.x.m.m.z.z.x.x.z.x.b.z.f.x.: @ r : > i =.%.:...b b p $ - 8 6 6 7 8 { F.8 4 6 6 7 $ p b c  .%.%...D 5.g.z.k.k.k.b.x.z.z.N.4.",
"R.c.k.f.x.k.l.z.x.f.z.x.z.b.x.7.: r F = i n #.r.%...b v u j K.[ 3 6 0 7 9 q 5 0 6 8 ] F i m b ..%.r.&.v i 2.7.x.b.k.k.b.b.z.w.4.",
"R.c.b.x.k.z.z.z.x.k.z.x.x.k.Y.K t w r & x #.%.r.%...v p j J U.U.K.e 4 0 0 4 4 4 9 { H.J j p k ..%.r.r.#.z v.8.x.z.x.z.x.z.z.q.4.",
"R.c.z.x.z.k.z.z.k.f.z.x.k.x.( @ w r = & z #.%.&... .k # w ] U.U.U.w 3 4 0 0 7 O w J.J.] w $ l  .@.&.r.@.z m.v.x.k.z.k.6.z.z.w.4.",
"E.c.z.k.k.x.x.x.k.z.z.x.x.v.( + r r : Y Y Q s.<.v k a $ F ' H.H.{ q 3 3 5 6 6 4 9 { H.' F $ h v v <.s.Q k.7.k.f.k.k.k.x.x.k.w.4.",
"W.c.f.f.k.x.x.k.z.z.k.x.m.Z.( + W 2 Y ].:X{.{.(.S V 1 % F G G e 4 7 0 7 9 q 6 0 6 5 G G F - 1 1 S (.{.:X:X].k.k.k.k.k.B.B.x.N.5.",
"E.c.f.f.k.k.b.k.x.b.x.v.B.C.( < '.'.{.rXeXrXeX5X`.`./.; : O 8 8 6 0 5 O F.F.8 5 6 6 4 @ + 1 ^.`.{.5XeXeXyXrX{.`.'.2.z.N.N.x.M.4.",
"R.c.x.x.k.z.x.x.x.f.k.c.S.8.( < `.<XwX<X<X<X<X,X-X-X^.1 @ 4 O O 3 8 8 @ w w 8 O 3 3 4 4 3 1 ^.;X-X,X<X<X<X<XwX<X_.g.k.7.x.b.M.4.",
"R.m.x.x.z.z.x.B.B.x.k.v.B.8.( o T [.3X;X].~ ~ E R R T & 8 6 7 4 5 4 5 8 L L L L L 9 6 6 O & Y R R E ~ ~ '.;X3X[.R I x.k.l.l.q.4.",
"R.m.x.x.k.z.k.B.B.x.z.k.k.k.( + % Y (./.! X...m d d s $ @ 7 7 7 5 5 5 5 L } } } } 9 5 7 + & h d z m  .o.Q /.(.Y % I k.k.z.z.N.4.",
"Q.8.x.6.z.b.x.x.7.b.z.z.k.l.) : & s N N ..*.%.%.:.t.+.# * @ 8 9 q q w q w 8 w q 9 8 @ * * $ +.*.:.:.r.%...N N h $ I k.k.z.l.q.4.",
"E.9.B.m.k.z.k.k.k.z.b.z.k.z.n.z.& a | #.:.%.%.%.r.:.+.y a B G [ J.J.J.J.[ ] J.J.H.G H B u y +.:.r.r.r.%.*.#. .p & x.z.x.z.k.w.4.",
"R.9.Z.n.k.z.k.k.k.z.z.z.k.z.z.b.& d  .$.@...&.r.:.m a l b B G D.U.U.U.U.[ [ U.U.U.G H v i x d n r.r.&. .#.&.| d > v.x.x.k.k.w.4.",
"E.8.7.x.z.x.k.z.z.k.k.z.k.k.z.v.& s | $...p  .@.,.z u m b l j J D.D.D.D.[ ' D.D.F.B B v i x y z ,.@. .p o.&. .d & m.k.x.z.z.M.4.",
"E.8.8.x.z.k.z.b.k.k.x.b.k.l.z.x.) D z +.n # x ..,.z y v  . .u - F F F w F F F F H b  .X.s z y d ,...k # N +.k D e.C.c.x.b.z.N.4.",
"R.8.k.x.k.x.k.k.k.b.b.v.x.k.z.x.v.j.# d a $ d m >.z p  .@.>.u $ $ - - $ $ $ y d b | @.,.i M p M >. .d # s M # C.9.G.m.f.z.z.w.4.",
"R.c.f.6.k.k.z.x.k.z.c.Z.x.k.z.b.v.) o 1 & $ y y y x  .$.%.=.y & = r = = - u x b  .:.t.&.y / f.M p p # # & > & c.G.N.v.x.z.z.w.4.",
"R.v.f.k.l.b.k.k.b.l.c.Z.x.k.b.b.2 ` FXJXA.1 h M M o.,.,.,.>.& * + O @ @ ; u N N  .,.,.,.f & Z CXAXsX/ 2 b.b.b.z.B.n.x.x.z.k.w.4.",
"R.v.f.b.k.z.z.z.k.k.x.7.x.k.A.^ VXHXJX_ T ^.(.(.(.XXXXXXXXXX^.$Xk.B.B.7.$X/./.(.(.XXXXXX/._ BX^ A.KX` ; z.z.z.z.z.7.b.z.x.z.w.4.",
"R.c.z.b.b.b.z.z.k.k.x.x.k.x.^ 2 JXSX} ` $X=X<X3X3X3X<X3X3X3X=X&Xk.v.v.x.%X=X3X<X3X<X3X3X=XpXg.A.` ` 2 ; n.z.f.z.z.b.b.z.x.z.M.4.",
"R.c.f.x.x.n.c.z.k.k.k.f.k.k.^ o AX` ^ x.m.;XwXqXqXqXqXeXwXwX=X&Xx.l.l.x.%X,XwXrXqXeXwXwX=X&Xk.k.M.K o ; b.z.b.b.x.9.e.c.k.x.N.4.",
"L.m.z.b.x.S.Z.z.b.b.f.6.f.6.^   o j.f.k.v._._.].{.{.{.].{.{.`.&Xk.l.b.x.%X_.{.{.].{.{.{._.&Xk.k.x.v./ 2 f.z.z.n.v.S.L.w.k.k.M.4.",
"R.v.z.x.x.8.c.b.x.z.k.k.k.b.^ ; 7.e.c.z.z.1 S S A <.1.1.1.<.1 ) x.k.z.x.^ 1 S A A 1.1.<.1 ) z.k.z.b.b.k.k.k.k.l.7.c.m.v.x.k.M.4.",
"R.v.z.k.x.7.x.b.x.k.z.x.b.z.z.k.6.p.M.l.z.# k b b @.r.r.*.#.y / x.z.z.x./ y v c | :.r.:.p / z.z.f.z.b.z.k.k.k.k.k.k.k.k.x.x.N.4.",
"R.c.z.z.b.x.b.z.k.k.k.z.z.z.b.z.z.x.x.b.b.# x  ...$.t.t.t.>.# / z.z.z.z.D y k  .@.%.r.,.y ) l.z.b.k.k.x.z.x.k.b.k.x.k.k.x.z.M.4.",
"R.c.l.k.x.b.f.x.k.6.z.z.z.z.z.b.z.z.b.k.k.# z ..:.@.o.o.o.O.M I k.v.b.b.^ y c @.,.o.o.O.M D l.l.6.k.k.k.z.k.k.v.z.z.z.b.b.x.M.4.",
"R.m.z.x.8.x.b.v.c.x.x.8.b.z.6.x.v.v.v.v.v.# k &.&.s u i ,.X.g $ z.l.k.k.P y v &.u u >.O.i # z.l.k.7.v.k.b.x.x.8.6.k.k.v.v.8.N.4.",
"L.9.8.C.!.m.v.B.C.x.c.p.b.b.f.v.C.w.V.Z.B.& z ;.>.>.M y >.&.>.i +.k.z.x.P u M >.M # >.,.1.i z.l.z.E.C.x.7.x.7.S.8.7.f.e.R.e.9.5.",
"L.C.e.L.W.L.e.G.L.e.V.L.e.e.e.V.E.C.R.G.G.L.D s s h u $ h s s # z.z.z.e.S.A.g z u $ h d s # l.z.z.I.L.C.e.C.V.E.C.e.B.E.W.L.G.3.",
"Q.!.!.I.W.W.Q.W.I.I.W.W.W.I.W.Q.I.!.Q.I.W.Q.A.j.j.j.j.j.j.j.j.j.j.j.T.!.W.W.j.j.j.j.j.j.j.j.h.h.Y.Q.W.Q.W.!.!.Q.Q.I.W.!.!.!.!.3."
};
