/* XPM */
static char *_4989c4acba74882838e27e28d2b771cKxaU0bBhCBSH90Ns[] = {
/* columns rows colors chars-per-pixel */
"64 64 244 2 ",
"   c #5E371E",
".  c #4A3827",
"X  c #5A392C",
"o  c #483A37",
"O  c #3B4137",
"+  c #5D471C",
"@  c #76441B",
"#  c #615013",
"$  c #55452B",
"%  c #524E35",
"&  c #694926",
"*  c #754B24",
"=  c #7B5629",
"-  c #6C5131",
";  c #6A5535",
":  c #757A2F",
">  c #7B6236",
",  c #667936",
"<  c #7D7E36",
"1  c #7C7C39",
"2  c #55514B",
"3  c #69524B",
"4  c #6F684B",
"5  c #786C65",
"6  c #82541D",
"7  c #B1541A",
"8  c #BA5618",
"9  c #8E6A12",
"0  c #B8651B",
"q  c #B87018",
"w  c #8D4D29",
"e  c #8A5726",
"r  c #AC572A",
"t  c #AD582A",
"y  c #B85727",
"u  c #A65933",
"i  c #976726",
"p  c #89792B",
"a  c #9C7629",
"s  c #927E2E",
"d  c #9A7B2C",
"f  c #856737",
"g  c #847C35",
"h  c #897B35",
"j  c #AB6D2C",
"k  c #B36626",
"l  c #C44E14",
"z  c #C9551B",
"x  c #D65416",
"c  c #DE5517",
"v  c #DC5518",
"b  c #D55819",
"n  c #DE5919",
"m  c #E15F1D",
"M  c #C8661B",
"N  c #DA651B",
"B  c #D0741F",
"V  c #E46414",
"C  c #E96C18",
"Z  c #EC721B",
"A  c #E9771A",
"S  c #F57915",
"D  c #C75923",
"F  c #D35B22",
"G  c #E15F22",
"H  c #C76429",
"J  c #D66522",
"K  c #D46429",
"L  c #CC732C",
"P  c #D37935",
"I  c #E56724",
"U  c #E86C29",
"Y  c #EB7222",
"T  c #EC762B",
"R  c #E87531",
"E  c #8F7450",
"W  c #AB6649",
"Q  c #AC6B4E",
"!  c #A4734B",
"~  c #99786C",
"^  c #C46B42",
"/  c #499E3E",
"(  c #569F3F",
")  c #6B812C",
"_  c #798A2A",
"`  c #7F912E",
"'  c #759F2E",
"]  c #778639",
"[  c #759F31",
"{  c #4BA33B",
"}  c #4EA63E",
"|  c #4DA93E",
" . c #55A736",
".. c #53A63D",
"X. c #5AA53C",
"o. c #54A93D",
"O. c #5BAC3D",
"+. c #5EB13C",
"@. c #76A32A",
"#. c #63AD37",
"$. c #61AC3C",
"%. c #73A536",
"&. c #66B43D",
"*. c #69B53A",
"=. c #6AB43D",
"-. c #76B839",
";. c #74BA3D",
":. c #75C739",
">. c #479F40",
",. c #4B9F44",
"<. c #579F44",
"1. c #758B47",
"2. c #778C56",
"3. c #709453",
"4. c #739356",
"5. c #47A644",
"6. c #4DA644",
"7. c #4CA843",
"8. c #4DA64A",
"9. c #47A84A",
"0. c #4CA84A",
"q. c #51A543",
"w. c #59A342",
"e. c #53A942",
"r. c #5BAC43",
"t. c #51A44A",
"y. c #57AB4A",
"u. c #5DB247",
"i. c #4DA451",
"p. c #50A550",
"a. c #62AC44",
"s. c #68AD47",
"d. c #64B444",
"f. c #6AB443",
"g. c #6CBA45",
"h. c #64B44B",
"j. c #6CB64B",
"k. c #67B94D",
"l. c #6CBA4C",
"z. c #75B543",
"x. c #74BA41",
"c. c #7CBB43",
"v. c #76B84A",
"b. c #74BD4B",
"n. c #61AD50",
"m. c #6BBA51",
"M. c #76BE53",
"N. c #6EC045",
"B. c #7AC344",
"V. c #77C14B",
"C. c #76C255",
"Z. c #87882B",
"A. c #8C8932",
"S. c #958835",
"D. c #AF8C30",
"F. c #86BD3B",
"G. c #A4AC3C",
"H. c #DA811F",
"J. c #EB8518",
"K. c #F18B17",
"L. c #F5851E",
"P. c #F7881A",
"I. c #F59619",
"U. c #F79818",
"Y. c #F99C1B",
"T. c #F7A617",
"R. c #D7832C",
"E. c #EB8726",
"W. c #F88C28",
"Q. c #EC962C",
"!. c #F79827",
"~. c #FB9B2B",
"^. c #E68435",
"/. c #F79A34",
"(. c #F8A829",
"). c #F8B324",
"_. c #F9B32C",
"`. c #EFA430",
"'. c #FAA739",
"]. c #FBBC33",
"[. c #FAB538",
"{. c #8EC63E",
"}. c #8AC839",
"|. c #96CA38",
" X c #95CC3B",
".X c #96CB3D",
"XX c #99CA3C",
"oX c #95D036",
"OX c #FBC83E",
"+X c #8B8F50",
"@X c #AD8A4D",
"#X c #83BD49",
"$X c #998865",
"%X c #B0926A",
"&X c #C4914D",
"*X c #FC9C43",
"=X c #F2994C",
"-X c #FBA845",
";X c #F9B646",
":X c #EFA852",
">X c #FBB555",
",X c #C9976D",
"<X c #C8A565",
"1X c #C8AD79",
"2X c #F6AB67",
"3X c #ECB065",
"4X c #ECAB76",
"5X c #F8AA76",
"6X c #FAB97A",
"7X c #8DC643",
"8X c #8BC847",
"9X c #91C642",
"0X c #94CC43",
"qX c #99C947",
"wX c #94CC4B",
"eX c #8ED045",
"rX c #8ACA54",
"tX c #95CB53",
"yX c #9FD163",
"uX c #FBC744",
"iX c #FAD05E",
"pX c #FAC967",
"aX c #FEC578",
"sX c #FCE262",
"dX c #A3BA88",
"fX c #C39784",
"gX c #C8AC91",
"hX c #EFB58D",
"jX c #C9CE93",
"kX c #F8CC8B",
"lX c #FAC596",
"zX c #FDD79C",
"xX c #C5E59A",
"cX c #F0C4A4",
"vX c #FAD8A7",
"bX c #F6D9BB",
"nX c #F9E3A8",
"mX c #C7CAC0",
"MX c #F4DFC6",
"NX c #FBEAC9",
"BX c #FBEBD6",
"VX c #FBF1D8",
"CX c #FAF4E5",
"ZX c #FCF4EC",
/* pixels */
"CXyX X0XoX|.|..X0X.X X X X|.|.0X0X0XXX|.XXXX0X.X.X.X.X.XXXD.D..X.X.X.X.X.X.X.X.XXX.X.X XoX X X X X XXXXXXXXX.X X X|. X.XoX XxXmX",
"xX8Xg.x.-.;.;.;.;.;.;.;.;.;.;.x.x.;.-.;.x.x.x.x.x.x.x.x.-.y N D.+Xx.x.x.x.x.x.x.x.x.x.x.;.x.;.;.;.;.x.x.x.x.;.;.;.;.;.x.;.;.yXdX",
"}.O.8.q.} 7.7.6.6.6.6.6.6.6.6.6.o. ...6.6.6.6.6.q.q.q.6...g D I W 2.q.q.6.6.6.6.6.6.6.6.6.6.6.7.6.6.6.6.6.6.6.} | 7.7.7.5.| =.%.",
"7Xr.| e.6.| 5.7...6.6.7.0.6.8.8.q.l.u.0.0.8.6.8.8.8.8.8.6.w.W U K W 8.8.8.8.8.8.8.6.6.8.8.8.7.7.6.6.8.8.8.8.6.w.q.8.q...q.8.f.[ ",
"7Xr.q.e.n.r.8.8.q.q.q.q.q.q.q.q...f.d.q.q.6.,.q.q.q.q.q.o.a.+XF T y q.q.q.q.q.6.q.q.q.w.s.w.q.q.q.q.q.q.q.q.q.q.6.6.+.=.r.8.f.%.",
"8Xr.} q.C.=.| 5.6.q.q.q.q.q.q.6.}  ...6.6.6.6.6.6.6.6.6.o.v.+XD T y 6.6.6.q.q.,.6.q.e...b.f.q.q.q.q.q.6.6.6.q.t.t.w.c.9Xz.q.f.[ ",
"}.O.i.t.r.O.7.9.8.6.q.r.m.r.q.6.7.} 6.6.6.6.8.6.6.7.6.7.q.a.W F T r 6.6.7.6.0.7.} 6.q.g.f.l.d.q.q.6.6.6.q.q.8.8.8.7.$.f.r.7.&.@.",
"{.r.8.6.7.6.7.7.6.6.t.O.b.w.6.6.6.6.6.6.6.6.6.6.6.6.6.6.q.2.y U K ! 6.6.6.6.5.6...8.q.b.$.g.d.q.8.6.6.w.$.w.8.6.6.6.6.6.7.7.=.[ ",
"{.r.8.6.6.7.7.7.6.6.t...o.q.6.6.6.6.6.6.6.6.6.6.6.6.6.6.w.W D I W 4.6.6.t.w.} 8.8.8.6.o...r.o.q.,./ | r.C.o.7.6.6.6.6.,.{ 7.=.[ ",
"{.r.8.6.6.6.} 6.6.6.6.6.7.6.6.6.6.6.6.6.6.6...6.6.6.6.6.<.D W s 2.6.6.6.r.j.t.q.6.7.6.6.6.t.q.t.8.6.6.e.d...6.6.6.6.6.6.7.7.=.[ ",
"{.r.8.6.6.6.e.6.6.6.6.8.8.7.6.6.6.6.q.6.0.r.O.6.6.6.6.q.<.^ ! q.6.6.6.6.d.b.$...7.6.6.7.8.8.8.8.8.q.8.8.q.8.8.6.6.6.6.t.6.7.=.[ ",
"{.r.6.6.6.6.} } e.8.6.8.t.{ 6.6.6.6.q.6.8.h.M.q.6.6.6.6.<.Q ] q.6.6.6.6.e.f.B.o.8.q.6.7.6.8.8.6.6.q.8.8.8.8.8.6.6.6.6.t.6.7.=.[ ",
"7Xr.8.6.6.q.u.u.6.0.7.t.e.d.e.6.6.6.q.8.8.a.S.g ] e.y.q...+X4.q.6.6.6.6.q.r.h.q.8.q.q.6.6.6.7.6.6.t.q.6.6.6.6.6.6.6.6.q.6.7.f.[ ",
"8Xy.8.6.7.6.j.m.6.9.5.q.r.C.y.6.6.6.6.6.6.<.y N M ] q...r.c.4.o.q.6.6.6.q.6.t.6.6.6.6.t.6.| 7.6.t.y.o...6.6.6.6.6.6.6.X.o.6.f.[ ",
"7Xr.,.} 7.6.X.o.7.9.7.q.X.r.6.6.6.6.6.6.6.q.g N C H A.y.V.f.b.h.6.6.6.6.6.6.6.6.6.7.q.q.6.7.8.} &.:.N.o.q.6.6.6.5.7.6.l.j.6.f.' ",
"|.$.( } 6.6.....7.8.6.q.e.q.6.6.6.6.6.6.6.6.q.g K J H t.j.r.j.y.8.6.6.6.6.6.6.6.6.6...+.r.8.8.} +.:.g.q.q.6.6.| 6.7.7.d.h.6.f.[ ",
"{.r.t.6.5.6.e.} 7.6.6.6.7.7.6.6.6.6.6.6.6.6.6.w.y U H 6.q...q.6.7.6.q.7.7.6.q.4.6.6. .V.h.6.6.8.t.t.q.q.q.6.6.7.t.p.6...q.6.f.[ ",
"7Xr.8.6.7.6.6.6.6.6.6.6.7.6.6.6.6.6.6.6.6.6.6.q.g K y q.5.q.6.6.0.q...6.7.6.q.~ 6.6...&.r.q.} 6.8.8.q.q.t.6.6.8.q.w.6.6.6.6.=.[ ",
"{.$.a.=.O.6.7.7.6.6.7.6.8.6.6.6.6.6.6.q.4.6.6.6.q.h r 6.5.7.5.7.e.r.$...6.>.6.2.s 7.q.q.e.7.6.6.6.| q.t.t.6.6.q.#.#.r.6.6.6.=.[ ",
"|.#.M.rXd.6.6.6.6.6.6.7.8.8.6.6.6.....w.~ 6.6.6.6.q.< 7.6.9.7.6.} l.b. .6.6.6.w.N s 6.t.6.6.6.8.8.6.q.q.8.6.6.o.B.eXd.6.8.6.=.[ ",
"9XO.u.d.r.6.6.6.6.a.g.e.q.6.6.8.| f.B.d.2.s q.y.e.6.q.4.t.8.7.6.} r.u.| 6.6.8.q.J V g 6.6.6.6.8.e.$.g.e.8.7.} ..r.d.r.q.6.6.=.[ ",
"9Xr.} ..e.6.6.6.q.f.B.$.7.6.6.5.e.b.rXh.w.N s 6.6.6.q.4.t.t.7.6.q.e.6.e.q.q.8.<.J S y 6.6.6./ ,.r.f.V.O.6.7.6.e.} { 6.q.6.6.=.[ ",
"8Xr.6.q.6.6.} } d.c.=.B.7.6.6.7.6.o.X.r.w.F V g 6.6.6.6.X.p 5.6.e.6.6.6.6.q.8.w.U N r 6.6.6.} 6.h.V.*.C.e.6.6.6.7.6.6.q.6.6.=.[ ",
"8Xr.6.q.6.6.} } r.z.-.d.q.| 6.7.6.q.q.q.w.z V K < 6.6.q.=.l p 6.8.6.6.6.8.8.q.S.U r < 6.6.6.q.q.r.d.#.d.e.6.6.6.6.8.6.q.6.6.=.[ ",
"7XO.6.q.6.6.6.e.6.d.B.7.o.7.6.6.6.6.6.6.q.h D U H 6.6.y.F.x z p 6.6.6.6.8.8...U D t 6.6.6.6.q.q.q.e.w.o.6.6.q.6.6.8.6.6.6.6.=.[ ",
"{.O.7.6.6.6.6.e.6.q.y.{ 7.6.,.6.6.6.7.6.6.<.y m U 6.6.w.F.c C z p 6.6.6.6.q.h K y < 6.6.6.6.q.q.q.e.0.0.5.q.q.7.7.6.7.6.6.6.=.[ ",
"}.O.6.6.6.6.q.6.6.8.5.} 5.| 6.6.6.6.7.8.6.t.h c R 6.6.q.=.d Z C 8 8.6.} 6.w.y W g q.6.6.6.6.q.q.6.8.8.5.6.6.6.7.8.6.6.6.6.7.=.[ ",
"{.O.8.8.8.q.q.6.6.8.8.6.7.7.q.q.6.6.6.6.r.o.d m R 6.6.6.e.d E.L.8 8.e.o.q.q.g 2.4.6.6.6.6.6.6.6.6.6.7.>.6.6.6.5.6.o.e.6.6.6.&.[ ",
"{.O.6.6.8.8.8.6.6.q.q.8.8.8.8.6.6.6.| ..d.S.n U H 6.6.q.d Z ].L.8 q.h.j.s 6.6.q.4.6.6.6.6.6.6.6.6.q.6.6.6.6.6.| ..l.d.} 6.6.&.[ ",
"{.O.7.6.6.9.8.8.q.O.r.q.q.8.9.7.6.q.3.q.s.y U K < 6.q.h J.Y.(.N p q.h.v.b 6.6.6.6.6.6.6.6.e.6.6.6...q.6.6.6.6.6.w.k.d.q.6.6.&.[ ",
"{.O.6.q.o.o.7.8.q.d.C.o...q.e.6.6.q.4.2.<.W I r 6.( d H.).T.C p e.q. .a C s 6.6.6.8.6.6.6.q...6.6...q.6.6.6.6.8.t.w.q.6.6.6.&.[ ",
"{.O.6.o.d.&.7.8.q.O.d...6.o.l.r.q.8.8.2.w.2.^ r 6.( n ).).I.b 6.q.s d Z I.b 6.6.6.8.8.6.6.h.f.6.8.6.6.6.6.6.6.8.t.q.q.6.6.6.&.[ ",
"{.O.6.o.b.-.o.8.q.q.q.6.8.r.x.O.w.2.6.s q.q.2.< q.d Z ].T.L.b q.d C J.(.T.b 6.q.s 8.8.6.7.j.f.6.8.6.6.6.6.6.6.8.8...6.6.6.6.&.[ ",
"{.r.6.6.b.z.q.7.q.6.6.8.8.6.e.q.q.2.1 v s 6.8.q.d Z Y.).I.C v d Z Y.).).I.s q.d b 8.6.6.6.q.q.6.6.6.6.....6.i.6.6.6.6.6.8.8.f.[ ",
"{.r.6.6.a.$.6.7.q.6.6.6.6.6.6.6.q.p F C n 1.8.w.c L.).T.W.c Z Z Y.).).I.A 6.w.z H 6.6.6.8.8.6.6.6.6.7.r.g.r.8.6.6.6.6.q.8.8.=.[ ",
"{.r.6.6.q.q.9.8.q.6.6.6.6.6.6.q.p m S '.E.L q.d A (.].!.Y Z Y.Y.).].T.L.b 6.w.z L 6.6.6.6.6.6.6.6.6.7.y.B.$...6.6.6.6.q.8.8.=.' ",
"9Xr.6.6.6.0.8.7.6.6.6.6.6.6.q.p b S L.uX[.I.w.c T.uX].Y Z U.T.).).].U.L.b q.s x T < ..6.6.6.6.6.6.6.6...$.V.O.6.6.6.6.q.8.6.*.' ",
"9Xr.6.6.6.7.6.6.6.6.6.7.7.7.w.l b Z ~.uX(.H.w.c T.uX[.c Y.).).).J.].U.L.D w.z Z ~.t r.7.6.q.6.6.6.6.8...w.d.o.6.6.6.6.} 6.6.=.[ ",
"9Xr.7.6.6.6.q.6.6.6.6.6.| e.q.p p b ].[.A M w.n _.uX(.n T.].).U.n _.T.L.r w.x (.R.S.r.5.6.q.6.6.6.6.t.q.6.6.6.6.6.6.6.o.| 6.=.[ ",
"9Xr.6.6.6.q.q.6.6.8.6.e.O.C.r.6.q.y ].Y.V y 1.n ].[.Y.Z T.).U.C Z _.(.L < w.Z ].B Z.o.9.6.6.6.6.6.6.6.8.7.8.6.6.6.6.6.k.k.6.f.[ ",
"9Xr.,.6.7.6.6.6.7.7.6.o.j.x.f.e.6.u _.(.A H W V ].T.(.P.T.).Z T Z ;X).t ..w.A (.(.B < 9.6.8.8.6.6.6.6.7.7.6.6.6.6.6.6.f.f.q.=.%.",
"9Xr.6.6.6.6.6.q.o.6.6.r.C.$.C.y.q.D `.OXQ.J.L V (.!.;X[.'.E.Y '.n uXI.r ..w.J T.(.A r 7.8.6.7.6.6.q.w.o.q.6.6.6.6.6.6.....6.=.%.",
"7Xr.q.q.7.8.q.j.j.q.6.e.u.X.r.e.w.V ;XOX_.(.P.J P ^.-XsX>Xc /.E.n _.L.y g D.E.T.Y D 1 7.q.6.7.6.q.q.a.M.w.6.8.6.e.6.6.6.9.9.=.[ ",
"7XO...q.6.8.q.h.f.q.6.6.} ....6.w.J '.`.OX[.I.E.L L '.iXiXY -Xc E.I.I F K J.W.A D 1 7.q.r.r.7.6.6.q.a.l.o.6.8.6.6.6.6.6.9.5.=.[ ",
"9X$.....6.6.6.....6.8.6./ 6.6.6.w.K ^.Q.OXOXY.~.K.A E.;X=XW.;Xn _.C z N E.B W.v r 0.| q.V.f...e.6.8.q...6.6.6.6.6.6.6.6.7.7.=.[ ",
"9X$.k.r.6.6.6.6.6.8.8.6.6.7.8.6.<.l P !.Q.[.'.>X!.P.L.T Y '.kXY I.N N E.E.R.W.x < 6.q.g.=.x.d.q.6.9.7.6.6.6.6.6.6.6.6.q.6.| *.[ ",
"8XO.m.u.6.6.6.6.6.6.8.4.6.6.8.q.$.7 K Y.R.^.-XpX>X~.'.Y '.kXBXW.W.L.A /./.L.Z b o.] q.l.*.x.h.} 6.8.7.6.7.6.q.7.y...q.6.6.6.=.[ ",
"7XO.o.o.6.6.6.6.6.6.6.4.6.6.8.w.S.D x S E.P /.>XpX'.>XW.kXBXvXW.-X-X*X*X/.L.C n d y Z.o.b.&.o.} 6.8.6.6.6.6.7.r.V.a.q.q.6.8.=.[ ",
"7XO.} e.6.6.6.6.6.6.6.6.6.6.8.w.8 c V S I.Q./.:X2X>XaX:XNXvX-X6X>X>X>X-X'.~.C S V v 0 } d.r.} 6.6.8.6.6.6.6.e.f.;.z.r.q.6.6.=.[ ",
"7XO.6.q.7.6.6.6.6.6.q.r.q.6.7.w.k c K./.P.(.>X=X5X6XvXvXBXpXlXNXpXaX2X*X/.L.S /.K.v j 7.6.6.6.6.6.6.6.6.6.6.r.B.*.-.d.7.6.6.=.[ ",
"7Xr.6.} 6.6.6.6.6.6.u.M.e.6.1.w.0 z Y.>X!.~.2X2X4XhXvXVXBXzXZXNXzXzX5X*X/.S ~.>XU.z q 5.6.6.6.6.6.6.6.6.6.6.q.$.8Xf.r.6.6.6.=.[ ",
"7Xr.,.6.7.6.6.6.6.6.r.j.w.1.1.w.M 8 E.'.-X;X>X2X6XcXbXCXNXCXZXVXNXzX5X=X>X;X-X'.A 8 M 6.6.6.8.6.6.6.6.6.6.6.6.e.f.r.6.q.6.6.=.[ ",
"7Xr.8.6.6.6.6.6.6.7... .w.! 6.t.t x G E.'.pXpX2X6XcXMXCXCXZXCXVXVXzX5X2XpXpX'.A G z 0 ] 6.6.8.6.e.e.q.6.6.6.6.0.8...8.8.6.6.=.[ ",
"{.r.8.6.8.q.7.8.7.7.6.6.6.1.1.2.Q z M I (.>XpX6X4XlXbXVXCXZXVXNXVXzX4X6XpX;X~.G M z k ] 6.6.6.} d.g...6.6.6.6.7.7.q.t.6.6.6.d.' ",
"{.r.8.6.q.r.r.8.6.6.6.6.6.q.1.! Q u j F ^.-X:X3X2XlXvXMXNXBXVXNXNXlX3X3X:X-X^.F 0 7 j r.8.6.6.6.d.j.q.6.6.6.6.6.o.&.;.O.6.6.d.' ",
"{.r.8.6.e.m.j.q.q.q.6.6.6.6.q.1.u W ! u u &X@X%XhXhXcXjXbXbXnXnXcXhX3X&XD.^ u H D 7 k Z._ q.6.6.q.e.q.6.6.6.8.i.e.B.}.=.6.6.d.' ",
"{.r.8.6.q.O.O.t.q.6.6.6.6.6.8., e & - = > @X! ~ $X,XfX%XgXhXkXkX1X,X:X<X@X!   w w 0 q 9 _ q.6.6.,.t.t.6.6.6.6.7.| r.d.r.q.6.d.' ",
"{.r.8.6.q.o...t.6.6.6.6.6.6.q.* = $ . - 4 4 ; 5 @X$XE ,XgX%X4X<X<XE ! %X$X@Xo . + Z._ _ t.q.6.6.6.8.8.6.6.6.6.7.7.7.6.6.q.6.f.' ",
"{.r.8.6.6.q.6.8.6.6.6.6.6.6.6., = a % % f $ O 4 E 2 2 @X1X5 E $X%X4 o 3 3 h > > 9 8.| 6.8.6.6.6.6.6.6.6.6.6.6.t.6.6.6.6.6.6.d.' ",
"7Xr.9.7.7.7.8.5.7.| 8.6.8.7.8.i., i ; o 6 & ; f % % 2 +X%X5 2 5 $XE % o & f i e 9 8.7.7.8.7.8.7.| 6.6.6.6.6.6.q.6.8.8.6.8.6.f.%.",
"7Xr.5.e.O.o.8.o.r.7.e.o.6.7.| q.w.* * X   + & * $ % o @XE 2 % > 4 E % & = i * * # | | 7.7.o.o.8.o.O.e.6.8.7.7.O.| 7.6.o.r.o.=.@.",
"{.#...b.rXf.w.v.v.<.r.:.e.8.6.o.b.] ) 4 , @   . - X % E > = > = f 2 . e * 6 @ * ) r.6.q...g.*.<.s.8Xb.o...6.o.B.+.{ 8.;.}.-.=.[ ",
"}.c.-.{.0X}.-.F.}.-.;.}.;.-.z.;.8X#X7XF.F.Z.: & * i ; 4 e i & . i f , _ _ _ Z.` {.;.v.z.z.#XF.-.#X.X}.z.-.v.c.7Xc.-.j.7X0X}.F.' ",
"eXrXwX.XXX0XeX0X X.X0X X0X X0X0X XwX0X.X0XeX.XZ.A.i > +XA.A.] ) Z.G.0XwX0X X0XtXqX X0X X.XtXtX0XwX0X.XwX XtXtXwXtXoX0XwXtXrXtX@."
};
