/* XPM */
static char *result[] = {
/* columns rows colors chars-per-pixel */
"64 64 245 2 ",
"   c #343434",
".  c #5C4D0E",
"X  c #5D4E14",
"o  c #594B1C",
"O  c #5C5317",
"+  c #685618",
"@  c #725D13",
"#  c #7A661E",
"$  c #584C27",
"%  c #5C5129",
"&  c #5C5336",
"*  c #61573D",
"=  c #7D6A27",
"-  c #7C7829",
";  c #7A6B3A",
":  c #504B43",
">  c #635C54",
",  c #6C6347",
"<  c #766A49",
"1  c #69655C",
"2  c #7D7359",
"3  c #6C6B61",
"4  c #716D67",
"5  c #77756D",
"6  c #78746A",
"7  c #B33725",
"8  c #DA3825",
"9  c #EE2E21",
"0  c #EA3924",
"q  c #836A0D",
"w  c #9C7D08",
"e  c #866E18",
"r  c #957C1A",
"t  c #964C2B",
"y  c #B9462A",
"u  c #BC5A2C",
"i  c #BA4A36",
"p  c #BB5236",
"a  c #867227",
"s  c #8D7139",
"d  c #B86631",
"f  c #C6552F",
"g  c #C55C38",
"h  c #E94526",
"j  c #EB552B",
"k  c #EA5E3C",
"l  c #DB692F",
"z  c #CB6937",
"x  c #D46533",
"c  c #CB7639",
"v  c #EB632D",
"b  c #E96134",
"n  c #E97837",
"m  c #F07835",
"M  c #BE4C41",
"N  c #BD5A45",
"B  c #837759",
"V  c #BF7C46",
"C  c #867D67",
"Z  c #847E75",
"A  c #C76C48",
"S  c #CB774C",
"D  c #D37E48",
"F  c #D66856",
"G  c #EB744E",
"H  c #529C3B",
"J  c #759430",
"K  c #749E34",
"L  c #749D38",
"P  c #4EA53E",
"I  c #4DA83E",
"U  c #55A637",
"Y  c #53A43D",
"T  c #5BA53D",
"R  c #55A93D",
"E  c #5CAB3D",
"W  c #5DB039",
"Q  c #7AA42C",
"!  c #64A53D",
"~  c #63AB3D",
"^  c #6AA83A",
"/  c #75A736",
"(  c #66B63D",
")  c #6AB33E",
"_  c #72B63C",
"`  c #79B73B",
"'  c #73B93D",
"]  c #75C53C",
"[  c #4B9E43",
"{  c #4D9E48",
"}  c #559E46",
"|  c #4EA445",
" . c #4DA847",
".. c #4EA44A",
"X. c #52A444",
"o. c #5AA543",
"O. c #55A842",
"+. c #5BAA43",
"@. c #51A34A",
"#. c #58A449",
"$. c #5BAB49",
"%. c #5EB049",
"&. c #4DA351",
"*. c #51A352",
"=. c #62AD43",
"-. c #66AC45",
";. c #65B443",
":. c #6AB342",
">. c #6CBA46",
",. c #63B24B",
"<. c #6BB54C",
"1. c #6CB94B",
"2. c #74B543",
"3. c #77B646",
"4. c #73B942",
"5. c #73BD4C",
"6. c #69AC52",
"7. c #6ABA52",
"8. c #76BD51",
"9. c #78C248",
"0. c #77C154",
"q. c #9A8715",
"w. c #9C901B",
"e. c #AF8F08",
"r. c #A68715",
"t. c #B79611",
"y. c #B2AB1A",
"u. c #959235",
"i. c #AE9039",
"p. c #88A32A",
"a. c #95AB28",
"s. c #81AA31",
"d. c #86BA3B",
"f. c #B1AF31",
"g. c #CBA308",
"h. c #C7873A",
"j. c #D3853C",
"k. c #D98738",
"l. c #CB953C",
"z. c #DA983D",
"x. c #E7883A",
"c. c #E8913D",
"v. c #D4A53F",
"b. c #8DC53E",
"n. c #89C83B",
"m. c #94C63D",
"M. c #95CA3D",
"N. c #98C93E",
"B. c #B48549",
"V. c #AE9842",
"C. c #B69644",
"Z. c #82BC4A",
"A. c #BBAB44",
"S. c #8A857A",
"D. c #928B7E",
"F. c #A9936C",
"G. c #D68B4A",
"H. c #C69848",
"J. c #D79847",
"K. c #CC8756",
"L. c #CE8F52",
"P. c #D4925A",
"I. c #EF8E48",
"U. c #E89643",
"Y. c #C7A746",
"T. c #D9A847",
"R. c #C8B846",
"E. c #D7B747",
"W. c #CEA654",
"Q. c #E6A747",
"!. c #E3AA46",
"~. c #E8B649",
"^. c #E4BC4A",
"/. c #ECBA4A",
"(. c #EDB555",
"). c #CF9768",
"_. c #D59867",
"`. c #D6AD70",
"'. c #D7AB77",
"]. c #E6B16E",
"[. c #8DC542",
"{. c #8AC848",
"}. c #95C745",
"|. c #93CB43",
" X c #93CB4A",
".X c #8CCA53",
"XX c #98C756",
"oX c #93CA52",
"OX c #9ED063",
"+X c #CEC24E",
"@X c #E8C34A",
"#X c #F1C34B",
"$X c #E6C053",
"%X c #ECC274",
"&X c #969088",
"*X c #9D9896",
"=X c #A29A8D",
"-X c #A29D99",
";X c #A4AD90",
":X c #A49FA2",
">X c #ACA7A6",
",X c #B2ADA9",
"<X c #B5B1AB",
"1X c #B9B5B2",
"2X c #BAB6B5",
"3X c #D8B08A",
"4X c #DDBB95",
"5X c #E3B290",
"6X c #C3BCB7",
"7X c #E8ACA0",
"8X c #BFDA90",
"9X c #EDCC86",
"0X c #E7C69D",
"qX c #DFC7AB",
"wX c #C7C3BE",
"eX c #E3C8A9",
"rX c #F0D6A3",
"tX c #E6CAB4",
"yX c #E8D3B3",
"uX c #CBC5C2",
"iX c #D2CCC8",
"pX c #D6D1CC",
"aX c #DBD4CE",
"sX c #DED7D1",
"dX c #DFD8D1",
"fX c #E5CAC2",
"gX c #E8D7C8",
"hX c #EBDCCD",
"jX c #E2DAD3",
"kX c #E4DAD3",
"lX c #E5DDD9",
"zX c #EEE5C6",
"xX c #EDE4D6",
"cX c #E6E2DA",
"vX c #EAE4DD",
"bX c #F0E6D0",
"nX c #F1E6DE",
"mX c #EDE6E1",
"MX c #EFE8E4",
"NX c #F2E7E1",
"BX c #F1EAE6",
"VX c #F5ECEB",
"CX c #F8EFED",
"ZX c #F7F2ED",
"AX c #FAF2F0",
/* pixels */
"ZXOXM.|.M.M.M.M.M.M.M.M.M.M.M.M.|.|.N.N.N.|.|.M.|.M.M.|.}.}.N.y.q 2 6 e m.m.M.|.|.N.M.M.M.M.M.M.M.M.M.}.M.N.m.|.M.M.M.b.M.m.8XwX",
"8X9.>.9._ ( _ _ ' ' 4.' 4.' 4.4.3.4.` 4.4.3.2.4.` 3.4.4.3.s.@ B :XlXmX>XC 4.4.4.4.4.4.4.4.4.4._ 4.' 4.4.4.4.3.' ' ' 4.4.' ' OX;X",
"n.R  .X.| | | |  .| I | | | | | R U U | X.@...X.X.| X./ = , 1XaXAXVXVXAXdX2 X.X.| | | | | | | | I | | | | | | Y | | | | | | ( ^ ",
"[.$.O.O.| |  . .I | ....| .. ...@.1.%. . .....@.-.a.t.a 1XlXVXVXVXVXVXVXAX5 X.....| | .......... .....| ......} X...| U | *.<./ ",
"[.+.X.O.6.+.....X.@.X.#.@.X.@.X.P :.=.@.@.} } } w a 4 1XVXCXVXVXVXVXVXVXBX3 } { X.X.@.T -.o.X.X.| X.X.| @.X.@.X.| | +.) +...:./ ",
"{.+.| X.0.) I  .X.X.X.X.O.X.@.X.H P X.X.o.-.q.+ Z ,XVXCXVXVXVXVXCXZXBXmXmX3 } [ [ X.X.T 8.;.} X.} X.X.X.X.| @.} @.o.3.}.2.@.-.L ",
"n.R *.@.+.o.|  ...| @.O.7.#.X.X.| P O.+.y.q.&X2XBXCXVXVXVXVXVXCXCXVXvXvXvX3 ..[ Y ..X.1.:.>.,.X.@.X...@.X.X.......@.E -.+.| :./ ",
"b.+.@.@.|  . .| ..| @.E 3.#.| ..| T / w.& D.mXAXCXVXVXVXCXCXCXVXVXVXvXvXcX3 | | X...R 5.~ 1.:.@.{ | ..X.=.} ....@.| | { | | ) K ",
"[.+...| | |  .| | @.@.Y R @.X.O.[ p., Z sXMXVXVXVXVXVXVXVXVXVXVXVXBXnXcXcX3 I ..*...| U O.X.O.} [ P | +.0.R | X. .@.@.| [ I ;.K ",
"[.o...X.| X.I | | @...@.O.@.X.p.t C pXVXVXVXVXVXVXVXAXVXVXVXVXVXVXVXvXcXvX3 #.@.....| | ....@.@.{ | | X.-.X.| ..| | | @.| | ) K ",
"[.+...{ | | X.Y X.@... .o.O.@ < :XpXVXVXVXVXVXVXAXVXVXVXVXVXVXVXVXVXvXcXcX3 ! Y | ..| | ..*.....@.@...@.@.@...@.@.@.| @.| | -.K ",
"b.+...X.| | P P @.O.X./ a , <XsXAXVXVXVXVXVXCXCXVXVXVXVXVXVXVXVXVXVXvXcXcX2 9.R  .X... .......| ..@.@.@.......X.| | | @.| | ) K ",
"[.+...@.@.O.%.,.| _ t.a >XlXVXVXVXVXVXVXVXVXVXVXVXVXVXVXVXVXVXVXVXVXvXcXcX3 <.@...{ X...| | | | X.@.@.X.| | | | X...| @.| | :.K ",
"{.$.{ X.|  .1.5.q.a 4 ,XVXVXVXVXVXVXAXAXVXVXVXVXVXVXVXVXVXVXVXVXVXVXvXcXcX3 @.| | @.@.@.| I | X.{ #.o.Y | | X.....| ..T R ..:.K ",
"[.o.{ [ ..| T J 5 >XVXVXVXVXVXVXVXVXVXVXVXVXVXVXVXVXVXVXVXVXVXVXVXBXvXvXcX3  . .@. .X.X.| | ..P ( ] >.O.....| | [ | | >.<.{ :.K ",
"m.=.[ H | | Y O 2XZXVXVXVXVXVXCXVXVXVXVXVXVXVXVXVXVXVXVXVXVXVXVXVXBXvXvXcX3 O. .| @.U +.O.@...| W ] :.O.| | | | | ..| ,.,...) K ",
"[.=.@.| | | @.X 1XvXMXBXVXZXZXZXVXVXVXVXVXVXBXBXVXVXVXVXVXVXVXVXZXBXvXcXcX3 @.| ..| Y 9.=...X.@...{ @.@.@.@.| | *.*.| I X...:.K ",
"[.o...| | | | O 1XvXvXvXVXVXVXVXVXVXVXVXVXBXVXBXVXVXVXVXVXVXVXVXVXBXvXcXcX3 X.| | @.Y E O.X.| ..*...X.@.{ @.@...@.@.| | | X.) K ",
"[.=.-.^ R  .| O 1XmXcXvXBXVXVXVXVXVXVXBXBXVXBXBXVXVXVXVXVXVXVXVXVXMXxXvXcX3 X.| @.X.O.X.@.X.| | | U X.@.@...X.X.^ ( R | X.@.) K ",
"m.~ 8..X;.|  .O 1XvXvXvXBXVXVXVXVXVXVXBXBXMXVXVXVXVXVXVXVXVXVXVXVXZXcXcXcX3 @.| |  .@.@.|  .....@.X.X.@.@...| O.9.{.( | ..{ ) K ",
"[.~ +.,.O.X...O 1XvXvXcXBXVXVXVXVXVXBXBXBXBXVXVXVXVXVXVXVXVXVXVXVXVXvXcXcX3  ...| | | | | | | { #.=.1.X... .I R +.,.O.X.....) K ",
"[.+.I U @.X.| O 1XmXvXvXVXZXVXVXVXBXmXBXBXVXVXVXVXVXVXVXVXVXVXVXVXBXvXcXcX3 ..&.@.@.| @.X.| H [ o.:.9.+... .| @.Y P | X.....) K ",
"{.$.| X.@.| | X 1XvXvXvXMXVXVXVXBXBXBXBXVXVXVXVXVXVXVXVXVXVXVXVXVXVXvXvXvX3 @.@.@.@.| @.X.| X.Y ,.8.) 8.@.| | @.X.| @.X.....) K ",
"{.+.| X.@.X.I X 1XvXcXvXVXVXVXVXVXBXVXVXVXVXVXVXVXVXVXVXVXVXVXVXVXBXvXvXcX3 Y R ( O.| | | | X.X.$.,.E ;.O.| X...@...| X.....) K ",
"[.O. .@.| | | X 1XvXvXvXMXVXVXVXVXVXVXVXVXVXVXVXVXVXVXVXVXVXVXVXVXVXvXvXvX3  .W 9.+.| | ..X.@.X.X.O.X.| | | X.|  ...| | | ..) K ",
"[.+. .@.{ { ..X 1XvXvXvXVXVXVXVXVXVXVXVXVXVXVXVXVXVXVXVXVXVXVXVXZXBXvXvXvX3 X.X.o.X...| | @.{ @. .@... .| X.X.| | ..I | ....) K ",
"M.R | | { X.@.X 1XvXvXvXMXVXVXVXVXVXVXVXVXVXVXVXVXVXVXVXVXVXVXVXVXVXvXvXvX4 @.@.} | | | ....X.X.@.| ..[ | | @. ...| | | { | ( K ",
"b.R ..@...@.X.X 1XvXcXvXVXVXVXVXVXVXVXVXVXVXVXVXVXVXVXVXVXVXVXVXVXBXnXvXvX3 X.X.| | | | @.| | X.| ..| | | | | | @.R O.| [ | ;.K ",
"b.+...| ......X 1XvXvXvXBXZXVXVXVXVXVXVXVXVXVXVXVXVXVXVXVXVXVXVXVXVXmXlX-Xu.[ | @.| | | ..| | | | X.| | | | | I X.>.+.X.| { ( K ",
"[.E | | | ....X 1XnXvXvXBXVXVXVXVXVXVXVXVXVXVXVXVXVXVXVXVXVXVXVXVXBX,X  o o.| | ..| [ | X.@.X.| @.R X.| @.| X.| O.>.,.X.X...;.K ",
"b.+.| X.X.X.| O 2XvXvXvXVXVXVXZXVXVXVXVXVXVXVXVXVXVXVXVXVXVXVXVXBXsX4   : a | ..@...@.| | X.X.| | X.X.| @.| ..@.@.o.@.X.X...:.K ",
"|.E | I ;.( | + 2XvXvXvXMXVXVXVXVXVXVXVXVXVXVXVXVXVXVXVXVXVXBXlXvXlXsXaXaX*Xe w X.@.| X.X.,.-.X...| X.| | @...&.{ } X.| ..X.;.K ",
"[.E | Y 5._ X.+ 2XmXvXvXVXVXVXVXVXVXVXVXVXVXVXVXVXVXVXBXBXvXvXvXvXlXjXsXsXaX-XZ + r.#.o.O.<.-.X...| ..| X.| .. ...| | | X...;.K ",
"[.+...| 8._ X.O 1XvXvXcXVXVXVXVXVXVXVXVXVXVXVXVXVXVXBXMXvXvXvXvXmXlXkXjXsXjXjXaX>XC % t.@.X.X.| | | ..U Y | &...X.| | X.....:.L ",
"[.o...X.=.=...X 1XvXvXvXBXVXVXVXVXVXVXVXVXVXVXVXVXMXmXcXvXvXvXmXBXVXBXlXjXjXjXjXjXiX2XB q.! o.{ | | | $.>.o.@.| | X...X.....:.K ",
"b.+...| [ } ..X 1XmXvXvXVXVXVXVXVXVXVXVXVXVXBXMXvXvXcXvXvXmXBXVXVXVXVXVXmXlXjXaXjXjXjXiX5 < w a...| | $.9.! R | | ..| @.....) K ",
"[.+...@..... .X 1XvXvXvXVXVXVXVXVXVXVXVXBXMXmXvXvXvXcXmXBXVXVXVXVXVXVXVXVXBXmXkXjXaXjXaXkX6X5 ; q ! @.U ~ 0.T @.@.| | | @...) K ",
"[.+...X.| |  .X 1XvXvXvXBXVXVXVXVXVXVXBXmXmXvXvXvXmXmXBXNXVXNXnXnXnXnXnXnXnXNXNXvXjXaXjXjXjXcX1X&X= @.T O.) T X.| @.| | ..| ) K ",
"[.+.| | | | X.X 1XMXvXcXBXVXVXVXVXBXmXvXvXcXvXmXxXhXgX4X'._._.)._._.`.`.`.'.'.4XgXgXkXdXsXsXdXdXdX>X& - p.U } [ | | | X.I | ) L ",
"[.+.{ [ | X.X.X 1XvXvXvXBXVXVXBXBXmXvXvXcXmXgXyX3X).W.W.B.S z u z n U.J.L.H.L.K.K.).4XtXgXjXdXdXsXsXiX-X> r O.| [ | | 1.<.| :.L ",
"{.+.[ { | ..| X 1XmXvXvXBXVXBXmXvXvXvXvXkXqX'.K.W.E.E.+Xu.Y.R.u.R./.x 7 i A Q.m 8 x G.P.3XqXgXdXsXaXkXsXsX&Xr X.P | X.-.:.@.) K ",
"[.-.X.| | ..@.X 1XvXvXvXBXNXvXcXcXvXvXhX0X).V L.(.U.h.T.Y.~.T.s Y.~.y 7 i N G.b 9 0 I.E.H.).qXkXsXsXsXsXsXsX&X+ r | X.Y R @.:.K ",
"{.+.@.X.| ..X.X 2XvXvXvXmXmXcXvXvXvXhX4X'.).J./.G.y y g U.m h l /.^.s t d H.c.j 9 h c.#XQ.F '.eXlXkXsXjXsXsXaX,XS.$ t.@... .) K ",
"[.~ X.T ....U # -XcXvXlXvXvXvXvXmXxX3X_.'.).J.(.T.f f u T.n h l Q.^.i.d c h.Y.j.x.U.Y.T.D g N K.eXvXlXkXsXsXjXkXpXwX, } ....( K ",
"[.~ Y X.| ..X.X.$ iXMXmXvXvXmXBXVXeX_.J.(.G k G E.E.#X@Xu.i.k.i g z.v.h.u z J.i.Q.H.B B.K.G.G f P.tXNXNXvXjXsXlXkXvX> T ..| ( L ",
"}.E <.$...| X.| $ wXlXmXMXBXVXVXhX3XS R.T.G I.I.J.H.G.Q.H.C.T.j.k.T.k.n k.~.z.c K.D L.^.+XR.m 8 z '.nXVXBXNXvXmXvXxX> ! @.I ( / ",
"{.+.7.%.| | | X.$ 6XjXjXlXBXVXCXeXP.J.E.L.G Q.(.j.i y x.m m T.i.Y.#Xl.v Q.E.u y M M K.(.E.l h 0 8 _.hXCXCXVXmXvXvXcX> J X.| ) L ",
"[.E R X.......X.$ 6XjXsXsXjXlXVXrXP.^.~.A f B u.!.Y.f.!.v v ~.E./.#X@X/.v.u.u.i.y c W.Y.J.j j U.n _.yXVXmXvXvXvXvXvX> ^ @.| ) K ",
"[.T Y @.| | ..@.# -XsXkXsXsXsXjXlX5X].E.!.T.R.v.@XT.J.!.l.H.@X@X#X/.@X@Xv.x.c.~.R.E.#X^.v.E././.%XyXnXvXvXcXvXvXiX*X, ! ^ ..) K ",
"[.+.| X.| @.| | | J 4 >XsXsXsXkXsXkXhX0X(.x.h.R.l.g i A B.C.E.v.v.@X#X#X~.h 0 Q.A.W.J.H.+XT.].rXbXNXvXvXvXvXvXuX2 q y.| | ..) K ",
"[.+.P P | | ..| @.| ^ a > 6XjXsXaXjXjXgXtX5Xh I.J.p y z ~./.x.l h.~.j.D G.c.U.(.A M i M (.0XfXmXvXvXvXnXcXpX6 , t.` ~ X...| ) K ",
"[.o.[ [ | ..X.......o.<.! < >XuXjXjXsXjXjXfXfXF.C.T.U.!.i.T.n l /.~.g p u z.$X^.c y i ).yXbXmXmXvXvXjXuXD.& w.+.d.+.X.X.....) K ",
"[.#...X.| | ..X.| | X.H T s.+ , :XuXkXkXsXdXjXaXyX].v m Q.(.W.i.v.#X~.x.G.f.V.R.R.%XyXhXvXvXvXlXvXcX=X% q.a.@. .X.Y @.@.@.| :.K ",
"[.+...| ..X.| ..| Y @.X.| X.} -.@ B uXkXjXsXsXjXlXgX7XG D A p p !.#Xc.h 0 x.U.'.eXnXmXvXvXlXvXvX>XS.r s.~ X.| |  .@.#.@.X.| :.K ",
"[.+.@.X.@.$.$...| | | | X.X.X.@.*.L 1 Z iXaXsXsXkXaXlXyX7XM 7 y J./.c.j b (.5XgXvXvXvXvXmXvX<X4 = r.Q @.X.X.....O.=.) +.X.| ;.K ",
"[.+...@.X.8.7...@.@.[ [ | X.X.@.} } p.q.& D.uXsXaXkXkXdXkX7X5XB.s E.$XT.9XbXNXvXvXvXvXvXpX,Xa e./ X.| | | ..@.*.#.9.n.) | | :.K ",
"[.O...| O.E E @.@.@.| | | X...X.R ' %.O./ q.% =XdXkXdXdXdXkXhXyX3X%X9XzXxXvXcXvXxXMXiX>X* # Q ^ X.@.@.@.| ..| | Y +.=.O.@.@.;.K ",
"[.o...| X.X.Y @.| | ..| @.....| R ( %.@...@.s.- S.>XdXdXdXdXdXkXxXhXxXnXvXvXvXvXpX*X2 @ y.+.+.X.....X.| | | | | | | | X.X.X.:.K ",
"[.+.......X.@...| | | ..| ..@...| O.O.@.| @.| X.H = 3 <XdXdXaXjXdXkXcXcXvXcXvXpXB # g.X.+.O.o...| | | | ..| ..@.| @.I | } | ;.K ",
"[.+. .| X.....| | I ..X.*.....*...@. .@.| .. .R @.X.J ; 1 6XjXjXdXkXcXvXcXpXS., t./ | | @.O.@. .I | @.| ..| X.X.....@...| | ;./ ",
"[.=...X.E X...+.+.| O.R .. .I X.O.O.+.#.O.O.#.@.X.O.+.^ p.< 6XjXcXcXvXcX&X% r.g.d.T I | | R R { Y o.o.| ..| | E I | | o.#.T :./ ",
"b.~ T 5..X:.} <.3.X.+.] @.{ X.T 5.( 3.<.<.3.} { X.E 9.^ @.n.< -X*X-X>XD.r / E E ] O.{ X.T 4.) } -.{.5.X.Y | R 5.W P ..) n._ ^ L ",
"b.4._ b.|.d.' d.b.` ' n.' _ 2.' {.3.[.d.[.b.` <.` ` [.` 4.n.d.. . . O q f.' ' ` [.4.3.2.2.Z.b.2.Z.M.b.2.` 3.4.b.` _ <.[.}.n.d.Q ",
" X.XoXN.|.|. X XM.M.|.|.|.M.}.}.|. X XM. X[. XM.m.}.XX X X|. XM.M.|.{. X|.M.|.oX X|.{.M.}.XX.X|. X}.M. XM.oXoXoXoXM.{.oXoX.XoXQ "
};
