/* XPM */
static char *_4201d8d54dc4334bdd63300619397f98K5p5SDt2irk7P3J[] = {
/* columns rows colors chars-per-pixel */
"64 64 241 2 ",
"   c #040404",
".  c #070906",
"X  c #090F07",
"o  c #0B0C0B",
"O  c #021402",
"+  c #041904",
"@  c #0C130C",
"#  c #0D1C0C",
"$  c #10120F",
"%  c #111E0F",
"&  c #131413",
"*  c #141A14",
"=  c #181A17",
"-  c #1B1C1B",
";  c #032304",
":  c #0E220C",
">  c #072C0A",
",  c #12230E",
"<  c #102D0F",
"1  c #05360B",
"2  c #0F2911",
"3  c #142313",
"4  c #152C13",
"5  c #182B16",
"6  c #1D231C",
"7  c #1B2C1A",
"8  c #0C3713",
"9  c #143314",
"0  c #183516",
"q  c #1D361B",
"w  c #1E3A1C",
"e  c #21291F",
"r  c #21341E",
"t  c #213E1D",
"y  c #242424",
"u  c #242B24",
"i  c #282B27",
"p  c #2B2C2B",
"a  c #243222",
"s  c #253A23",
"d  c #2A3B25",
"f  c #273428",
"g  c #2D322C",
"h  c #2D3B2C",
"j  c #30322F",
"k  c #303C2E",
"l  c #333433",
"z  c #333B33",
"x  c #383937",
"c  c #3B3B3B",
"v  c #07470D",
"b  c #07530F",
"n  c #084717",
"m  c #18481D",
"M  c #085614",
"N  c #095C14",
"B  c #13591C",
"V  c #23441F",
"C  c #274B1C",
"Z  c #29511E",
"A  c #32511E",
"S  c #0A6916",
"D  c #0E4F23",
"F  c #1E4621",
"G  c #135527",
"H  c #254321",
"J  c #2A4725",
"K  c #254B23",
"L  c #2D422C",
"P  c #2C4A2B",
"I  c #324B25",
"U  c #31442C",
"Y  c #324C2C",
"T  c #265223",
"R  c #2A5225",
"E  c #265629",
"W  c #2D542A",
"Q  c #2C5E2C",
"!  c #36562A",
"~  c #344A32",
"^  c #394836",
"/  c #3C433C",
"(  c #285430",
")  c #385535",
"_  c #365D34",
"`  c #0F722C",
"'  c #0E7C2B",
"]  c #186737",
"[  c #2C632B",
"{  c #3A6627",
"}  c #33632C",
"|  c #346B2D",
" . c #39742D",
".. c #3B6435",
"X. c #356C31",
"o. c #396C33",
"O. c #396738",
"+. c #2C7B3B",
"@. c #367432",
"#. c #3B7433",
"$. c #3C7C34",
"%. c #397A39",
"&. c #415D27",
"*. c #424F3F",
"=. c #41583C",
"-. c #456728",
";. c #47762C",
":. c #43683B",
">. c #447A37",
",. c #597933",
"<. c #3F4441",
"1. c #1D7643",
"2. c #3C7844",
"3. c #434443",
"4. c #464A46",
"5. c #474A48",
"6. c #4B4B4B",
"7. c #455442",
"8. c #475B44",
"9. c #4B524B",
"0. c #51594E",
"q. c #4F5150",
"w. c #535453",
"e. c #565955",
"r. c #565B59",
"t. c #5B5B5B",
"y. c #51744F",
"u. c #596759",
"i. c #5C6B60",
"p. c #636463",
"a. c #676B67",
"s. c #6B6B6B",
"d. c #677567",
"f. c #6F7473",
"g. c #727372",
"h. c #747D76",
"j. c #7B7D7B",
"k. c #0E8626",
"l. c #138A3D",
"z. c #3D8336",
"x. c #3D8439",
"c. c #57862A",
"v. c #52912D",
"b. c #438B35",
"n. c #42853A",
"m. c #428B3A",
"M. c #478938",
"N. c #548937",
"B. c #44933C",
"V. c #479839",
"C. c #4B9B3E",
"Z. c #549837",
"A. c #759E2E",
"S. c #678E30",
"D. c #659B3B",
"F. c #759F31",
"G. c #4BA73D",
"H. c #4DA43E",
"J. c #53A53D",
"K. c #5AA639",
"L. c #55AA3D",
"P. c #5CAC3D",
"I. c #76A32A",
"U. c #67A537",
"Y. c #62AB3C",
"T. c #73A434",
"R. c #66B33E",
"E. c #6AB43D",
"W. c #73B63C",
"Q. c #74BA3D",
"!. c #78B839",
"~. c #74C638",
"^. c #1B904F",
"/. c #3F8D47",
"(. c #258A53",
"). c #1CAE5A",
"_. c #399067",
"`. c #39AE7F",
"'. c #428A40",
"]. c #469742",
"[. c #4A9D42",
"{. c #529C43",
"}. c #4DA544",
"|. c #4CA843",
" X c #4DA64A",
".X c #49A84A",
"XX c #51A543",
"oX c #56A646",
"OX c #53A942",
"+X c #5BAC42",
"@X c #51A44A",
"#X c #5EB247",
"$X c #4BA453",
"%X c #50A550",
"&X c #64AC43",
"*X c #65B343",
"=X c #6BB442",
"-X c #6AB84C",
";X c #74B641",
":X c #74B941",
">X c #78B947",
",X c #6DBC52",
"<X c #7ABE50",
"1X c #4A9869",
"2X c #7A847B",
"3X c #74977E",
"4X c #78C243",
"5X c #87BB3A",
"6X c #8AC73A",
"7X c #8FC63E",
"8X c #94C838",
"9X c #96CB3C",
"0X c #99CA3C",
"qX c #95D036",
"wX c #87BB48",
"eX c #8DA372",
"rX c #8DC643",
"tX c #8AC746",
"yX c #90C642",
"uX c #94CC43",
"iX c #99CA40",
"pX c #94CC4B",
"aX c #8FCC50",
"sX c #95CA52",
"dX c #9ACB60",
"fX c #4BB388",
"gX c #5CCDA9",
"hX c #69D1B7",
"jX c #75DAC4",
"kX c #838483",
"lX c #858984",
"zX c #8B8B8A",
"xX c #8C928A",
"cX c #919191",
"vX c #9B9C9B",
"bX c #A3A5A3",
"nX c #ACADAC",
"mX c #BABBB9",
"MX c #C0DB91",
"NX c #CECFCD",
"BX c #F1F7E8",
/* pixels */
"BXdX9XuXqXqXqX9XuX9X0X0X0XqX0XuXuX7X7X8X0X0XiX9X9X9X9X9X9XuX9X9X9X9X9X9X9X9X9X9X0X9X9X9XqX8X6X7X0X0X0X0X0X0X9X9X0X0X0X9XqX0XMXNX",
"eXD.R.;X!.Q.Q.Q.Q.Q.Q.Q.Q.Q.Q.:X=Xc.{ ;.U.;X:X:X:X:X:X:X:X:X:X:X:X:X:X:X:X:X:X:X:X:X:XW.D.;.{ c.E.Q.:XQ.:X:X:XQ.Q.Q.Q.:XQ.W.dXeX",
"c.Z K R  .B.}.|.|.|.|.|.|.|.|.|.J.v.{ q w } m.}.OXOXOX|.H.H.H.|.|.OXOXOX|.|.|.|.|.H.b.} t q | V.G.H.|.|.|.|.|.H.G.|.H.B.@.T A A ",
"!.M.Q 3 3 J Q @.b.m.}.}. X}. X XJ.-XoXQ 5 3 H #.[. X X X}.OX|. X X X X X X X X.X[.@.H 3 7 } ].}.}.}. X X X X[.M.n.#.! J 3 3 { ,.",
"rX+XV.o.H h e.d.u.8...} n.[.XXXXJ.=X*XM.V @ & 7 R >.[.XXJ.&XP.OXXXXXXXXXXXXX[.$.R 7 & @ J M.OXOXOXOXXX[.$.} ..8.u.d.0.k H X.K.F.",
"tX+XH.C.&X;.~ 6.a.2XlXd.8.:.#.n.V.J.J.}.| , . o * w @.[.J.<X&X|.}.}.}.}.}.[.@.q * o . , N.*XXX}.C.M.#.O.8.d.lX2Xa.6.^ S.D.[.=XF.",
"6XL.%X@X+XZ.@.J u l 4.u.g.xX2Xu._ $.C.|.B.V X   o & q @.C.&X+X|.}.|.}.}.H. .q & o . X ! U.-X+X#...u.2XxXg.t.4.l u P ;.Y.+X|.R.I.",
"7X+X X}.}.}.C.z.V & & 6 g 6.s.kX2Xu.:.n.C.@.4     o * w $.}.}.}.}.}.}.}.#.q * o .   4 N.Z.N.>.u.j.kXs.6.p - & * K x.[.}.|.|.E.F.",
"7X+X X}.}.}.|.|.n.V @ o @ & y 3.a.lXh.8.#.m.T X     o * R B.|.|.}.}.}.m.J & o .   X Z b.o.8.h.lXa.3.y & o o @ K m.}.}.[.H.|.E.F.",
"7X+X X}.}.|.H.|.}.$.4 o & - - y x t.zXlXi.>.Z @       $ r | C.|.}.}.C.} u & .     X K >.d.zXzXt.c y - - & o 4 z.}.}.}.}.|.|.E.F.",
"7X+X X}.}.|.OX|.}.[.T * y c 5.w.p.j.vXmXmX2Xh .       o y Y >.C.}.}.$.~ y o       . h 2XmXmXvXj.p.w.5.c y * R [.}.}.}.@X}.|.E.F.",
"7X+X}.XX}.|.H.H.XX].W x t.g.cXvXbXvXzXkXvXbXg.y o .     - g ! b.}.m.W g - .   . o i g.bXvXkXzXvXbXvXzXg.r.x W B.}.}.}.@X}.|.E.F.",
"rX+X X}.}.OX#X#XC.[ L <.a.lXkXa.w.3.l l w.zXnXg.- o o . o y k ! o.W h y o o o o 6 g.nXzX6.l l 3.w.a.kXkXa./ L } [.}.}.XX}.|.*XF.",
"tXoX X}.}.|.-X,X[.x.%...=.7.g = o & - y 3.cXNXnXl . o & = 6 7 5 4 3 6 6 = & o . l nXNXzXc e - & o = g *.) O.#.$.[.}.}.L.J.}.*XF.",
"rX+X[.H.}.|.K.L.}..X}.C.M.>.t @ . & - c g.nXNXkXy     & 7 t Q E 4 : # * 6 & .   y kXNXnXs.l - & . @ C #.m.].}.H.C.|.|.-X-X}.*XA.",
"8XY.C.H.|.|.J.J.|. X}.XXOXC.z.t = p c r.a.a.p.e.p o   o 3 T 1X1XK , # # # o . o p e.p.a.a.e.c p = C Z.H.XX}.|.G.}.}.|.*X-X}.*XF.",
"7X+X@X}.|.}.OXH.|.}.}.}.|.|.[.W g 4.4.c 3.4.l / 5.y . O # 0 _ O.m 3 @ : : X . y 5.3.x 3.3.c 4.4.g W C.OX@X}.|.|.@X%X}.J.OX}.E.F.",
"rX+X X|.|.|.|.|.}.}.}.}.}.}.C.X._ ) 6 = x a.e.g / l - 6 7 # # 3 7 3 # m K 6 - l / k e.a.l & 6 ~ _ o.C.XX@X}.}. X@XoX}.|.|.}.E.F.",
"7XY.&XR.P.|.B.x.m.C.}.}. X}.}.B.$.W 7 & l a.j.3.y y p u.d.h @ o % : 9 y.3Xr.p y y 3.j.a.p & 7 W $.V.}.@X@X}.|.C.v.v.C.}.}.}.E.F.",
"8XY.<XaXY.z.T C [ | x.B.[. X}.B...*./ p p 5.s.a.l & & 5.h.<.& 3 < 3 7 u.2X<.& & l a.s.4.p p / 7.O.B.OXXX[.B.x.| { A R z.}.}.E.F.",
"yXP.#X*Xb.T 9 Q /.%.R R | x.B.X.k e.s.6.3.4.6.u.w.y o p h.e.i f q g p u.f.i o y w.u.6.4.3.6.s.e.k -.K.b.} T T %./.[ 9 Z x.}.E.F.",
"yX+XH.V.| F 9 Q $X+.P u.u.P V s g e.j.a.p.3.y l c i - y e.4.3.q.3.q.3.6.w.y - p c l y 4.p.s.j.r.g d ! Y u.u.P +.$XQ 9 F X.[.E.F.",
"tX+X}.B.%.E # < E ( i.nXkXj u g c p.j.s.e.y y 5.5.y & y c ~ 7.6.l 6.7.~ x - & y 6.4.y p e.g.j.p.c g i x kXbXi.( E < , E %.B.E.F.",
"tX+X}.n./.K @ + z u.2XvXa.l 6.w.3.6.6.c y & 3.j.r.- o y x ) ) l y j ) ~ c - o - r.j.3.& y c 6.6.3.w.6.c s.vX2Xu.k + # E /.x.R.F.",
"rXL.n._ 2.w + f a.kXa.r.l 4.j.p.y - & o . o c r.p o   - l h 6 g / g 6 k l &   o p r.c o . o & - y p.j.4.c r.a.kXa.f + F 2._ N.A.",
"6XL.Q h ( 4 # 4.s.a.3.y y w.s.c o . . . . o - - o     o l / r h / h r / l o     o - - o . . . . o c a.6.y y 3.a.s.4.# 9 ( h -.A.",
"6XJ.W 6 0 : u 3.3.l l p l 6.x - o o y r 7 y l y o o - & p 4.) s i s ) 4.y = - o o y l 6 7 7 - o o - c 6.l p l l 3.3.u 2 9 6 ! A.",
"7XP.@.7 @ 3 l p - x w.c c 6.l y & & l L a x w./ $ & l f 7 ^ ^ z c g z z 7 f l & $ / w.l r f p @ & y l 6.c 3.w.c - p g 3 @ 7 ;.F.",
"7XP.].R # = y - y w.p.l 4.t.4.l & o p u & y c L 3 & y u 5 f c e.p.4.l u 5 a y & 3 L c y $ 6 y o & l 5.t.3.c p.w.y - 6 * % R K.F.",
"7XP.}.x.0 o o - y l c y 4.a.e.<.& o 3.3.y - & 3 3 @ & 6 3 x p.j.j.r.3.y * 6 & @ 3 3 & - y c l . & <.e.a.3.y c l y - o @ q x.R.F.",
"7XP.}.b.0 . & - & o 6 p c a.e.e.y & 6.r.c p l f w 3 - p 6 j w.a.s.6.l & - p - 3 w f l p c 6.3.o y e.r.p.c p 6 o & - $ . q m.R.F.",
"7XP.|.| ,   & @ . o p l p w.e.e.p y c x y l t.6.s , & y 6 y g f f 6 o o - y & , s 6.t.l y p l y p e.e.q.p l p o . $ & . 3 | R.F.",
"7XP.|.R @   o .   - p y & l e.6.y l l - o p w.c 6 @ o & l s.s.h # 6 - o @ & o @ 6 c w.y o - p p y 6.w.l & y p -   . o . @ R R.F.",
"7X+X[.K $ . .   o y - o o - c 4.l l l y & - l p - - - y r.nXbX7.4 h p o o = - - - p l & o y p p l 4.c - o & - y o   . . * K Y.F.",
"7X+X[.R * .     & - o . o - - y l c c p - & i y y 3.4.l 9.j.a.I w U g & o y c p - y y $ & y l c l y - - o . o - $     . * R Y.F.",
"7X+X}.Q * .     o o o . - l - o & p l p p - y y y c 4.p r U I -.,.&.q # X u c p - y y - y p l p & o - l - . o o o     . 3 Q E.A.",
"yX+X}.| r & .   o o . o p l - o . & 3.w.4.y p p - & - & # 0 A ,.D.-.C 4 : % & o - p i y c 5.c & o o - l p o . o o   . & u | E.A.",
"yX+X}.$.d y & o . .   & i - o o o p g.j.e.y - y o . o o @ 6 s I ! ! U a 7 @ . . $ y - 6 6.a.t.y o o o - y o   . . o & y d $.E.F.",
"yX+X}.B.R 6 = o       & - o o o y 3.a.s.r.y o o o . o o & - - , 2 u p y - & o . o o o y 6.t.e.c y o o o - &       o - 6 R B.E.F.",
"yX+X}.}.$.0 @ o o     & o . o = l p p l 4.y .   . . . o & - & @ @ = - & & y y & .   . y c p y p l - . . o &     o o @ t Z.|.*XF.",
"yX+X[.|.}.Q @ - & .   o o . o p p = & - y & . . o o .   o & y p g p - & p 6.6.- . . . & - & & & p p o . o o   . & - # { &XOXE.T.",
"yX+X}.|.}.@.3 - = o . o o   - p - & & & y & & & & & & . o - p <.3.l p y c t.6.- o & o & - $ @ & - p - . o o . @ = - 5  .J.}.E.T.",
"rX+XXXOX}.x.s l d t 4 @ . . y y & & & p r.c 6 p 6 - y & o - y i y - - - y l p - - p - l 6.6 & & & y - . . @ 4 t d l H n..X.XE.F.",
"rXP.J.OX}.B.) e.:.$.$.q X o - - & & y 6.j.r.i l l y p l - o & - y - & o - p y - p l y 6.a.c y = & - - o X t $.$.:.e._ B..X|.E.F.",
"yXY.J.J.}.[...9.=.m.[.| # o - & & y l c 4.4.p y x p p 4.c - o & 6 & o - l c i p l y y c c c l y & & - o , @.[.m.=.9.o.[.}.|.E.F.",
"yXY.-X+X}.}.n._ ^ %.[.@.3 o & & - l p - - y y - y l l c l = # 8 m 8 # = l c l l y & - - & - p l - & & o 4 $.[.%.^ _ m.OX|.G.E.F.",
"tXP.,X#X}.}.}.$.~ W m.Q @ . & & y g - & & - & o o p l p 6 # n (._.+.8 # 6 p l y o o & & & & - g y & & . # } n.W ~ ;.}.}.}.}.E.F.",
"rXP.J.J.}.}.}.[.X.P @.H @ . & & y y & & & o .   & 4.c * > 1 G fXjXfXG 1 > * l c &     o & & & y y & & . @ K #.Y ,.oX|.OX}.}.E.F.",
"rXP.H.OX}.}.}.}.B.$.| q @ $ & - y - & & o   o & & 3.c 9 1.(.] _.gX_.] (.1.9 l l & o o   o & & - y = & o @ w o.N.T.>X+XOX}.}.E.F.",
"rXP.|.OX|.}.}.}.}.[.z.t = - o & - & & o   . y l - o & G fXhX_.] (.] _.hXfXD @ o & y - .   o & & - & & - = t n.;XE.!.*X|. X}.E.F.",
"rX+X}.H.|.}.}.}.}.}.{.I i - o & & & & .   . y c y   O D `.hX`.] G ] `.hX1Xn O   - c - .   o & & & & o y i K B.Y.tX=XOX|. X}.E.F.",
"rX+X[.|.|.}.}.}.}.}.Z.! g - o o & & o       - 6.l @ O ; G ^.).' n ' ).^.G ; O @ l 6.-       o & & o o - f W ].XX=X+X}.XX}.}.E.F.",
"rX+X X|.|.}.}.}.}.}.J.{ 6 & & = = & o       & 6.4.3 + O ; b k.' M ' k.b ; O + 3 4.6.&       o & & = & & 7 | }..X.XJ. X X}.}.E.F.",
"7X+X X}. XXX|. X|.|.}.$.s l g s r * o       & 5.9.w ; O O > N S N S N ; O O ; w 9.5.=       o = r J g l s $.|.|.}.OX@X}.}.}.*XA.",
"7X+X X}.XX+X+X X}.}.|.m.Y / u R } H 5 4 4 4 7 5.9.m 1 + O + 1 M M N v + O O 1 F 4.5.r 0 4 4 4 H ..! f / W B.}.}.J.R.W.P.}.}.*XA.",
"7X+X X}.XX,X-X@XXXXX}.C.| 7 = s o.M.n.n.x.z.! 4./ B b ; O + 1 M b M 1 + O ; b B / 4.:.M.n.n.x.n.o.s = 7 X.}. X%XoX4X6XE.}.}.*XA.",
"7X+X X}.OXP.P.@XXX}.}.}.B.K g g I Z.+X X}.}.#.^ z B S v 1 > v M v b v > 1 v S B z *.;.J.@XXX}.x.P g g R B.}.}.|.G.+X*X+X}.}.*XA.",
"7X+X X}.XXJ.J.@X}.}.}.}.}.x.P g z ;.oX X}.}.B.O.k 0 S k.' S N b 1 v N S ' k.S 0 z O.V.J.@XXX]...z g Y n.}.}.}.|.|.|.|.}.}.}.*XA.",
"7X+X X}.}.XX|. X}.|.}.}.}.}.| U 6.7.>.[.}.}.}.n.) 6 8 ] ^.l.` m q m ` l.^.] 8 6 ) '.|.|. X[.>.7.6.U  .}.}.}.}.@X}.|.|.|.}.}.*XA.",
"rX+X.X|.|.|..X.X|.G. X}. X|.].O.~ / ) #.B.}.|.H.@.7 & 7 F G E | x.o.T G F 6 & 7 @.}.|.}.'.#.) / ~ | C.}.}.}.}.@X}. X X}. X}.*XT.",
"rX+X.XOXP.J. XL.+X|.OXL.}.|.G.C. .Y h d ! $.m.].n.R 5 V } #.m.[.|.J.b. .[ w 5 T M.V.b.#.R s h Y  .Z.oX|. X|.|.P.G.|.}.+X+XL.E.I.",
"7XY.J.>XaX=XoX;X>X{.+X~.oX X|.J.:Xv.-.d a d U _ } { ! ;.{.4X*X@XoX-X,XJ.[.| C { ;._ P s r J { >.&XtX>XoXJ.}.L.4XP.G. XQ.6X!.W.F.",
"6X:X!.7XuX6X!.5X6X!.Q.6XQ.!.;XQ.tXwX5XS.,.-.! ! ! -.S.T.Q.6X!.;X!.tXtXQ.W.D.c.-.&.! ! &.;.D.!.!.wX9X6X;X!.>X:XrX;X!.-XtXiX6X5XA.",
"pXaXaX9X0XuXuXuX9X9XuX9XuX9XuXuX9XpXuX9X9XyX6X5X5X5XsXpXpXuXpX0X0XuXpXpXuX9X7XwXwX5X6X8X0XsXsXuXpXuX9XpX9XsXsXpXsXqXuXpXsXaXsXI."
};
