/* XPM */
static char *result[] = {
/* columns rows colors chars-per-pixel */
"64 64 223 2 ",
"   c #0E0E0C",
".  c #100F0D",
"X  c #0E100E",
"o  c #11110E",
"O  c #151412",
"+  c #191715",
"@  c #161814",
"#  c #1A1816",
"$  c #1D1C1A",
"%  c #231E17",
"&  c #211E1B",
"*  c #24211E",
"=  c #2A251E",
"-  c #332B1E",
";  c #1F1F20",
":  c #201F20",
">  c #242321",
",  c #292622",
"<  c #2C2A26",
"1  c #26272A",
"2  c #2E2C29",
"3  c #342D27",
"4  c #312F2A",
"5  c #34322C",
"6  c #39332A",
"7  c #2D2C34",
"8  c #2B2B39",
"9  c #322D38",
"0  c #2D3039",
"q  c #353332",
"w  c #3A3533",
"e  c #3C3A34",
"r  c #34333D",
"t  c #3D343B",
"y  c #3D3C3A",
"u  c #46372A",
"i  c #4A3528",
"p  c #453637",
"a  c #413D35",
"s  c #4D3B33",
"d  c #433B3C",
"f  c #4A3D3C",
"g  c #523B33",
"h  c #5A3F33",
"j  c #513D3A",
"k  c #53422A",
"l  c #434036",
"z  c #4B4234",
"x  c #44433C",
"c  c #4B443D",
"v  c #4C493E",
"b  c #544335",
"n  c #5A4434",
"m  c #584A36",
"M  c #54443C",
"N  c #59463A",
"B  c #554A3D",
"V  c #5B4A3D",
"C  c #5B523D",
"Z  c #634533",
"A  c #664934",
"S  c #644B3A",
"D  c #6D5236",
"F  c #63533D",
"G  c #6C543D",
"H  c #71563D",
"J  c #69643B",
"K  c #282D44",
"L  c #2E3349",
"P  c #343443",
"I  c #3A3744",
"U  c #3C3942",
"Y  c #32374D",
"T  c #35384D",
"R  c #3B3C4C",
"E  c #2E3554",
"W  c #2F3A51",
"Q  c #323A53",
"!  c #393D53",
"~  c #363E5A",
"^  c #433C42",
"/  c #4F3E41",
"(  c #3C4055",
")  c #35415E",
"_  c #3A415E",
"`  c #364364",
"'  c #3A4464",
"]  c #3A4866",
"[  c #3D4B6B",
"{  c #444342",
"}  c #4B4542",
"|  c #4C4B42",
" . c #48474C",
".. c #534540",
"X. c #524D42",
"o. c #554B45",
"O. c #5A4A43",
"+. c #555246",
"@. c #5C5344",
"#. c #55544B",
"$. c #59564D",
"%. c #59584E",
"&. c #43475B",
"*. c #474A5A",
"=. c #575556",
"-. c #5D5B52",
";. c #604F4B",
":. c #665647",
">. c #6D5944",
",. c #735C46",
"<. c #625E54",
"1. c #615F5A",
"2. c #6B644A",
"3. c #766449",
"4. c #636156",
"5. c #6B6355",
"6. c #6B6856",
"7. c #66645A",
"8. c #69665C",
"9. c #6B6A5E",
"0. c #726352",
"q. c #796957",
"w. c #746C5B",
"e. c #78715D",
"r. c #444D64",
"t. c #444E6D",
"y. c #4B5066",
"u. c #44516E",
"i. c #4A546B",
"p. c #57596A",
"a. c #53586C",
"s. c #454E70",
"d. c #455373",
"f. c #495474",
"g. c #4E5974",
"h. c #475478",
"j. c #4E5C7B",
"k. c #525B75",
"l. c #525E7B",
"z. c #54627E",
"x. c #5E677E",
"c. c #6E6C61",
"v. c #61616E",
"b. c #726E63",
"n. c #766E63",
"m. c #757265",
"M. c #797465",
"N. c #757368",
"B. c #79766A",
"V. c #7B796C",
"C. c #686A76",
"Z. c #707077",
"A. c #7D7B71",
"S. c #77787C",
"D. c #847568",
"F. c #837B6C",
"G. c #827D73",
"H. c #847E79",
"J. c #90826F",
"K. c #838076",
"L. c #8A8376",
"P. c #858379",
"I. c #89857B",
"U. c #8C897E",
"Y. c #918A7D",
"T. c #566483",
"R. c #5A6685",
"E. c #576A85",
"W. c #5B6986",
"Q. c #5A6789",
"!. c #576A89",
"~. c #5A6989",
"^. c #646E88",
"/. c #64728D",
"(. c #797981",
"). c #657491",
"_. c #6B7996",
"`. c #6D7D9A",
"'. c #717C96",
"]. c #807F87",
"[. c #73829D",
"{. c #7A839E",
"}. c #7584A2",
"|. c #7A86A3",
" X c #7789A5",
".X c #7C8AA5",
"XX c #7C8BA9",
"oX c #8D8B82",
"OX c #83828B",
"+X c #888788",
"@X c #928D82",
"#X c #908E89",
"$X c #969185",
"%X c #92918A",
"&X c #9A9689",
"*X c #9B9689",
"=X c #8D8D93",
"-X c #8F9094",
";X c #969694",
":X c #92939A",
">X c #9C9C9B",
",X c #A19F9D",
"<X c #A1A09B",
"1X c #A9A49F",
"2X c #818AA6",
"3X c #828DAB",
"4X c #8392AE",
"5X c #8896AF",
"6X c #9D9EA3",
"7X c #848FB0",
"8X c #8695B2",
"9X c #8D9CB6",
"0X c #8E9BB9",
"qX c #909BB7",
"wX c #919BB9",
"eX c #9EA0A4",
"rX c #A5A5A2",
"tX c #A5A7A7",
"yX c #A8A9A6",
"uX c #ABABAA",
"iX c #AFB0B1",
"pX c #B4B4B4",
"aX c #B8B8B8",
/* pixels */
"_ ~ ~ ~ ~ Q Q Q W Q Q Q Q Y W Q ~ ~ Q ~ ' E E E E E Y K K L W W Y W Q W Q Q ~ ~ ! ~ ~ ~ ~ ~ ~ ~ Q Q Y W Q Q W Q W W ) ) ( ) ) ) ",
".X2X2X2X3XXX.X2X.X.X.X X.X2X2X.X2X2X2X2X2Xk.) ` ) OX=X=X=X=X=X=X=X=X-X=X=X-XS.C.'.{.|.2X2X2X2X2X2X.X.X.X.XXX.X.X.X.X.XXX[. X.X X",
"qXwXwXwX9X9X9X9X9X9X9X9X9X9XqXqX0XqX9X9XwXT.~ ' ' iXpXpXpXpXpXpXpXpXpXpXpXaX=X^.{.|.2X2X2X'.'.wX9X9X9X9X9X9XwXwXqX9X9X9X9X9X9X9X",
"|..X.XXXXXXX X.X.X.X XXX.X.X.X.XXX|.Z.(.S.(.(.S.(.%X%X#X%X%X%X#X%X%X%X%X%X%X#X(.].].OXOX].S.a.2X5X5X3X[.`.XXXXXX XXX XXX X.X.X{.",
"R.R.W.~.~.~.E.~.W.W.W.W.!.E.E.Q.W.E.tXaXpXpXpXpXyXV.B.B.B.B.N.B.B.B.B.B.B.B.oXpXpXaXpXpXaX6X*.a.5X5X[.) ] g.~.~.~.~.!.E.E.E.E.^.",
"R.R.Q.~.~.~.~.E.!.~.W.W.~.~.Q.Q.W.~.>XuX;XyXyXyX;X9.7.8.7.c.N.N.c.9.8.6.8.7.A.tXuXyXyXyXuX>Xp.p.5X5X[.' ] j.~.~.~.E.~.E.E.x.W.x.",
"R.Q.Q.Q.~.~.~.~.~.W.W.W.E.[..XC.uXeXP.V.9.#.1.c.4.$ @ O @ e #.| 5 < # @ @ O 5 A.A.A.A.A.N.+XuXeX/././.l.z.E.~.~.~.E.~.!.!.W.W.^.",
"R.Q.Q.Q.W.~.~.~.~.W.W.W.E.{.9XZ.iXyXV.c.7.1.%.| | X     @ $ $ $ $ $ O       2 c.c.c.8.-.%.A.iXeX=.z.E.E.W.~.E.~.W.Q.~.~.!.E.W.x.",
"~.~.~.~.Q.E.~.~.~.E.~.W.W.N.>X#XP.V.y x N.oX9.| t o     # # # $ $ $ @       O O c N.B.l 4 $.K.K.N.m.p.E.E.~.~.W.W.Q.~.~.~.!.~.W.",
"R.~.~.~.W.~.~.E.~.W.!.E.W.{.aX;XB.c.5 v I.%X7.| >       # # # # $ $ @         . } U.oX#.e e 7.N.B.V.1.T.T.E.~.~.W.W.~.~.~.~.W.W.",
"Q.~.~.~.W.~.E.E.W.!.W.E.E.+X>XK.1.+.e %.*XU.%.| O       # # # # # # #       . . 5 N.$XN.| e 1 *.b.B.4.*.T.W.E.~.Q.W.Q.~.~.E.W.W.",
"R.~.~.Q.E._.[.[.j.g.z.uXpX#XN.i.P 8 { c.&XA.+.e         # # # # # # #     . O O @ 8.&XI.#.x > 1 -.B.4.|  .T.g.g.E.W.~.~.~.W.W.W.",
"R.~.~.~.W. X9X4X[ ` d.>X<XV.| 0 ; ; 1.$.8.1.| 1         # # # # # # #       O + O | oXoX1...2 $ w %.-.#.#.f.` [ E.W.~.~.~.~.~.E.",
"Q.~.~.~.E. X9XXXu.iXrXA.V.w O ; $ 4 7.4.%.| | @         # # # # # # O       O + @ e G.%XB.| e $ @ o c V.8.| ( ] T.W.~.!.~.~.W.R.",
"R.W.~.E.E./.)./.z.pXyXV.B.2 O $ $ l N.oX8.| c           # # # # # # #       # + # > c.&XP.+.x * @ X x V.8.| | *.y.E.W.!.W.W.W.W.",
"R.W.W.W.E.E.Z.=X+XoXA.5 2 $ @ $ # | U.$X9.| e           # # # # # # #   . + # # # # -.@X@X<.} 2 # O * 4 c 8.6.#. .a.W.W.W.W.W.W.",
"R.Q.Q.~.^.^.=XaX<XV.7.o   X O $ > $.*XoX%.| *           # # # # # # #   O # # # # @ x G.%XN.| e # # o   5 V.B.#.| i.E.~.!.Q.~.W.",
"Q.~.Q.Q.Q.Q.=XpX<XV.7.O X X O $ e b.$XG.#.c             # # # # # # # o O # # # # # < b.*XK.#.l * # @ o e B.B.#.v *.Q.!.Q.Q.W.~.",
"Q.Q.Q.Q.Q.Q.=XpX<XB.7.O X X o > | P.$Xc.| e             # # # # # # # # # # # # # # # <.@XoX-.| 2 # # @ e V.m.+.| I !.!.~.~.Q.^.",
"f.f.h.f.f.h.=XpX<XB.7.O X X o < $.&X@X-.| 2 X         . # # # # # # # # # # # # # # # { P.$Xb.| 6 # # O e V.N.#.| y t.d.h.h.f.f.",
"` ` ' ' ' ' =XaX<XV.7.O     O w c.&XG.#.| $           O # # # # # # # + # # # # # # $ 2 N.*XH.o.x # # @ e V.N.#.| I P ` ] ` ` ' ",
"d.u.t.d.t.t.=XpX>XB.1.O     O } G.$Xb.| x @ o       o O # # # # # # # + # # @ # # # $ # 1.@XY.-.v , # # e B.n.#.| U 0 R d.s.t.t.",
".X3X3X3X+X;X+XP.8.> * o     O #.@X$X-.| 4 @ O   o O O # # # # # # # # + # # # # # # ; # | P.$Xw.| w @ @ $ 2 4 7.c.#.}  .XX3X3X2X",
"wXwX0X0X6XpXU.M.$.          , 7.&XP.#.| & @ O   o # # # # # + # # # # # # # # # # # ; $ 5 m.$XB.| l $ # # # & 8.B.%.v  .8X9X9XqX",
"|.2X.X|.>XiXI.B.%.X       . w B.$XN.| e # # O O O # # # # # # # # # # + # # # # # # ; $ $ -.L.V.#.v > # # # : 8.B.%.v | [. X X{.",
"R.W.R.Q.eXpXU.B.%.X       . d L.U.<.| < # O O # # # # # # # # # # # # + # # # # # # ; $ $ } M.K.7.| 5 # # # & 6.N.%.v x z.E.E.E.",
"R.W.Q.~.eXiXI.B.%.X       $ $.Y.B.o.c $ # # # # # # # # # # # + # # # + # # # # # # ; : $ 5 n.I.8.x < $ # # & 8.B.%.v ( z.W.^.E.",
"R.W.W.R.eXiXI.V.%.X       c oXP.O.c e $ # # # # # # # # # # # # # # # + # # # # # # : ; $ 2 8.I.V.#.w * # # $ 6.B.%.| x g.W.W.W.",
"R.^.Q.Q.eXpXI.N.%.        #.*X@X;...2 $ $ @ # # # # # # # + # # # # # + # # # # # # ; : & d m.L.M.C 6 * @ # * 7.B.%.v l i.~.~.W.",
"R.R.Q.Q.,XpXoXB.%.X       v @X$X<.o.< $ $ # # # # # # # # # # # # # # + # # # # # # ; $ * | F.L.e.C 6 & @ $ * 6.B.%.v ( i.~.W.W.",
"R.R.R.R.6XpXI.M.#.X       e A.$Xb.| 5 ; # # # # # # # # # # # # # # # + # # # # # # : $ < %.G.F.2.z < $ $ @ $ 9.M.%.| x y.~.~.W.",
"R.^.R.R.6XpXoXM.%.X       < c.$XM.o.e ; # # # # # # # # # # # # # # # + # # # # # # ; $ w 8.K.D.:.z = $ @ @ $ 7.M.%.| x r.~.W.W.",
"^.~.Q.T.eXpXoXB.$.      o & +.F.w.X.x & # # # # # + # # # # # # # # # + # # # # # # $ $ c B.P.n.O.6 & # # # * 7.V.%.| y g.!.E.W.",
"R.Q.Q.z.eXiXI.B.$..       o l e.w.+.| 1 # # # # # # # # # # # # # # # + # # # # # # $ & | V.F.<.c 2 $ # # # & 7.M.%.| x j.E.W.W.",
"Q.Q.~.k.eXiXI.B.%.  . .   o e B.L.<.} 2 $ # # # # # # # # # # # # # # + # # # # # # # d :.0.w.#.l * # # # # $ 8.V.%.| y T.Q.W.W.",
"R.R.!.k.eXiXU.V.-.o o . . o | @XP.O...6 $ O # # # # # # # # # # # # # + # # # # # # & 8.&XI.+.| e $ # # # # * 7.N.%.| y T.W.W.W.",
"R.^.Q.a.p.C.-X1XoX-.+.O   O #.&X@X;...s & # # # # # # # # # # # # # # + # # # # # # 5 B.*XA.| v 2 # # # 5 <.-.%.#.e 7 0 l.~.E.W.",
"R.Q.Q.Q.a.*.:XpX<XA.7.O . O } @X@X<.X.s # # # # # # # # # # # # # # # + # # # # # # c K.$Xe.C m = # # # d B.N.#.| 7 ! Q.E.Q.R.^.",
"~.Q.Q.Q.E.i.:XpX<XV.7.O . # e G.$X9.| z % # # # # # # # # + # # # # # # # # # # # # %.Y.U.2.C b = # # # e B.B.#.| 8 j.E.T.~.R.W.",
"R.Q.Q.Q.T.T.:XaX,XV.7.O . # 5 b.$XN.+.c = + # # # # # # # # # # # # # O # # # # # = 9.Y.K.>.m u * # # O a V.N.#.| 7 T.~.R.Q.W.R.",
"f.f.d.d.d.t.:XpX,XV.5.O o # = #.F.w.+.v 5 @ # # # # # # # # # # # # # + # # # # # t B.Y.D.:.N 3 & # # O a e.e.+.v 0 u.d.d.d.h.f.",
"~ r.' ' _ ' :XaX,XV.7.O o O # l e.w.+.| l @ # # # # # # # # # # # # # + # # # # # #.oXoX6.O.f > # # # # 6 >.>.X.| q ) ` ] ] ' ' ",
"s.s.s.s.t.r.:XpX,XB.7.O   O # e B.J.4.| 5 @ # # # # # # # # # # # # # + # # # # # <.Y.H.%.v 3 * # # O # 3 H G X.| 0 _ u.u.s.s.s.",
"3X7X7X3X2X/.v.C.S.>XoXg u % O e B.&Xm.v 5 # # # # + # # # # # # # # # + # # # # * n q.w.| y $ # # # = i s F B y 0 I .X4X7X7X7X3X",
"wXwX0X0X9X2X*.R p.pXrX,.H -   U 6.J.q.m u # # # # # # # # # # # # # # # # + # # 3 S F m v 5 $ $ # @ i Z N | } 8 a.5X4X9X0X0X0X0X",
"`. X X.X|. X[.*.=.+XH.q.2.B q u b H H n z # # # # # # # # # # # # # # + # # # # %.F.q.C v 2 > q 6 d c N n c c 7 x.'.). X X X|.|.",
"/.Q.E.E.W.E.E.l.^ / O.m.V.V.V.0.i 3.3.S z $ # # # # # # # # + # # # # + # # # , m.&XJ.D m 3 i n w.V.<.v c g s 7 i.z.E.E.E.W.Q.R.",
"Q.Q.E.E.E.E.T.T.U / O.m.m.N.m.0.b F.I.2.z = # # # # # # # # # # # # # + # # # t G.$XD.D A m Z S e.M.4.v f s s 7 z.z.E.x.E.W.E.R.",
"Q.Q.R.~.~.~.~.W.*.I ^ o.;.O.#.O.V B.$X6.v 3 # # # # # # # # # # # # # # # # # +.@XY.9.m F 2.q.e.,.,.F B p 7 7 P R.T.~.E.!.!.E.W.",
"R.Q.R.E.E.~.E.Q.R.k.^ ..O.X.| N m B 2.+.v l # % # # # # # # # # # # # # # # # X.F.F.$.c J 3.M.m.>.G S N ^ 1 k.y.l.Q.~.~.~.~.W.W.",
"R.E.~.)./.~.E.~.z.T.^ O.O.N j M v = u k B %.B i i + # # + # # # # # # # # # 4 -.<.:.m B e.6.$.$.n h N N f r T.T.z.z.T.~.Q.W.W.W.",
"E.~.`.8X8X_.~.~.~.E.! O.V j g c | z Z Z e.B.6.A i % # O % - k k :.;.& + # O 5 V.M.>.A 2.V.m.X.| s g j N f r |..Xf.] d.!.Q.W.W.W.",
"R.R.`.9X9X`.R.~.Q.R.^ / M f p / X.B N N 5.9.<.N h 5 5 5 5 z F C >.<.6 - 3 5 x 9.9.G A ,.w.<...c p u f j ^ R 0X7Xu.` d.!.~.~.E.W.",
"W.Q.).[.}.).~.E.Q.Q.k.j j p r d O...B | | | X.} $.m.B.N.B.M.M.M.M.M.>.G 0.M.9.X...G >.S Z Z N M 8 1 8 r P _.}.`.j.d.j.~.~.~.W.W.",
"W.Q.E.W.E.E.~.~.Q.R.T.j f U r.d N B B X.| M ..c +.b.m.m.m.m.m.m.n.q.>.:.0.e.5.v B S G A Z Z N M 8 8 f.T.f.W.Q.Q.E.~.~.~.~.W.W.W.",
"W.R.E.Q.R.Q.~.~.E.~.l.I P ! T.d O.V ..B j s i g z o.X.:.>.@.X.X.S S B M V S n s s g g h n n N M P y.T.R.R.E.~.E.E.W.~.~.~.W.W.W.",
"E.W.W.W.R.Q.Q.Q.R.R.R.k.a.k.T.d N ;.N N g g g g f } B :.G @.| B Z Z ..| N Z n g i g g g h / N M r z.z.W.~.~.~.~.Q.W.Q.~.E.Q.^.W.",
"W.W.W.E.W.R.R.Q.~.R.Q.R.R.k.k.d O.O.p ^ t p w t p c M V S V c M h h w 9 f n g 6 9 t p ^ ^ j N M P E.E.~.~.~.~.~.R.^.W.~.Q.W.~.C.",
"W.W.~.E.W.z.T.T.Q.Q.~.^.Q.f.f./ O./ P P L _ P P t f g j n m N h g p k.r.w N s P &.T.T.k.P t ..O.r E.~.~.~.~.!.~.R.W.W.~.Q.~.E.^.",
"~.Q.!.!.E.d.] [ R.Q.~.~.Q.d.) ^ / / 9 E ` j.Q.f.P d f M N c f f p U y.Q.&./ d Y Q.Q.T.R.r.^ O.j r E.!.!.~.~.!.E.~.Q.Q.Q.!.Q.R.R.",
"Q.~.Q.Q.!.d.` [ Q.Q.Q.Q.Q.d.` T Y P L ' ~ T.Q.R.l.T T / N ^ T &.! R.Q.R.k.y.! k.Q.Q.Q.Q.Q.U O.B 9 E.~.E.E.W.W.E.Q.Q.Q.Q.~.!.!.Q.",
"f.f.h.h.d.t.] ] s.f.f.f.h.t.' ' ' ' ' ' ` s.f.h.f.^ P ..V ^ ! s.f.f.s.f.d.s.r.t.h.h.h.s.f.U ..M P f.d.f.d.d.g.d.h.h.h.h.h.h.h.d.",
"' ' ] ` ' ' ` ' ` ` ' ' ' ' [ ' ' ' ' ' ' ' ' ' ' ~ P } O.^ L _ ' ' ' ' ' ' ' ' ' ' ` ' ` Y r P Q _ ' ' ' _ ' _ ' ' ` ` ` ` ' ' ",
"' ' ] ' ' _ ' r.' ' _ ' ' ' ' ' ' ' ' ' ` _ ' ' ' r.T } O.^ L ' _ ' _ ' ' ' ' ' ' ' ' r.' ' ' ' ' ' _ _ ' _ ' ' ' ' ' ` ' ' r.' "
};
