/* XPM */
static char *result[] = {
/* columns rows colors chars-per-pixel */
"64 64 255 2 ",
"   c #060604",
".  c #120B0B",
"X  c #191B17",
"o  c #3A0905",
"O  c #2C1908",
"+  c #351708",
"@  c #2E1210",
"#  c #0E390A",
"$  c #15370C",
"%  c #132A11",
"&  c #173614",
"*  c #272709",
"=  c #27340C",
"-  c #33310F",
";  c #252919",
":  c #3A2616",
">  c #0E0C28",
",  c #25112C",
"<  c #11332B",
"1  c #2C3229",
"2  c #373736",
"3  c #460805",
"4  c #4D0A04",
"5  c #530504",
"6  c #5B0503",
"7  c #540805",
"8  c #451407",
"9  c #56180B",
"0  c #610203",
"q  c #55240C",
"w  c #4F2E12",
"e  c #5E2A1B",
"r  c #453514",
"t  c #483428",
"y  c #0D4708",
"u  c #12440B",
"i  c #134C0B",
"p  c #13540D",
"a  c #14590B",
"s  c #0D4F12",
"d  c #174615",
"f  c #175612",
"g  c #2D4E0C",
"h  c #245A17",
"j  c #166A07",
"k  c #13620B",
"l  c #146A0A",
"z  c #0F7A03",
"x  c #137406",
"c  c #127B03",
"v  c #15740C",
"b  c #17780A",
"n  c #186714",
"m  c #177916",
"M  c #2C6B0C",
"N  c #134B2E",
"B  c #294A26",
"V  c #30542C",
"C  c #3B4636",
"Z  c #166D2C",
"A  c #176436",
"S  c #336D2A",
"D  c #50450B",
"F  c #6F4C0B",
"G  c #476404",
"H  c #506000",
"J  c #6E600F",
"K  c #504634",
"L  c #455A3E",
"P  c #755239",
"I  c #47653D",
"U  c #48773C",
"Y  c #0F0A4E",
"T  c #14304E",
"R  c #25244C",
"E  c #171B71",
"W  c #182A6D",
"Q  c #173B77",
"!  c #313769",
"~  c #533C42",
"^  c #15544F",
"/  c #1D5F58",
"(  c #16476B",
")  c #4F564A",
"_  c #536F48",
"`  c #5A6856",
"'  c #6C644D",
"]  c #67745A",
"[  c #586069",
"{  c #6D706B",
"}  c #885A0A",
"|  c #925C0C",
" . c #996E12",
".. c #B37925",
"X. c #8C6849",
"o. c #0E8402",
"O. c #158808",
"+. c #189709",
"@. c #188916",
"#. c #199612",
"$. c #248C14",
"%. c #249915",
"&. c #1AA809",
"*. c #1CB407",
"=. c #1CBD04",
"-. c #1EBA09",
";. c #1DAD12",
":. c #21A60F",
">. c #21AB0D",
",. c #22B60B",
"<. c #26A715",
"1. c #24B613",
"2. c #1F9331",
"3. c #259136",
"4. c #22A131",
"5. c #779F2A",
"6. c #749E34",
"7. c #749D38",
"8. c #4EA53E",
"9. c #53A43D",
"0. c #5AA93D",
"q. c #64AC3C",
"w. c #73A335",
"e. c #67B63D",
"r. c #6AB33F",
"t. c #74B73C",
"y. c #1BC101",
"u. c #1EC507",
"i. c #26D00E",
"p. c #3BED22",
"a. c #3EF224",
"s. c #73C53B",
"d. c #46FA28",
"f. c #1F844D",
"g. c #218252",
"h. c #4C9E44",
"j. c #569846",
"k. c #688659",
"l. c #6A845C",
"z. c #4EA445",
"x. c #4CA847",
"c. c #4EA44A",
"v. c #52A444",
"b. c #5BAA43",
"n. c #58A946",
"m. c #51A349",
"M. c #55A84F",
"N. c #63AC45",
"B. c #66B343",
"V. c #6AB242",
"C. c #6AB64B",
"Z. c #73B942",
"A. c #76B847",
"S. c #6FB952",
"D. c #758C6B",
"F. c #77C14E",
"G. c #AF8D12",
"H. c #B18925",
"J. c #85BD3E",
"K. c #D49115",
"L. c #ECA414",
"P. c #CC9F25",
"I. c #8BC63C",
"U. c #96C73E",
"Y. c #95CA3D",
"T. c #F5D113",
"R. c #829271",
"E. c #89AC69",
"W. c #8DC542",
"Q. c #8AC747",
"!. c #94CB42",
"~. c #94C948",
"^. c #90CA53",
"/. c #9ED063",
"(. c #191691",
"). c #172B8C",
"_. c #17338A",
"`. c #162995",
"'. c #1815AA",
"]. c #1C17B5",
"[. c #2713A7",
"{. c #1725AB",
"}. c #1625B5",
"|. c #1736B1",
" X c #2630B9",
".X c #3739B6",
"XX c #493FB8",
"oX c #1A4688",
"OX c #1C419B",
"+X c #265494",
"@X c #1542B7",
"#X c #334BB5",
"$X c #1072AE",
"%X c #454A85",
"&X c #494DB7",
"*X c #5C64B6",
"=X c #6E78A6",
"-X c #1716C9",
";X c #1915D5",
":X c #1F1ED3",
">X c #1724C5",
",X c #1235CE",
"<X c #1525D3",
"1X c #1538D7",
"2X c #2A2EC8",
"3X c #2336C8",
"4X c #1245DA",
"5X c #0F55D6",
"6X c #1558D9",
"7X c #2D51CE",
"8X c #2C4AD7",
"9X c #126ED8",
"0X c #376BD9",
"qX c #0E5FE1",
"wX c #175AE4",
"eX c #1363E4",
"rX c #116DE3",
"tX c #0C78E4",
"yX c #3B6CE2",
"uX c #3078E6",
"iX c #4A6ED1",
"pX c #6E7AC4",
"aX c #7B89B4",
"sX c #0585DE",
"dX c #3A96DE",
"fX c #0786E1",
"gX c #1A90E7",
"hX c #3C86EA",
"jX c #2D9AEE",
"kX c #2EA5F1",
"lX c #37A9F5",
"zX c #4899D2",
"xX c #4589E9",
"cX c #4593EE",
"vX c #4E91EF",
"bX c #4898F1",
"nX c #49A9F8",
"mX c #46B5FD",
"MX c #4BB4FE",
"NX c #54B0F5",
"BX c #839283",
"VX c #959792",
"CX c #96A98E",
"ZX c #8796B2",
"AX c #9CACA5",
"SX c #B3B5B2",
"DX c #BFDA90",
"FX c #BFC3BE",
"GX c #C4E499",
"HX c #C1C4BF",
"JX c #B4CFE6",
"KX c #D0D1CF",
"LX c #C7D5EB",
"PX c #EBECED",
"IX c #F9FAFC",
/* pixels */
"PX/.Y.!.Y.Y.Y.Y.I.Y.Y.Y.Y.Y.Y.!.!.!.!.U.U.!.!.Y.!.Y.Y.!.!.!.!.Y.Y.!.!.Y.Y.!.!.U.U.U.Y.Y.Y.Y.Y.Y.Y.Y.Y.!.U.U.U.Y.Y.Y.Y.!.Y.Y.DXHX",
"GXQ.F.Z.t.t.t.t.F.t.Z.t.Z.t.t.Z.A.t.t.Z.t.A.Z.Z.Z.Z.Z.Z.Z.s p p p p p p p p p p S Z.Z.Z.Z.Z.Z.r.t.Z.Z.Z.Z.Z.Z.Z.t.t.t.Z.t.t./.CX",
"I.0.x.8.8.z.x.z.8.z.8.z.8.z.x.z.0.0.9.z.v.z.c.v.j.U d d @.,.*.=.,.-.-.-.-.=.,.,.<.f f B z.x.z.z.z.z.z.z.z.z.z.v.z.z.8.z.c.z.Z.w.",
"Q.n.8.z.c.8.x.z.8.z.x.c.c.c.c.c.x.C.N.z.M.c.I B V $.>.,.=.y.y.y.y.y.y.y.y.y.y.y.=.;.;.<.h k.x.z.x.c.z.c.c.z.m.v.m.c.z.9.x.M.C.w.",
"I.b.v.v.N.n.c.c.j.v.v.v.v.v.m.v.9.V.N.m.m.S n b +.,.y.y.y.y.y.=.y.y.y.y.y.i.p.p.a.p.i.u.&.S I h.z.v.m.v.m.m.v.v.h.v.b.r.n.c.B.6.",
"Q.b.z.v.F.V.z.x.v.v.v.v.m.v.m.v.8.9.9.z._ a O.&.y.=.y.y.y.=.y.=.=.y.=.y.y.u.i.a.d.d.a.i.u.+.m j.v.v.v.v.z.v.j.m.m.b.A.~.A.m.V.7.",
"I.n.c.m.b.b.c.x.x.z.h.b.S.n.m.z.z.8.z.B y o.&.y.=.y.y.=.y.y.y.=.y.y.y.y.y.y.u.i.p.d.d.d.i.y.1.p L n.c.m.v.m.c.c.c.m.0.V.n.z.B.6.",
"Y.b.c.c.c.c.x.z..X>X2X-X#Xn.m.z.h.z.h.B a c *.=.*.*.*.=.*.*.=.=.=.y.y.y.y.y.u.u.u.p.d.d.u.y.-.a V v.c.v.N.9.c.m.m.c.z.z.z.z.V.6.",
"W.b.c.c.h.h.aX XvXnXlXuX6X X2X&Xc.c.d n z o.>.;.m m m m m m m #.=.=.=.=.y.y.=.y.y.y.u.u.=.=.*.m A 1 R.b.F.0.z.m.z.z.m.h.h.8.B.6.",
"W.M.&XXX.X&X0XbXnXmXmXlXlXhXuX6X#X! & n b c @.A `.`.`.`.`.`.`.^ @.O.+.=.y.=.y.y.y.y.y.=.+.O.@.( (.(.ZXb.N.9.z.z.z.m.z.m.z.z.r.6.",
"W.b.].3XyX0XhXmXjXjXgX0X8X8X9XsX5X|.E Q Q Q Q OXyXyXyXyXuXyXyX#X_.Q A #.+.&.=.y.=.=.&.@.( ( ( 7X0XyXiXaXc.m.m.z.c.m.z.m.z.z.V.6.",
"W.b.*XiXhXNXMXlXgXfXsX5X1X1X5X6XqX4X1X,X4X8X8X0XMXMXnXuXuXhXMXhX8X8X+X( ^ A :.&.&.&.2.( #X8X8XbXMXMX8X Xm.c.c.z.m.z.z.m.z.z.V.6.",
"W.n.m.=X#XxXcXbXnXkXgXfXfXtX1X;X<X5XtXfXgXlXnXmXmXbXiX#XXXXXxXxXhXMXxX3X2X_.A A A A Q 3XxXvXvXcXbXMX7X2Xz.z.z.z.z.z.z.m.z.z.V.6.",
"Q.n.c.c.z..X].3XvXlXnXnXlXfX1X<XrXtXsXsXfXfXlXmXMX7XXXPXIXLX.X].}.xXnXbXnXxX}.}.}.{.0XvX3X].>X>X7XMX8X.Xz.z.m.m.m.z.m.v.9.z.V.6.",
"W.n.j.h.z.x.N.ZX7X2X2X3X3X<X:X<XtXsXsXsXfXsXlXmXnX8XXXIXIXLXR > Y {.2X3XhXnXhXbXhXcX0X XY %XLXiXuXNX7X.Xm.z.z.z.h.z.z.C.C.c.V.6.",
"J.N.h.h.m.v.j.9.ZXZXZXZXpX;X;X<XtXfXfXfXsXsXlXmXNX1XXXPXIXKXX   > (.2XuXnXmXmXmXmXmX+XY   { IXzX9X7XpXZXc.z.z.x.h.z.x.C.N.z.V.6.",
"U.N.m.v.x.z.v.v.c.m.m.ZXpX7X2X<XtXrX5X4X9XsXlXMXMXyXpXIXIXKXX   > (.8XmXkXgXjXjXjXjX(     { IXzXqX-XaXz.m.m.h.c.m.M.z.9.v.c.V.6.",
"W.n.m.v.x.z.M.E.E.CXZXiX7XNX7X;XeX,X'.`.@XqXhXdXlXlXNXJXLXJXT < Y `.5XzX$X$X$X$X$X$X(     [ LXdXqX-X=Xh.m.m.m.c.j.m.c.z.z.z.r.6.",
"W.N.N.r.b.z.D.. > E  XxXNXbX8X].{.W < n ^ {.}.4XtXtXtX9X9X9X9X9X$X9X+Xs a s s N s s d u u / $XtX6X}.T V m.m.m.v.q.q.n.z.m.h.r.6.",
"J.w.S.^.N.c.] > (.#XbXnXcX,X6X9XT s x c n Z A ^ }.}.>X>X|.<X}._.N N Z <.*.;.&.>.;.&.<.;.;.m N {._.A n n h D.v.0.R.; ; ) m.m.r.6.",
"!.0.b.N.b.m.] > '.7XMXmXnX6XtX$X< a z z z c &.#.f.g.g.g./ ^ ^ Z O.+.&.-.y.y.y.y.y.y.y.y.y.&.$.N < m z v # k.9.` t o   2 c.c.r.6.",
"W.b.9.9.v.m.=XE 7XxXnXkXgXsXeX@X< a c z z o.;.u.y.y.u.y.*.+.&.*.y.y.y.y.y.y.y.y.y.=.y.y.y.=.u.@.m O.c l # L ] @ 3 0 . C c.c.r.6.",
"Q.b.z.v.m.b.pX}.hXlXlX9XqXeX}.E L S l z z z &.*.y.=.y.u.&.#.#.#.+.,.y.y.y.y.y.y.y.y.y.=.&.&.y.u.;.z x a % . o 5 5 o t ] c.c.r.6.",
"~.n.z.v.m.N.pX-XeXrXrX|.'.[.Y R AXl.B n x x z O.*.=.-.<.m B B B V %.>.;.>.>.>.>.>.>.;.%.h S <.*.+.v y % . o 6 5 8 1 m.m.z.c.r.6.",
"Q.n.x.c.m.z.aX].>X>X XY , 7 7 3 ; { AXV d y k z o.&.:.s D.SXSXHXKX_ d d d & d d i u u B CXD.y x l u . . 5 6 6 . ` j.z.z.z.c.e.6.",
"W.0.x.z.c.h.c.m.m.m.n.9.v.. 3 6 3 : ) E.] . & s y %.,.#.S L C VXIXKXSXKXHXHXFXKXHXFXHXFX` V k y $   o 3 6 o @ x.c.c.8.z.c.c.e.6.",
"I.0.z.z.z.h.m.z.c.c.x.z.c.z.t o 6 o . ` ) t X X * h O.+.+.m O.U aXD.R.BXBXD.BXaXBXaXBXR.h a p % . o 5 6 o t z.c.c.m.z.z.h.z.r.6.",
"I.b.c.m.c.m.m.z.m.c.c.c.z.c.m.K o .   , 2 ) @ . O + - g M $.$.@.j k k k k k k a k k a k f i %   . 6 5 + ) m.z.z.c.9.9.z.h.z.V.6.",
"W.b.z.v.c.c.c.c.m.m.m.m.c.c.c.c.X   @ ` t : + + O 3 6 6 + = * h %.>.>.>.:.>.<.:.:.:.>.<.u % X   @ 5 : K z.m.z.8.n.C.B.v.z.h.B.6.",
"Y.0.z.x.c.c.c.c.m.b.b.v.m.c.c.z.X 2 [ : t e r - * * 8 0 6 6 6 8 * $ i i i y i y i $ u $ % C ` X     R.h.z.m.z.v.n.C.b.9.m.c.V.6.",
"I.0.z.v.v.v.x.c.v.N.F.0.m.v.9.C ) t : w r r = u l k g + 7 0 0 5 + g b %.+.:.%.b f * 8 4 O ; 1 ) 2   D.m.c.z.h.m.m.v.v.m.m.m.e.6.",
"W.b.z.v.B.e.z.x.v.0.b.v.v.n.C.b.2 : @ t r $ p b &.&.+.b g 5 0 6 4 - a +.+.+.#.j - 8 6 6 3 * % 1 2 ) ) ` m.c.m.c.m.v.m.z.z.c.B.6.",
"W.0.x.9.A.t.8.c.h.m.m.m.c.n.A.0.X + w w - # l +.=.=.=.&.M - 8 5 0 o = G M M H - o 6 6 4 O $ i % X L ) ` v.z.z.c.c.z.v.z.v.c.B.6.",
"W.b.z.m.S.Z.z.c.v.m.m.c.c.m.n.v.: t D w - # z +.=.*.&.o.x a + 4 0 4 9 F | } F q 4 6 7 + - g v u ; 1 z.9.9.v.c.c.c.z.z.z.c.c.V.7.",
"W.b.c.z.N.b.c.c.v.v.m.z.m.z.m.z.: + r - = d :.=.,.+.c c i $ + 9 6 0 4 8 ..H.8 7 0 6 9 9 F H x y I c.z.n.C.b.m.m.z.c.v.v.c.c.V.6.",
"I.b.z.v.v.v.c.c.v.m.c.z.m.z.z.9.: w K = i v &.y.=.+.x x i g U. .8 6 0 7 9 q 7 0 6 4 | K.} H x y I c.z.b.A.q.9.m.c.v.c.m.m.c.e.6.",
"W.b.m.m.c.c.c.c.9.z.z.m.x.v.R.K r r r = l &.y.u.=.+.x y D J T.T.P.e 7 0 0 4 4 4 q ..K.L.| H j y ) z.c.9.0.F.0.v.m.z.z.v.c.c.r.6.",
"W.b.z.m.z.c.c.z.h.z.z.z.v.x.' + t w - & k &.=.*.+.o.j # w | T.T.T.D o 4 0 0 4 o w L.L.L.| H b v S z.c.v.n.V.9.z.z.c.v.z.c.c.r.6.",
"W.b.z.h.z.v.v.m.z.c.z.m.n.M.' o r r - R T ^ f.2.x j a # D | K.K...9 3 3 4 6 0 7 q ..K.K.F G c *.%.% z.m.v.v.v.z.z.z.c.8.9.z.r.6.",
"W.b.c.h.z.9.v.z.c.z.z.v.b.S.' @ ~ 2 T {.>X}.}._.A N < & w F F D 8 6 0 7 9 q 6 0 6 8 q F - i b %.3.< c.h.z.c.z.z.h.z.x.C.C.z.V.7.",
"W.b.h.h.v.m.z.z.z.c.z.n.C.A.' , [.[.}.wXrXrXrX6X}.].(.1 * 8 8 8 6 0 7 o ..H.9 7 6 5 4 + + g Z Q }.{.8.z.m.c.m.z.h.z.z.B.V.m.r.6.",
"W.N.h.v.c.c.z.n.0.z.z.n.F.q.' , ].1XwX1X1X1X,X:X;X;X(.< + 4 o o 3 3 8 + D w o o 3 8 4 7 + R ).5XwX6X7X*Xv.z.c.c.z.z.z.0.m.z.V.6.",
"Q.N.m.v.z.c.v.C.C.m.m.v.M.0.' X W |.1X;X`.Q ( W E E T ; 8 6 7 4 4 4 4 3 P P P P P 7 6 6 o R 4X5X4X4X-X.Xn.z.c.z.m.m.z.z.x.c.r.6.",
"~.0.9.v.c.c.z.C.V.m.m.z.v.v.' O % T _._./ @.+.O.f f f $ + 7 7 5 5 5 5 7 P X.X.X.X.9 7 5 + Q 6X|._.oXoX+X9.z.c.c.z.c.z.c.c.c.r.6.",
"~.0.n.8.c.m.m.9.9.m.c.c.h.v.] 1 & f m m #.=.=.=.=.,.:.# = + 8 9 q q w e w 8 w w 9 8 + * % T ).A @.1.u.4.# c.c.v.c.z.z.z.c.x.q.w.",
"W.q.C.M.h.c.z.z.z.c.m.c.z.v.n.m.& a o.;.,.=.=.=.y.,.%.y a M F  .L.L.L.L. .} L.L.P.F H j & d Z m O.,.,.<.d z.m.z.z.v.z.v.c.x.q.w.",
"Q.q.S.N.z.m.z.c.c.m.c.c.x.c.c.m.& a o.*.*.o.*.=.,.b a j x M F G.T.T.T.T. . .T.T.T.} G x u # y l o.O.k h c.m.m.c.M.9.m.v.z.z.e.6.",
"W.0.8.v.z.c.z.z.z.z.z.c.z.z.c.n.& a o.*.+.a O.&.1.k y b c j g J G.G.G.G.| } G.G.H.M M j y % # l j a _ v.v.z.c.m.Q.N.v.v.c.c.B.6.",
"Q.0.9.v.z.c.z.v.c.z.m.v.z.z.c.v.] S l #.m # l +.1.k y x O.O.# - D D D w D D w H G c O.@.u $ # y S ] x.z.h.z.v.V.Z.A.b.v.z.c.r.6.",
"W.b.v.v.z.z.z.c.c.v.m.m.v.x.c.m.z.l.# a a # a @.%.k p O.&.<.u $ $ = = = $ $ u a c O.&.<.y B C V ` z.z.z.z.z.b.A.r.J.N.z.c.c.r.6.",
"W.b.h.8.z.m.z.z.z.c.N.F.v.x.z.m.x.] X 1 & & # i s l o.=.=.;.d = - r : - = u l c o.,.u.*.y ` KXKXAX1 D.z.z.c.z.q.J.V.n.v.c.z.r.6.",
"W.b.h.z.x.v.c.z.m.c.n.C.n.z.c.m.2 { FXKXD.& f n l %.;.-.1.<.d ; O o + O ; u m v O.1.-.<.f < 2 SXKXSX{ C z.z.c.x.V.M.z.m.c.c.r.6.",
"W.n.m.z.z.m.c.c.z.h.v.9.9.z.D.) VXHXKX[ ! (.)._._.oXoXoXoXoX(.! 8.C.A.v.%X(._._._.oXoXoX(.! BX` X.PX[ ; c.z.c.c.c.v.m.m.z.z.V.6.",
"W.b.m.h.c.m.c.c.z.z.m.z.z.z.) 1 KXSXX.{ %X-X1X4X4X4X4X4X4X4X;X*Xz.v.n.x.&X-X4X4X4X4X4X1X-XpXM.D.] aX2 ; m.z.z.c.x.m.n.m.m.z.B.6.",
"W.b.h.m.m.n.N.c.v.z.z.z.v.v.) X AX{ L v.b.-XwXwXqXqXqXeXqXwX-X*Xz.z.v.x.&X<XeXqXqXqXeXwX-X*Xz.v.b.K X ; m.c.m.m.9.N.r.0.m.z.B.6.",
"I.b.c.m.v.S.S.c.m.v.h.z.v.m.)   X l.j.v.v.'.}.'.].}.}.{.}.}.].*Xv.z.v.v.&X].}.}.{.}.}.}.'.*Xz.z.m.v.` C c.c.c.m.n.A.I.r.z.z.V.6.",
"W.b.c.z.v.0.b.m.m.z.z.z.h.c.) ; 0.t.B.M.x.< A Z Z 2.4.4.4.3.< ] z.z.z.v.` < A A Z 4.4.3.< ] z.z.h.m.m.v.z.z.z.z.9.b.N.n.v.v.B.6.",
"W.n.c.z.v.0.v.m.v.z.c.z.m.m.m.v.8.e.b.x.c.# j c c &.y.y.u.;.y _ v.c.m.c.S # c c o.,.y.*.s _ c.x.c.c.m.c.z.x.z.z.x.z.z.z.m.z.B.6.",
"W.b.c.z.c.v.v.c.c.x.z.z.c.m.m.c.z.v.v.m.c.# l o.+.*.y.y.,.>.# _ c.m.m.c._ # v O.&.=.u.1.s _ x.c.c.z.z.z.z.z.z.m.v.z.z.z.v.z.V.6.",
"W.b.c.x.v.c.c.c.z.8.c.m.c.c.c.c.c.c.m.z.z.# k +.,.&.+.%.+.$.n U z.m.v.m.V y c &.,.+.#.$.l U c.c.8.z.z.v.c.z.z.z.c.c.m.m.m.z.B.6.",
"W.b.c.n.b.v.h.v.b.x.v.0.c.x.x.v.b.0.n.n.n.# j +.1.v p i # i 1.@.d $ U z._ y v &.>.k u u <.$.i $ I b.v.v.c.z.v.0.8.z.z.b.n.0.r.6.",
"I.q.0.A.^.V.j.A.A.v.b.s.m.m.v.9.S.B.Z.S.C.# k +.1.>.<.<.n y <.1.%.i I z.I u v +.1.<.n u %.1.<.p L Q.A.v.9.v.0.F.0.8.h.r.Q.t.r.6.",
"I.A.t.I.~.I.t.J.I.t.t.I.t.t.Z.t.Q.J.J.J.J.I.V p p a a f u $ p a f $ _ t.F.D.d i f a i & d a f # L !.I.A.t.A.A.~.A.t.A.Q.!.J.J.5.",
"~.^.^.U.!.!.!.!.Y.U.!.!.!.U.~.~.!.^.~.Y.!.~.D.l.l.l.l.k.l.l.l.l.l.l.E.^.!.Y.l.l.l.l.l.l.l.l.k.k.R.!.!.~.Y.^.^.~.~.Y.!.^.^.^.^.5."
};
