/* XPM */
static char *result[] = {
/* columns rows colors chars-per-pixel */
"64 64 252 2 ",
"   c #0B0605",
".  c #1A0A06",
"X  c #0D1808",
"o  c #18170A",
"O  c #171915",
"+  c #290907",
"@  c #370505",
"#  c #23130C",
"$  c #29160C",
"%  c #26180A",
"&  c #2C190F",
"*  c #31180A",
"=  c #2A1814",
"-  c #341B14",
";  c #371917",
":  c #391D16",
">  c #13280F",
",  c #0E3909",
"<  c #16390B",
"1  c #173915",
"2  c #28260B",
"3  c #25281A",
"4  c #372517",
"5  c #3C2313",
"6  c #2D3716",
"7  c #1F1C27",
"8  c #291325",
"9  c #10342D",
"0  c #3D2924",
"q  c #283128",
"w  c #353529",
"e  c #383835",
"r  c #480706",
"t  c #540507",
"y  c #5C0405",
"u  c #4C1208",
"i  c #432616",
"p  c #452916",
"a  c #482B16",
"s  c #442D1D",
"d  c #552B19",
"f  c #4D0622",
"g  c #442D26",
"h  c #47352A",
"j  c #0D4708",
"k  c #12470B",
"l  c #0F5506",
"z  c #13540D",
"x  c #13590B",
"c  c #164912",
"v  c #185713",
"b  c #255419",
"n  c #15670A",
"m  c #117B04",
"M  c #147609",
"N  c #14770E",
"B  c #186713",
"V  c #276419",
"C  c #1A5B2F",
"Z  c #2A4626",
"A  c #344C2A",
"S  c #285624",
"D  c #3A4536",
"F  c #176C30",
"G  c #366F2D",
"H  c #46560B",
"J  c #5A473A",
"K  c #49513C",
"L  c #644C3B",
"P  c #47653D",
"I  c #46783B",
"U  c #18374F",
"Y  c #2B2950",
"T  c #201E61",
"R  c #182877",
"E  c #4C2E5E",
"W  c #165651",
"Q  c #2A4753",
"!  c #1A7754",
"~  c #175072",
"^  c #365470",
"/  c #1C6E6B",
"(  c #2C7460",
")  c #4B5545",
"_  c #53564C",
"`  c #685F53",
"'  c #547048",
"]  c #596655",
"[  c #6C644D",
"{  c #6D6F59",
"}  c #70736C",
"|  c #88796D",
" . c #118405",
".. c #148A0A",
"X. c #198909",
"o. c #189709",
"O. c #238917",
"+. c #259A12",
"@. c #1AA808",
"#. c #1BB604",
"$. c #1BBC04",
"%. c #1BB209",
"&. c #1EBA0A",
"*. c #1BA817",
"=. c #1DB614",
"-. c #21A70C",
";. c #22B70C",
":. c #26A616",
">. c #24B714",
",. c #32BC1C",
"<. c #1B9927",
"1. c #1B8E38",
"2. c #268F3A",
"3. c #1DA926",
"4. c #1DA335",
"5. c #2EA92B",
"6. c #488C3B",
"7. c #779F2A",
"8. c #749E34",
"9. c #749D38",
"0. c #4EA53D",
"q. c #53A43E",
"w. c #57A73D",
"e. c #5CAB3E",
"r. c #7AA42C",
"t. c #64AB3C",
"y. c #71A337",
"u. c #6AB33F",
"i. c #69B93D",
"p. c #74B83C",
"a. c #1CC102",
"s. c #1EC607",
"d. c #26D10F",
"f. c #3BED22",
"g. c #3EF224",
"h. c #73C53B",
"j. c #46FA28",
"k. c #1C874E",
"l. c #2D914D",
"z. c #2A856D",
"x. c #4C9E43",
"c. c #4D9F4C",
"v. c #529647",
"b. c #688659",
"n. c #6A845C",
"m. c #4EA445",
"M. c #4CA847",
"N. c #4EA44A",
"B. c #52A444",
"V. c #5AA543",
"C. c #54A943",
"Z. c #5BAA43",
"A. c #51A349",
"S. c #5AAA49",
"D. c #5EB14A",
"F. c #51A551",
"G. c #64AD45",
"H. c #66B343",
"J. c #6AB242",
"K. c #6AB64B",
"L. c #73B942",
"P. c #76B847",
"I. c #6EB953",
"U. c #599571",
"Y. c #768C6A",
"T. c #7AC149",
"R. c #74C256",
"E. c #84BD3E",
"W. c #8BC73C",
"Q. c #96C73E",
"!. c #95CA3D",
"~. c #888E72",
"^. c #8DC542",
"/. c #8AC848",
"(. c #94CB42",
"). c #94C947",
"_. c #8CCA53",
"`. c #94CA53",
"'. c #9ED063",
"]. c #172A8F",
"[. c #183489",
"{. c #1B2091",
"}. c #1817AB",
"|. c #2218B3",
" X c #1628AB",
".X c #1639AE",
"XX c #1625B3",
"oX c #2F2FB9",
"OX c #1B4689",
"+X c #155792",
"@X c #2A4E8F",
"#X c #1D6588",
"$X c #1551B5",
"%X c #2F53B6",
"&X c #1379A9",
"*X c #246CA1",
"=X c #5A619D",
"-X c #484FB9",
";X c #5C64B6",
":X c #1716C9",
">X c #1817D4",
",X c #1731CC",
"<X c #1525D3",
"1X c #1639D9",
"2X c #2B34CA",
"3X c #173BE0",
"4X c #1451CE",
"5X c #1345D9",
"6X c #1458D8",
"7X c #2E51CE",
"8X c #0D67DE",
"9X c #1367DA",
"0X c #0A79DC",
"qX c #1871D0",
"wX c #336BD1",
"eX c #0F5EE1",
"rX c #1859E4",
"tX c #1262E5",
"yX c #126FE2",
"uX c #097AE2",
"iX c #3174E2",
"pX c #515DC6",
"aX c #496BCA",
"sX c #208E94",
"dX c #118DAA",
"fX c #6D9796",
"gX c #7688B1",
"hX c #0584DE",
"jX c #1586D3",
"kX c #378FD7",
"lX c #0786E1",
"zX c #1588E5",
"xX c #1D94E8",
"cX c #328FE9",
"vX c #398BEA",
"bX c #2797EA",
"nX c #31A2F1",
"mX c #3AA7F5",
"MX c #6689C9",
"NX c #4491EC",
"BX c #4AA7F7",
"VX c #48B3FC",
"CX c #9B9189",
"ZX c #92A399",
"AX c #A7B495",
"SX c #A3AAA2",
"DX c #BDB4AC",
"FX c #C1CAA2",
"GX c #C5D7AC",
"HX c #D0DECE",
"JX c #E8ECE5",
"KX c #FFFFFF",
/* pixels */
"JX'.!.!.!.!.!.!.!.!.!.!.!.!.!.(.(.(.(.Q.Q.Q.(.(.(.Q.!.!.(.^.(.(.Q.Q.!.!.!.(.!.(.(.Q.!.!.!.!.!.!.!.!.!.Q.Q.Q.(.(.!.Q.!.!.!.Q.FXGX",
"GX/.T.h.p.i.p.p.p.i.L.p.L.p.p.L.P.p.p.L.P.P.L.P.L.G z z z z z z z v z z z L.L.L.L.L.L.L.L.L.J.p.L.L.L.L.L.L.L.p.p.p.p.L.p.i.'.AX",
"W.e.M.m.m.m.m.m.C.m.m.m.m.m.m.M.q.w.q.m.C.m.b c v :.&.#.$.&.&.$.;.&.&.&.;.O.c c ' 0.m.B.m.m.m.m.0.m.m.B.m.m.x.q.m.m.0.m.N.m.i.y.",
"^.S.0.m.m.m.M.M.0.m.M.m.N.N.M.M.B.I.D.A.b.V +.-.%.a.a.a.a.a.a.a.a.a.a.a.$.;.%.-.O.S b P N.N.N.m.M.N.N.N.N.N.A.B.A.N.m.w.m.c.K.9.",
"W.S.B.V.D.S.N.N.B.B.A.V.B.A.A.A.q.J.G.G O.+.s.d.f.f.g.f.s.s.a.a.a.a.a.a.a.a.a.a.#.+.M B P V.V.B.B.B.A.B.B.A.V.A.m.m.G.J.S.N.H.9.",
"/.C.0.B.I.J.0.M.B.B.A.A.B.V.A.B.0.q.b.B +.d.d.f.j.j.j.d.s.$.$.a.$.a.a.a.a.a.a.a.$.s.@.X.l I x.B.B.A.A.m.B.m.A.A.A.V.P./.L.A.J.9.",
"W.e.N.F.G.Z.m.M.m.m.A.V.I.V.B.m.x.P z >.a.s.j.j.j.f.d.$.a.a.a.a.a.a.a.a.a.a.a.a.$.a.a.%.m j Z A.A.B.N.N.B.x.A.N.N.N.t.J.Z.m.H.y.",
"W.Z.N.A.m.N.M.m.N.A.A.e.K.V.m.m.x.G x &.s.s.g.g.j.s.s.s.a.a.a.a.a.a.$.#.#.#.#.#.#.#.$.%.m l Z A.A.x.N.V.t.B.A.A.A.m.m.x.m.m.u.8.",
"^.Z.A.x.m.m.M.C.m.N.A.B.w.m.N.~.q C N ;.$.$.s.s.a.a.a.a.a.a.a.$.$.$.#.@.@.@.@.@.*.@.@.#. .m n c v.B.m.Z.R.w.m.N.m.m.m.x.x.m.u.8.",
"W.Z.N.A.m.m.0.0.m.A.N.m.m.M.M.gX{.~ 1.%.#.#.$.a.a.a.a.a.a.a.a.#.#.$.$.$.*.3.<.<.*.<.@.#...M B , Q z.m.V.H.q.m.B.m.A.A.A.m.m.u.9.",
"^.Z.N.m.N.m.C.m.A.A.m.N.N.B.gXaXwX/ k.<.*.%.$.a.a.a.a.$.#.$.$.$.#.#.$.$.s.&.=.3.3.4.3.%.*.1.~ R XX*XF.F.A.A.N.N.m.A.m.A.m.m.H.8.",
"^.Z.m.A.m.m.0.m.B.N.m.A.A.w.oX7XNXsXk.2.%.&.%.$.$.$.$.$.$.$.$.$.&.=.=.=.3.4.4.k.4.3.k.3.=.<./ 5X5XrX*XN.A.N.N.m.A.m.m.A.m.m.J.8.",
"^.V.A.A.M.B.D.D.m.F.m.A.V.K.2X7XBXkX7X%X#X! ! 1.! W W / / ~ ! k.! k.#X+X#X+X/ / k./ ! k./ / &X8X6X<X>Xz.m.m.m.m.m.m.m.A.m.m.J.8.",
"/.S.N.m.m.m.K.I.M.M.m.A.G.I.2X7XBX7X,X$XXX.XwX%X]. X X XwXNXcXiXqX4XOX~ dXkXNX%X*XkXkXbX0XuX0XlXlXtX<XC.m.m.m.m.A.m.A.B.q.m.J.8.",
"^.V.x.x.m.m.w.q.N.N.A.V.V.G.oX7XVXzXjXbXqX$X4X9XcXvXcXkXbXzX0X0X8X,XR U dXhXhXjXuXbXVXmXhXhXhXhXlXuX<X>Xm.m.m.m.x.m.m.K.K.N.J.8.",
"E.t.v.q.m.B.q.0.N.N.A.A.A.F.SX;X7X0XhXjXdXdXdXdXdXdXsX~ eXlXhXuX4X5X$X@X0XhXhXhXuXnXVXmXhXhXlXlXlXyX<X>Xm.N.m.m.x.N.M.K.G.m.J.8.",
"Q.G.A.B.M.m.B.B.m.N.N.m.m.m.B.ZX>XeXlXzXdXdXdXdXdXdXdX$X8XuXuXyX1X5XeX7X7XqXhXzXhXnXcXcX8X8X5X5X8XuX<X<Xm.c.m.m.A.F.m.q.B.N.J.8.",
"^.V.A.B.m.m.m.m.m.m.m.N.m.m.V.=X:XeXbXdXdXdX+XdXdXW ].5XeX5X5X1X>X5XyXyX7X%XqX$X*X#X/ *X$X.XOX~ .XtX<XS.m.N.m.N.S.A.m.B.m.m.u.8.",
"^.e.G.t.e.m.m.M.m.N.m.N.M.N.N.( ].4./ #X! W ~ U ~ +X.X:X<X>X>X<X1X5X6XiXwX+Xk.4.1.k.! ! / W 1.F W }.:XU.m.N.A.v.6.t.V.m.A.A.u.8.",
"Q.t.I.`.H.N.) 3 3 ~.m.m.N.N.N.x.W ! a.%.@.@.Y .X4X9XrX7XrX2X>X1X0X8X1XwXvX4X@X&.$.$.$.$.#.o. ...B U &Xc.N.c.v.Z 3 /.G.A.m.A.J.8.",
"^.e.Z.G.C.A.D   @ s ] q.A.m.N.N.O.9 F %.o.-.T 4X0X6X5XBXNXpX-X,XnXlX1XwXmXyX,X;.*.4.*.@. .m m m z 9 &XB.I q q u : v.B.B.m.N.u.8.",
").Z.q.q.B.m.e . y r - { x.B.A.N.C.Z X.&.;.+.|.6XlXcXNXBX7XMXgX7XBXzXeXyXmXmX2X3.a.a.a.%.m m m m l 9 U.v.q 2 y y 5 v.B.B.N.N.u.8.",
"/.Z.m.B.m.m.{ h r t t + . 1 0.x.M.0.Z s.%.N }.6XbXBXBXNXpXfXfXaXvXxXlXxXmXBX7Xk.$.a.#.o.m m M n V ( Y Q u y y u 6.c.A.A.m.N.u.8.",
"/.Z.m.A.m.m.0.0.w * t y @ . S A.N.V.6 Z -.C  XqXmXVXBXaX=Xd.U.pXiXmXbXxXnXBXaXk.$.%.o.m M M B b Y.AX0 t y y d w l.N.m.A.N.N.u.8.",
"^.C.M.N.A.m.m.C.m.] + r y r . b N.N.m.j A./ 4XbXmXNX7X].5.;.e.;XaXBXnXnXmXvX@Xo.%. .m n , 1 S AX} = r t f 8 U 6.A.A.m.m.m.N.u.y.",
"^.e.M.m.c.x.B.B.m.B.C.$ @ y r @ > m.N.n V ^ 5XiXvX7X}.Q :.5.,.F.;X7XmXVXNXaXgX;.o.j k 1 X { ZX) 0 r y r + V.B.m.N.m.m.q.N.N.u.8.",
"W.e.m.N.x.A.A.N.N.N.N.B.J + y t @ o S v x Q <XrXrX].7 O.,.I.,.C.D.oXvXVXiX-XO. .V 2 X O D _ ]   @ y @ g x.m.m.N.N.A.m.m.x.m.u.8.",
"W.Z.N.A.m.A.A.N.N.N.N.m.m.J * t y .   X c v |.2X-X^ I ..+.o.@.@.%.@XaXNXdX7XA 2 * * . # ) e 7   . @ J x.m.N.m.m.A.q.q.m.x.x.i.8.",
"W.Z.N.N.N.N.N.N.A.A.A.N.N.N.K : u .   X O c c.5.5.5.:.:.-.-.*.-.:.+.@XdXdX7XE y u * + # + _ ` 7   O m.x.A.m.m.0.m.T.H.m.N.x.H.8.",
"W.e.m.m.N.M.N.N.B.V.G.B.A.N.F.Y.    3 ] D 1 < k k k j k k c < 1 1 & E =XdXoXE t * > X * SXKX` _ e O A.N.m.m.m.B.B.K.Z.B.A.m.H.8.",
"^.Z.A.q.B.q.M.N.B.H.R.q.B.B.B.Y.  Y ) w 3 * @ @ * b B b 6 s i i p i p g E Y 0 4 > X 3 KXKXDXs & K _ e B.m.A.A.A.A.B.V.m.B.A.H.8.",
"^.e.m.q.H.u.m.M.A.w.G.q.B.B.[ ) ) e q > 2 CXKX+ + 5 5 a a a a a a a a a p p - # . A KXKX  % - + = e B.m.A.N.N.N.A.B.A.m.A.B.H.8.",
"^.w.m.q.P.p.m.N.N.V.B.A.A.B.{ ) ) 3 X < > 0 KXKX& & p p a a a a a a a a a 5 % % 4 KXKX  o o m  .& o B.m.B.m.m.N.N.m.B.m.m.N.u.9.",
"^.Z.m.B.I.p.m.N.A.A.N.N.A.N.m.B.w 1 j M < . s KXKX_ # 5 a p a a a a a a 5 . % SXKXKXh . o 2  . .4 4 m.q.q.B.F.M.m.m.m.B.N.N.J.9.",
"^.Z.N.A.G.G.m.N.B.m.B.N.N.A.N.m.c.K j M H : # i KXKXKX& % p p a a a p - .   KXKXKX0 % & 5 3  . . .4 M.Z.K.V.A.A.m.A.m.A.N.N.u.8.",
"^.Z.x.m.B.m.N.N.q.A.N.A.m.m.B.m.m.P ..X.4 i : # s DXKXKX0 % - p a i + . L KXKXSX= $ i a - 5  . . .4 m.S.T.t.q.A.m.N.m.A.N.m.u.8.",
"^.Z.B.B.N.N.N.N.m.m.m.A.m.m.m.N.m.)  .M 4 i a i # - ~.KXKX{ ; + & . 4   KXKXSX& - a a a 5 ; 4  . .6 J ~.e.T.e.x.B.N.m.B.N.N.u.8.",
"^.Z.N.B.m.m.M.N.x.m.m.B.C.m.B.m.M.G  .B : a a a i $ * { KXKXDXJ % $ | KXKX  # 5 a a a a i - 5 < X.< @ [ q.i.w.m.m.m.m.m.N.N.u.8.",
"^.Z.N.m.m.B.B.A.m.N.m.m.0.C.m.N., O. .v : a a a a i ; + J KXKXKX| - # KX} # 5 p a a a a p : ; 2  . .* [ B.B.B.m.m.m.m.C.0.m.u.8.",
"^.S.N.x.m.B.B.m.m.N.m.B.C.R.Z.m.9 2.X.v : a a a a a a 5 # i SXKXKXKXs + . 5 s p a a a a s 5 ; 7  . .* [ B.N.m.m.x.m.N.K.K.m.J.9.",
"^.Z.c.m.m.m.A.m.B.B.m.C.K.P.J.V.}.}.~ S = p p p a p a p $ # = { KXKX~.L & # p a a a a a a i ; }.}.T 8 [ N.B.A.m.x.m.m.J.J.A.u.9.",
").Z.x.q.m.N.B.B.B.m.m.Z.R.t.;X7XeXeX7XR ; p a a a a 5 # 4 KXg $ [ KXKXKX[ & & i a a a s s i ; rX<X:X8 [ B.N.N.m.m.N.m.q.B.N.i.8.",
"^.Z.V.B.m.N.B.K.K.A.N.V.D.w.oX<X5X5X5X4X; i a a i & % h KXKXKX% . L KXKXKXSX4 & p a a a a i ; 5X.XT = [ B.B.N.N.A.A.m.B.N.N.u.9.",
"^.Z.B.B.N.N.B.K.J.A.N.m.m.B.^ OXOX[..X6X; i p i # -   KXKXKX0 . $ + i CXKXKX| g - p a a a i ; ].U 3 % [ B.B.N.N.m.m.N.N.N.M.u.8.",
"^.Z.B.0.N.N.x.B.q.N.N.m.x., :.=.=...C ].8 : - # h KXKXKX` & $ p p : # 5 ~.KXKXSXh = p a a : 6 N v 1 4 { B.m.N.B.m.m.m.m.M.M.e.8.",
").t.K.C.m.N.A.m.N.N.A.c.c.k :.&.=...N F q o = | KXKXKXs # - a a a a - # i L KXKXKXg % 5 5 ; -. .z 1 M.A.N.A.A.m.m.A.m.q.N.M.i.8.",
"^.G.R.D.m.A.B.m.N.m.N.N.N.N.V n .. .n , o 1 HXJXKXJ $ # i p a a a a a 5 # 5 L KXKXKXJ % = O.;. .z c N.A.M.A.A.A.S.B.B.A.m.m.u.9.",
"^.w.q.B.m.N.m.m.m.m.N.M.m.N.M.' z n < X ] KXKXKX5 % * p a p a a a a a a : # * h DXKXKXSXc < X. .z 1 N.m.B.m.A.S.P.G.m.A.N.m.u.8.",
"^.e.q.B.m.N.m.m.B.N.m.m.m.m.M.A.' 1 3 SXKXKXY.k = * p a a a a a a a a a a 5 & & s CXKXKXHXV < , G { M.m.x.m.B.L.p.P.S.B.m.N.u.8.",
"^.V.m.B.m.m.m.N.A.m.V.S.A.m.m.A.6.q SXKXKXS k M ..Z - : a s a a a a a s a i - * % < G KXKXKX' X w v.m.m.m.m.B.T.u.p.G.m.N.N.u.8.",
"^.Z.x.0.m.N.N.B.m.m.D.I.B.M.m.Y.= KXKXJX) X  .&.%. .M 6 = : p a p p : ; - 5 6 B z > > > Y.KXKXZXw 6.m.m.m.N.B.e./.J.V.V.N.N.u.8.",
"^.V.x.m.C.N.m.A.A.N.S.K.B.N.D { KXKXKXq o 1 :.s.>...N N 1 = 8 8 8 8 8 1 :.&.=.=.+.n c > X } KXKXSXq N.N.m.m.m.C.J.S.c.x.N.m.u.8.",
"^.V.c.B.m.m.M.N.m.x.B.q.B.m.3 ] KX} ] } ^ {.OXOXOX].[.[.{.@XB.x.q.K.=XR [.OXOXOXOX[.[.R T 7 KXKXKXZX] Y.x.A.N.F.N.q.N.N.m.N.J.8.",
"W.S.m.A.N.B.A.N.m.m.m.m.A.A.3 e } } Y.A.;X:X3X5X5X5X3X3X:X-Xm.m.v.V.-X:X3X5X5X5X5X1X5X3X:XE ] } KXKXq ) m.A.m.m.N.A.A.N.m.m.J.8.",
"^.Z.N.B.A.S.S.N.m.m.x.m.N.M.3 O K v.A.x.;X>XrXtXeX8XeXeX>X-XB.B.m.m.;X:XeXeXtXtXeXeX8XrX:XB.m.) } KX3 ) A.A.m.A.B.t.p.Z.m.m.H.8.",
"^.Z.N.A.V.I.K.N.A.N.m.x.m.N.e { v.V.V.B.;X}.XXXXXX XXXXX}.-XB.B.m.v.;X}.XXXXXXXXXX}.XXXX}.m.m.m.} O   _ m.m.N.c.V.P.W.u.m.m.u.8.",
"^.Z.N.m.A.t.V.A.A.B.m.m.m.N.A.A.w.p.D.M.] 9 2.3.4.F C F 9 _ m.N.A.m.] 9 2.4.4.5.1.F F C 9 x.m.x.N.A.3 _ m.m.m.m.B.H.G.V.A.m.H.8.",
"^.V.N.m.A.w.B.A.m.m.m.A.A.N.N.m.0.i.D.C.' z ;.a.$. .m m j P m.m.m.A.' , ;.a.a.$.@.m m n , m.N.x.c.M.A.N.N.m.m.m.m.m.m.m.A.B.u.8.",
"^.Z.M.m.m.A.m.N.m.m.m.m.m.m.A.N.m.C.B.m.' j *.a.$.o...m j P N.m.N.A.' , -.;.a.a.%.o. .n , m.m.m.B.m.m.m.m.m.N.A.N.m.m.m.A.m.H.8.",
"^.Z.M.m.B.m.N.m.m.0.N.N.F.m.N.F.N.N.A.m.v.n a.a.a.=.o.M j P N.0.A.A.I B a.$.s.a.s.$.o.n , m.N.m.0.m.B.m.N.M.m.m.N.N.N.m.A.m.J.y.",
"^.V.N.C.V.B.A.B.C.m.C.w.N.m.0.A.e.P , k O.:.$.s.a.a.@.m j P A.' < c O.>.a.a.a.a.s.;.o.n , e.q.A.q.B.S.B.N.m.B.e.0.m.N.w.V.q.J.8.",
"W.t.w.P._.G.V.P.P.V.C.h.V.c.B.q.I.P z 5.;.a.$.&.a.>.o.N z I G.' j :.;.:.s.a.;.a.a.>...n < L.u.v.J./.P.q.q.m.w.T.e.q.A.u.W.p.u.8.",
"W.P.p.^.(.W.p.E.W.p.L.W.p.p.L.p./.P < z x z , k v v z c Y.(.h.' , v x v < x x x x v k S P.P.^.L.E.(.W.L.p.P.L.^.p.p.K./.(.E.E.7.",
")._.`.Q.(.(.).(.!.Q.(.!.(.Q.).).(.~.b.n.n.n.n.n.n.n.n.n._.(.(.~.{ n.n.n.n.n.n.n.n.n.n.~.).`.`./.).).).).!.`.`.`.).!.(.`.`.`.`.r."
};
