/* XPM */
static char *result[] = {
/* columns rows colors chars-per-pixel */
"64 64 128 2 ",
"   c #479C3F",
".  c #499E3E",
"X  c #779F2A",
"o  c #749E34",
"O  c #749D38",
"+  c #4EA53E",
"@  c #4DA83E",
"#  c #51A737",
"$  c #59A437",
"%  c #53A43E",
"&  c #59A53D",
"*  c #55A93D",
"=  c #5CAB3D",
"-  c #5DB039",
";  c #7AA42C",
":  c #67AF37",
">  c #62A73F",
",  c #62AB3C",
"<  c #6AAE3E",
"1  c #71A031",
"2  c #73A13E",
"3  c #71AD3F",
"4  c #65B43D",
"5  c #6AB33E",
"6  c #6BBC3C",
"7  c #75B636",
"8  c #73B63C",
"9  c #7AB63C",
"0  c #73B93D",
"q  c #7BBB3F",
"w  c #6FC338",
"e  c #78C33C",
"r  c #7ACA3F",
"t  c #4B9E43",
"y  c #4B9F4A",
"u  c #529D44",
"i  c #5B9E44",
"p  c #509F4B",
"a  c #589D48",
"s  c #4EA446",
"d  c #4CA844",
"f  c #4EA449",
"g  c #4DA84B",
"h  c #52A444",
"j  c #5AA543",
"k  c #55A944",
"l  c #5BAA43",
"z  c #51A34A",
"x  c #59A449",
"c  c #55A94A",
"v  c #5CAB49",
"b  c #5FB246",
"n  c #5DB14A",
"m  c #4EA351",
"M  c #51A351",
"N  c #60A741",
"B  c #62AC43",
"V  c #6AAE45",
"C  c #61AD49",
"Z  c #6CAE48",
"A  c #65B443",
"S  c #6AB343",
"D  c #6DBB45",
"F  c #63B34B",
"G  c #6BB54B",
"H  c #66B94A",
"J  c #6CB94B",
"K  c #74B544",
"L  c #79B341",
"P  c #73B942",
"I  c #7ABA42",
"U  c #72B44A",
"Y  c #78B54F",
"T  c #73BC4B",
"R  c #7ABD4A",
"E  c #61AB51",
"W  c #71AD52",
"Q  c #66B351",
"!  c #66BA51",
"~  c #6DBB52",
"^  c #73BD51",
"/  c #79BD51",
"(  c #73BE59",
")  c #76C244",
"_  c #7BC345",
"`  c #76C14B",
"'  c #7BC14A",
"]  c #75C154",
"[  c #78C154",
"{  c #75C25A",
"}  c #85BD3E",
"|  c #8BC737",
" . c #8BC936",
".. c #83C33C",
"X. c #8DC53E",
"o. c #86CB39",
"O. c #8CCB3D",
"+. c #93C53D",
"@. c #95CA3D",
"#. c #98C93F",
"$. c #83BD44",
"%. c #82BB4D",
"&. c #84C244",
"*. c #8DC542",
"=. c #8FCD44",
"-. c #84C54B",
";. c #8CC549",
":. c #84CF49",
">. c #8FCD49",
",. c #90C446",
"<. c #93CB43",
"1. c #98CA41",
"2. c #97C74E",
"3. c #93CB4A",
"4. c #81C552",
"5. c #88C653",
"6. c #8DCB51",
"7. c #8DCD5A",
"8. c #98C653",
"9. c #93CA52",
"0. c #98C758",
"q. c #A2D55A",
"w. c #99CA6C",
"e. c #A2B987",
"r. c #BFDA90",
"t. c #C4E499",
"y. c #C6C9BF",
"u. c #F1F7E7",
/* pixels */
"u.q.O.3.@.@.@.@.<.@.@.@.@.@.@.@.<.<.1.#.#.1.3.@.@.@.1.@.1.<.<.+.@.<.+.1.@.<.@.1.@.1.@.@.@.@.@.@.@.@.@.+.#.#.+.@.@.@.+.@.@.+.r.y.",
"t.-.D P 7 5 7 0 D 0 P 8 P 0 P P P L 0 P P P K P L P P D P P P P P P P P P P P P P P P P P 6 P 0 P P P P P P L P 0 0 8 P 0 8 w.e.",
"| = f h s d s s h s @ d d s s s * $ % s h g z h u h h s + + % s s h u h s s s d s s s h s h s s @ s s s s s s h d d d d s d D 2 ",
";.l h h f d d d % s f g s f f s h T v g f f y f z f z f s h s z z z f z f f f f g s s z y z f f f f s g f g h u f f u % s z G o ",
"*.l h j v v f f h h h h h z z h % S B h h y t s h h h h h N & h z h h h s z h t u h h h C x h h h h h z h h z h s s l S l f S o ",
";.k s h / S @ d h h h h j h u s + % h h h h f s s f s s j / B s s s f f s u h u s h j % R S u h h h h h s z h a z j R *.U z Z O ",
" .= m z l j s g f h p x J x z s d . s s f f g s g s s s h B k s s d s d s d f t % s j H G D F h z h f z h s f f g h B V l d 4 1 ",
"*.l g s s g d s g f f = T x h f t s s z s s s s s s f s h s h z f f f s s s f g h f % T , J A u p t f h N i g f s f s t s s S o ",
"X.l f s s s k d s f z h * h s s s s f z s s s h f s s s s s s s s s s z p u % f M f s % % j j z t   d v / * s f h f f t t d < o ",
",.x f h s s @ s f h f s s g f s s z z s s h h s s s t h h h h h s z s s B G x z g f s h g z s z y s s j C * s h f s h p s d V o ",
"X.l f t s s s % h z s f f s h f h f h z g j j s h f t h u h h h z s f s B R & % s s s s m m f y z z z y z z f f h h f z s d 5 o ",
"*.l f s s s % h z f s f g % s t f s h f f F ^ h f s s s % h u h s s z s c S ) j f z s d f f f s h z z z f f z s f s s z s s S o ",
",.k g h s h b n f f s z x G h h h f h f f l S h h z z h j F x h h s s z h x E c f p z g h s d s z a h s s s s s s s h h s s S o ",
";.l f s s s J ! f f d h j ( c g t f z f f h h s f z s % l R S * h z f s h h z h s s h z s @ s s z x j % s s s z g f z & % s S o ",
",.N t t s s & * f d s h & x z s s s z s f s z s s s s c T V R F s f f h s z s s s s h h s s f % 4 r D k h z s s t d s H G y S o ",
"+.> . u s s % s f f g h h h s s s t s f h f s s z f h g J x G v f f z f f s s z g h % l * y f h - w A h z s s d t y s F F s S o ",
",.& z h f s h s s s z s s s f h f s t f z z s s z s s s z % t f f s h s f f s s s s % ` F s s z f z h h z z s s M M g % h s V o ",
"*.l z h d s s s s g s s d s s z s t s h s s f h s s z h s h d f g h % h t t s f s h % b j h h f m z z a z f f f h h s h s s 5 o ",
"*.B B < * s d d d s s g f g z s s s f s s f f h h f s s d s d f h l = % s t s s h z h h s d h s s @ h z z z s s , : j s f h < o ",
"+., / 5.B s g s s s s s f f f s s % % h s f h f f h g s s f d s h G U . d s f d s s h z s s s z z h h z f s s j _ :.A s g z 5 o ",
",.= v A j g h s h C D h h s s f h S &.B g f f z z s s s M f d s % k b @ s h f f s s s z h s s p a B G * f f s * b A k h f f 5 o ",
",.l @ % h h s s h S P B d s s f h T 4.A s s h h s s f f p y d s h h s c h h f m g h f s s s   t x S ` l g f s h s + s u f f 5 o ",
"*.l s u h s s + b R < ) g s h s h j & x g s h s s s s z j u d s z h s s h s g z h h h f s h s u F ] 4 ^ h s s h h s h h f s 5 o ",
";.v f h h s + + v P 0 A h @ h z g h h h h s s s s z s j S x s h z g s s z f s * 4 h h s s s % h v A , A h s h g s f f h f f 5 o ",
"*.k d z s s s h s F ) h % s s f s s f h z s f g s h f x r B f s h g h s f f s % ' l s s f h h h j h % s s s h s f f s % f s 4 o ",
"O.* s h y s z h s h c % g s y s h f d f f z z z z s s x ..B f h s h s s s h z h j h f s s z z u s g f f s h h s s g s @ f f 5 o ",
"O.= g s y u h s f y d @ f d u y h s f f s z m z s s z j S x f s f z h h h s z z z h s s f f h z s g f d s s s f f s s s s s S o ",
"X.k f z f z s g z f f g d s z h f s s g h j g s f f s g z g h s h f h * h h f h s s s s h f s h s f s t s s s s z * h s t t A o ",
"+.k f s g f f f z z p z f f f f z h % % F H s s s h z h f f h f h p F ~ h f h f h s t t f f s s s h s s h s s @ % J b h s t A o ",
"+.= s h d f f f h j C h z z g s s f h h F A h f f t s s s h s f h z C F h h s s s f t s s h s f h h u s g s s h h J B h h f S o ",
"*.k h s h h d f h A T * h h * h s f z p x h z z s t s z f z s h h h % % u s z s s f g s s % % s s h h s z s z z z h h z h f 4 o ",
"*.= s * A < s f h j n % h h J l h f f M h h M z s s s f s s s s g f s s z s z s z f z h h F V s f s h s s z f z p h h s z f S o ",
"*.= s % T 3 @ m p h z z f j R & s f f f h s f s s z f s s f s f s f s f f f s s f z f h s G V h f f s s h s s f f s s s h f A o ",
"*.k f s T 8 s f h h f f f f j h s f t t h z f z s f h s f s f h d f f s s s s f f f f z z z h z f s g + % s m g s s s s f f V o ",
"*.l f h C N s d h h f h f f h g f s f f s s z g s h h s h h f z s s s s s z s z f s s s f f z s s f s l D j f h s s f h f f S o ",
"+.l f h h h m d h h f h f s g h s z z h s s f s s f z * & % f f f s h f f s s s s h h f f z s s s s d v ' N % s s h h z f f 5 o ",
"*.l f h s f f f s h f h h s s s s f z h % s s h f s z j ^ l g f f h * s z s s z h j @ s f h s s f s s % = ' & h s s s h z g 5 X ",
"*.l f h f f f f t t f s h @ s s h f g s + s s g h f s % F j h f z C B s z s s z c F j g s h z f s f z h j A j s s z s s f f 5 o ",
"*.l f t s h h h s t f h d c h s s g s h h h z s s f s h s s s f s J T k s s g h c R v f f h f h s f z z s h h s s s s % s d V o ",
"*.l t s s h h h g g s h * ] j s s h s H F + s f h h g f f f h z h $ J J % z h z s = * f s u z f z s z f s f s s t s s J F s S O ",
";.l y s s f s s h f s j F P S k f s s A P = @ g s s s f f s h p h h C F % u z h h s d f f f f f z h h g z f f s t s s V S h S o ",
"*.B u h s s h h * g h v { , [ c f s @ u G D f g t d s s g s h z z h u * h z f f f f f d f s f g z h h h h h f f s s s % h s A o ",
";.l c h g f h G G u s c n $ l c s h f h l j s z h g d s s s s z f f s h s f f s f f f s h h d d h p B ^ h h f s z h f h f f 5 o ",
",., h % s f h F G h f h h h h h f f f h h M s f s z h % h s s g f f s s z f s s m f s h l k d s z h B U h s f f s g s g g f 4 o ",
"*., % + f z h % % z f t   d s s z f y f f f f s s s h h h s f d d s s   u z * h y f @ h R S % s s f s % h h f s g s s s g d , O ",
",., Q v s f s s f z f f t f g g z z h f f s f z g h c ! j g f s d s u t h v G * z f h J S P F % s f f s g s f h s h z h d d 4 O ",
";., ~ n s f f f f s f f f f m s l x h h d s s h g s c ~ k s f f s h s h u C ( & h h z T 5 P b s s f s f z z z g c & u s s s 5 o ",
"*.= % h f s s s s s s f s s f j T C p f f g z f s s f c % @ z f s f f z h h h h h z c & ` A * d s f f s s s z j R C h h s g S o ",
"*.= % j s s f z s s s h s s f h A v z f f f s s g s s h h h g f f f f f f z u h h g z + B j s h f f f s s s h S 9 U l h f f 5 o ",
";.k s s s s s s z s h x h s f h % h z h s j j s s h f s s h s s g s h g f z z z z g s s s + s s s f g t t s j R 5 q B d f f 5 o ",
"*.j . + s s f s s h v ( h s f z % s h h @ A ~ h f h s s h f f t t h * z f y y z z s s g g f h f h f h s s f h = &.V j s f f 5 o ",
"*.l t t g h s h f g l G h s s f s s f f % b G s s s f z f z f s s l , j z z h f s h s h s h f f f s z f s h g h S v s h f f 5 o ",
"*.v y h s z s g s s h % h s s z h s y y z u x h s z h f f z z s + G T h s s s s f z h h h s f s h j h z s s f f g u z f s f S o ",
",.l f s f z z f s s h s s h f f f h s g g h s s s s s s s f f h h h k h s s h s f z s h f s s h A J h h z s g d s h z z h s A o ",
"X.l f h h v c z s s t s s h h f M M z s h f f z z s h C & h f s s s h d s s t f s g n k z s s s v G h f s s s z h < 8 l s h A X ",
"*.l f h j ~ ! z z h s t t s s f p i h s f h f z f s k [ > % s h s s z h s s t s s l ] n z h s h c h z h s z f M h ' O.5 y s A o ",
",.l f s h l k p z s s s f z f h % 8 n c s s s y s s h , R x s g s h s s s s s s g j = k z h s t t z z z s f s d % l B x h s S o ",
"X.k f s h & * f s s h f s f f s # 6 b z h g s s t h h & ~ c h h s g z f z s f s h z % % p h f t y f z s s s s d d s s s h s A o ",
"X.l f s z h s f s s s h f f z f g h h g f s g s d s f h h z z h z z g z f s h f s f s s z s z s h s s f f s z z f h s s h s A X ",
"*.l f s h g f s s + f y f s f M f g z s s s s s s y f h z p z h s z h h g s f y s s s d f s g f @ s s h s s h h f f f z f f S 1 ",
"*.l g j = h z * j h h * f s @ h l k l l k k z f f h x * z v M z h j j h s @ f m l d @ s s * j y % = x s f s s l @ s d j x * S X ",
"X., $ U 5.Z x U Y h l e z p h j R 4 P W W K u M u - ) & x ) F z j Q ^ h z f @ = e l s h % D 5 i V -.T h % s * P - + y 8 *.8 V O ",
"O.I 0 X.1...9 } X.7 0 o.0 8 K 8 &.R *.$.....L U 8 9 ,.q P o.I K 0 ..R 0 P 0 8 9 X.P U L K %.} L $.1.| K 7 T P *.q 8 J &.1...} X ",
">.7.6.1.<.<.>.<.@.@.<.=.1.@.1.3.1.3.3.@.<.<.<.@.+.1.8.3.6.<.3.@.@.<.>.>.3.@.<.9.2.=.=.@.@.0.6.>.3.<.1.3.<.9.9.2.2.@.=.9.0.6.9.; "
};
