/* XPM */
static char *result[] = {
/* columns rows colors chars-per-pixel */
"64 64 59 1 ",
"  c #222A43",
". c #252D48",
"X c #2C344E",
"o c #2E3554",
"O c #2F3A51",
"+ c #313A53",
"@ c #363E59",
"# c #36415E",
"$ c #3B425F",
"% c #364465",
"& c #3A4464",
"* c #3A4866",
"= c #374568",
"- c #3A4568",
"; c #3D4A6B",
": c #424F6E",
"> c #42506E",
", c #434E70",
"< c #455374",
"1 c #495375",
"2 c #495876",
"3 c #465478",
"4 c #495478",
"5 c #4E5D7C",
"6 c #515B77",
"7 c #515D7E",
"8 c #52617F",
"9 c #515E80",
"0 c #566483",
"q c #5A6685",
"w c #576A86",
"e c #5A6986",
"r c #576788",
"t c #5A6789",
"y c #576A89",
"u c #5A6989",
"i c #606F8D",
"p c #63728E",
"a c #657492",
"s c #687695",
"d c #6A7896",
"f c #6D7C9A",
"g c #72819E",
"h c #79859F",
"j c #7483A2",
"k c #7986A4",
"l c #7789A5",
"z c #7A89A5",
"x c #7C8BA9",
"c c #818AA6",
"v c #818EAC",
"b c #8391AD",
"n c #848FB0",
"m c #8593B1",
"M c #8897B6",
"N c #8D9CB6",
"B c #8D9CB9",
"V c #909BB7",
"C c #909CB9",
/* pixels */
"$@@@#+OO+O#OOOO#$#+$$XooooX. XXOXOOO++$+@@@@@@@@oo+OOOOO+O######",
"zccccxzcczzzhcccccccc6$$####$pcccccccccccccccccccczzzxczczzxhlzh",
"VCVVBBNBNNNBNVNVVVNNV8$&%&***gCNVNNNVVVVVVVVCCCCNNNNNNBBNNBNNNNN",
"kkxxxxzzzzzlzzzhzzcccp88&%:>1dxxhzzxzzzzxxxxvxxxmNcggzxxzzzllzzh",
"iiqttteeeeeeweeeeeeeezCn>&,tiiqeeweyeewyuuuuuytpbNg#*6quiewi88p8",
"87ttttteeeepeeuyiee8ezVn:%,itttyryeewwweuuuuutepbNg$*6ieeee8i8g8",
"iqqtyyyueee8wgxxxzgw8cCn:&<tttttyryeyyryyutuuuuugg8888iwee8ipp88",
"iqqqetuuueei8zNNNNzeizCn:&<ttttteyuuqquyuqyuuuue88piwwwieepp88p8",
"uuyueeeweeueegmmmmhwegnk<=3tueeuyuuuuuuueeuuuueuyyeteuuueeuyytuq",
"quuueeeiyeeeepeiupiweiii*=3tuyeeuqueeueuuueueuuuqettuueueeuuuuee",
"uuyuee8eeeeeeweweeqyee00*=<tueyyuuueeuuuueuueueutyeeeyyyeeuuqqei",
"qtyeefgg828eeewiuuueesgf;=2uuyeeueuuuueuuuueuuuuueajjq32eeuytei8",
"tttyezNm>%<ueuuuuuyeuzBm:%<tteeteuyyquueueueuuueuugBBw%*eeeeyteq",
"qtytehNx>*2euuiuuuueujNx<%<ttteteueeeuueuuueueueuefNN0%*0eewyuee",
"qeueipdp880yytttuueuepsp;=<rtt9ieeueeeuueeyyuuuutrfNNr#*weeieiei",
"qiee8wwwwweeyyyteeyeqyer;=<tttityeeiyeeyieeyyeeyerfBNw#;8eewe8i8",
"qitiqqqqtyyyytuuyytyuw95-&,999tt950tyyyyyuyeteetrufxxy;3reuyyyte",
"qqttiqtttttttututttyu3=-&---,9i9;=<rutttqeyeyyyetyuuiyyyttttiyuu",
"qtttttttttttutututitt3-----&-9t9;=<tuuttuueeeuetttityyyyttttttui",
"144114333333433343334;----&&-,41==,344<21411<4><33339;222<334111",
"&&&&&&&%&&=&=&&&%%&%-%%&**&$%$%%*%==*&&&*%*%=&%%==**==**&&&=--%&",
">::::::>,:,::::>,:::,:::>>>:>>>>;<;>>**=*&*&%:::<;2;;;;2>::>,,::",
"cvvvvvvvvvvvvvbbvvvvvbvxbxzbvxbbvvbbb8&*&%%&&sbbxxmxxxMxvcvvbbcc",
"VVVNVNNNNNBNNBNNBNBNNNNNNNNNNNNNNNBBC8##*&&%=jBBBBNNBBNNVVNNNNVV",
"kkkzzzzzzzzzzzlxNNmzlzlzzhzzzzzzzzzzza00*&;<>dxxzzzzhlzzzhzzlzzh",
"iqqqtqewewweeeeebBzeee0eeewweeeweweeqzBb>%<qteyywweeeeee8wp88i88",
"iqqqteqqeeeeertamNzeeeeeeeweeeuyeeeeezNb>&<ttyeeeeeeeeeeieiip8p8",
"8iqutqttweeeeeeussateeeteeeeeetteeweezBb:%<qetyeeeweeetuhzg8pp8p",
"8iqtti9ieeuuuuuuwruuuuuyeeuuuuuup88gezNb:&<eueeueeteuuypmNxywwiw",
"8iqittiittuuuuuuttuuuuuuuyuuuuuupp88ezNb>#<quuyyettyuuuaxbhywwee",
"88iqttt9tytuuuuuyyuuuuuuuuuuuuuui8p88hNb>%1uueueuuyuyuwtiiuteeei",
"iiqiititetyuuuuuytuuuutuuyuutyuuwi8p8zNb>%<euuuyuytutteeeweteei8",
"iutteeeqttttuuqyeuyuuuyeeuuyyyutieueezNb:%<qeteteyuuuueeeiuuuuyq",
"iuyyeeuqttttuuuyuueuuqutyyeeuyutyeueezNb:%<qetyyeteeueuuqqyutuee",
"9ityyyuieqrttuteueueuequueuuuuttyueeezNb>&<tyyeeiuueuueueuuutqei",
"qiyewhbx2;,,,9ytuuueuuuuuuuquuetuuueexCb>%>eetypxbjueuuueeeuteee",
"qqtiwzCm<%%%=5rteueuuuquququuqitytyeezCb>&<tytypMBxtyeeuuquyttee",
"qqi9wgxz4;,:,0ttuueuuuuq087870qqeeeeeflg:%:88wwixxjtytuueuutyyei",
"ii9iequuetttttttuuuuuut0;&&&*7qeeetee<*;&*=**5ttuuuyuuquuequqee8",
"q9iteqiuutttutytuuuuuutq;&&&*7qeeeeet<&*=&*=&5twutuuuuuuuuuuueii",
",1411,44<<1<112<42<2<<4,*&%%-,111<112;=--&--*;24111<<<2221114<41",
"$$$$$&%&*%%%%&&==&*%%=%%%&&-%%%%*$*#*=======*$=%=%===%%*&&&&%&&&",
"1,,,::,,>>;>:;&&*&===;,,>>;:,<:>>,>><;>;::::;>>>::::::>>,,,><,,,",
"cnnnbvvvbbbbv8=====&-smvbbbbvbvbbvbvbmxmbvbvbbbbbbvbbbbbnvnbvnnc",
"CBBNNNNNNNNNN8%=%&*&%fVBNNNNNNBBBNNNBBNNNNNNNNNNNNNNNNNNNNNNBBBV",
"klzzljzzlzlzzp00;&;<<dzjhllllzlzlllzlmNNgfgzzlhzjzhzzhzhzzzxkzkk",
"ttqeweweewwwezCb>*>eqqueeeweweeyttewehNx>*;wwwweweweeeeeiwe8wwqq",
"qt0wwwwweeeiyzNb>#>eeeeewewewweerrwewzNx>*<wwwwwwewwwewee8e8wwqq",
"qtteetetyeueuxBb>*>yuyuuuuuuueuuueeeepdd080ueuuueyuutyewyqeyeeee",
"qqweweyeteuyexBm;*<yuuuuuuuuueueeuuyeweetueeuueeteeuertteeyryteq",
"eeysptyeyeuuujmz>%2uuuuuueueuuueuutettueeyuuuuuutwudaaaa08wtuqei",
"eefmNdetquueeyit*%<yuuuuuuuueuuuueyeyeueyeeuueuettfNMMMx1*<euei8",
"0efBNdeyueteyeur;%<yuuuyeuuuueeuuuueuuuuuuueeuuueefBBBBm>#<tuyeq",
"qesggaetuuyeeut0*%<wuuqeeueuuuuuueuueueuquuuuueuuyajjljg525yetee",
"qqeeeeteeueytttw;%>eeetyueuueeueuueueuuuuuueeuuueyuerytteuytqeei",
"eeeyeetyuutyettr;%2ieeytuuueuuuueeuuuueueeuuuueeteetttyeeeeteei8",
"eeee0qqqqeqqqii9,#,ttqttiytyyyttuutttiytttttteyyuuqyiuuueeuuuei8",
"eeeweqiiiqiii9i9--,tuttyttytyittuutyyyiytieeyeyyuuuuyuuueqquuq8i",
"eiewe899qqiqi976---99qttytyityttuuitttyyi9i9e059yuuuuuyuiquuiii8",
"qqtww2*;qutt91-------7ttyytttttttuyyttty9itiu2*;euyeuyweqquuip8p",
"qttrq<=;9ttti,-=-----6tit9ttttttti9itttiitttt4&:reeeweeettttqutu",
"1432<:&*14111,-------,14934414111141334,44144;--<>221<2><33,,,11",
"&&=&&&-$&&$-&-$--$$-$-&$&&---$&&$&&&&$-&&--&&&&*&$#*&$&$&&%=-$&:",
"$&&&$@:@:&&$$$-$-$--$$&&&&&$$&$$&$$&&&&&&&&-&&&&$&$$$&$&&&&&&@:@"
};
