/* XPM */
static char *_24407530fbb44e6ecb53fa8c55eeb3cX1kxP09FWie3mMes[] = {
/* columns rows colors chars-per-pixel */
"64 64 245 2 ",
"   c #3B3E34",
".  c #5B381F",
"X  c #483827",
"o  c #4F3A2F",
"O  c #633626",
"+  c #6D4C1A",
"@  c #6F5517",
"#  c #5A4827",
"$  c #564C34",
"%  c #4F513A",
"&  c #6B4924",
"*  c #724D25",
"=  c #6F542D",
"-  c #6A5835",
";  c #795D37",
":  c #556931",
">  c #6F752E",
",  c #7A6738",
"<  c #514E48",
"1  c #715A50",
"2  c #6F664A",
"3  c #766961",
"4  c #82501A",
"5  c #AC571C",
"6  c #AD5D1C",
"7  c #BB5417",
"8  c #936E14",
"9  c #B2661B",
"0  c #865726",
"q  c #855836",
"w  c #A14F24",
"e  c #A85A2A",
"r  c #B85628",
"t  c #AC5C36",
"y  c #B55B35",
"u  c #8A652D",
"i  c #9B682A",
"p  c #9C742C",
"a  c #9A6932",
"s  c #867935",
"d  c #8C7238",
"f  c #A66729",
"g  c #AE6F2B",
"h  c #A3742B",
"j  c #A9643C",
"k  c #C44D14",
"l  c #CA4F14",
"z  c #C2541D",
"x  c #C95A1A",
"c  c #DD5417",
"v  c #D75719",
"b  c #D45A1A",
"n  c #DB5C1A",
"m  c #E25C14",
"M  c #E15E1B",
"N  c #C3631E",
"B  c #CA681B",
"V  c #D8641C",
"C  c #D37517",
"Z  c #EC720E",
"A  c #F57A0A",
"S  c #F57B0A",
"D  c #E66618",
"F  c #E97618",
"G  c #F97A16",
"H  c #F37D1B",
"J  c #C65A26",
"K  c #D55A25",
"L  c #C75E32",
"P  c #C46228",
"I  c #D46124",
"U  c #DD6523",
"Y  c #DC6B28",
"T  c #DF7426",
"R  c #E16624",
"E  c #E46A24",
"W  c #E56A2B",
"Q  c #EB6D2C",
"!  c #E9742A",
"~  c #F57F22",
"^  c #AF5E40",
"/  c #957148",
"(  c #8C7A54",
")  c #9B7758",
"_  c #A26945",
"`  c #A96A55",
"'  c #B36F50",
"]  c #A6735A",
"[  c #84756C",
"{  c #977A65",
"}  c #A27366",
"|  c #C17043",
" . c #489E3E",
".. c #5D9B3E",
"X. c #788928",
"o. c #759F2E",
"O. c #688B3B",
"+. c #778632",
"@. c #65983B",
"#. c #739234",
"$. c #759F31",
"%. c #4BA33B",
"&. c #4DA63E",
"*. c #4DA93D",
"=. c #57A738",
"-. c #52A63D",
";. c #54A93D",
":. c #5BAC3D",
">. c #5FB03F",
",. c #76A32A",
"<. c #63AB39",
"1. c #62AC3C",
"2. c #73A335",
"3. c #66B43E",
"4. c #68B63A",
"5. c #6AB43D",
"6. c #77B83A",
"7. c #74BA3D",
"8. c #75C739",
"9. c #479F40",
"0. c #4B9F44",
"q. c #569E46",
"w. c #5B9C42",
"e. c #5B9D4A",
"r. c #5E9B51",
"t. c #7B8849",
"y. c #659848",
"u. c #778B55",
"i. c #7C8B5B",
"p. c #669851",
"a. c #739055",
"s. c #4EA645",
"d. c #4CA844",
"f. c #47A748",
"g. c #4DA64A",
"h. c #4CA94A",
"j. c #51A543",
"k. c #53A942",
"l. c #5BAC43",
"z. c #52A34A",
"x. c #58A748",
"c. c #5DB247",
"v. c #4DA552",
"b. c #50A550",
"n. c #62AD44",
"m. c #68A847",
"M. c #6DAE4B",
"N. c #64B444",
"B. c #6AB443",
"V. c #6DBA44",
"C. c #65B64B",
"Z. c #6AB64B",
"A. c #6CBA4B",
"S. c #75B543",
"D. c #74BA41",
"F. c #77B948",
"G. c #6CBC51",
"H. c #76BE53",
"J. c #6EC045",
"K. c #7AC344",
"L. c #77C24A",
"P. c #76C255",
"I. c #94811F",
"U. c #8D8A30",
"Y. c #86BC3B",
"T. c #F98208",
"R. c #FA8A0A",
"E. c #E88912",
"W. c #F5831E",
"Q. c #F88819",
"!. c #FA8B1E",
"~. c #F6961A",
"^. c #F6A515",
"/. c #F6AA15",
"(. c #F9A21E",
"). c #F7AC1A",
"_. c #F18D27",
"`. c #FB9925",
"'. c #FA9C38",
"]. c #F8A927",
"[. c #F3A92F",
"{. c #FBB42C",
"}. c #FBBD32",
"|. c #F8B836",
" X c #8EC63E",
".X c #8AC839",
"XX c #95CA37",
"oX c #95CC3B",
"OX c #96CB3D",
"+X c #99CA3C",
"@X c #95D036",
"#X c #FBC139",
"$X c #8F8E4E",
"%X c #868559",
"&X c #B6894D",
"*X c #83BD49",
"=X c #8B8362",
"-X c #908D61",
";X c #B1906C",
":X c #BDA472",
">X c #CA8D4B",
",X c #FB9A46",
"<X c #F0984E",
"1X c #CBA258",
"2X c #F4AA4C",
"3X c #FDB94B",
"4X c #FCB654",
"5X c #F29E64",
"6X c #CEA972",
"7X c #F9AA6C",
"8X c #F9B767",
"9X c #F2AF74",
"0X c #8DC643",
"qX c #8BC847",
"wX c #8DCD4E",
"eX c #91C642",
"rX c #94CC43",
"tX c #94CC4B",
"yX c #96CA52",
"uX c #9FD163",
"iX c #FAC94A",
"pX c #FBD244",
"aX c #FEC25B",
"sX c #FCC766",
"dX c #F9CB65",
"fX c #F8D069",
"gX c #FCCB79",
"hX c #B0AD86",
"jX c #CB9C87",
"kX c #F3B894",
"lX c #D1BAA2",
"zX c #FAC887",
"xX c #FBD598",
"cX c #C5E59A",
"vX c #F2C9A7",
"bX c #FDDAA4",
"nX c #F7DBBC",
"mX c #FAE7B1",
"MX c #C7CAC0",
"NX c #F8DEC2",
"BX c #FAE9CA",
"VX c #FBEBD5",
"CX c #FBF1D8",
"ZX c #FAF4E6",
"AX c #FDF8F4",
/* pixels */
"ZXuXoXrXXXXXXXOXrXOXoXoXoXXXXXrXrXrX+XXX+X+XrXOXOXOXOXOXOXrXOXOXOXOXOXOXOXOXOXOXOXOXOXoXXXoXoXoXoXoX+X+X+X+XOXoXoXXXoXOXXXoXcXMX",
"cXqXV.D.6.7.7.7.7.7.7.7.7.7.7.D.D.7.6.7.D.D.D.D.D.D.$XS.D.D.D.D.D.D.D.D.D.D.D.D.D.7.D.D.7.D.7.7.7.7.D.D.D.D.7.7.7.7.7.D.7.7.uXhX",
".X:.g.j.&.d.d.s.s.s.s.s.s.s.s.s.;.=.-.s.s.s.s.s.j.> } q.&.&.&.s.s.j.j.j.s.s.s.s.s.s.s.s.s.s.s.&.s.s.s.s.s.s.s.&.*.d.d.d.f.*.5.2.",
"0Xl.*.k.s.*.d.d.-.s.s.d.h.s.g.g.j.A.c.h.h.g.s.u.s r u.z.s.j.s.h.g.g.g.g.g.g.g.g.g.s.s.g.g.g.s.s.s.s.g.g.g.g.s.j.j.g.j.-.j.g.B.$.",
"0Xl.j.x.C.l.g.g.j.j.j.j.j.j.j.j.-.B.N.j.j.s.u._ x ^ w.j.-.n.:.j.j.j.j.j.j.j.j.i.j.j.j.j.n.x.j.j.j.j.j.j.j.j.j.j.s.s.>.5.l.g.B.2.",
"qXl.&.j.P.5.*.d.s.j.j.j.j.j.j.s.&.=.-.s.s.s.{ t x t.j.s.-.H.n.s.s.s.s.s.s.j.j.u.a.j.k.-.H.B.j.j.j.j.j.s.s.s.j.z.z.j.F.eXS.j.B.$.",
".X:.v.z.l.:.d.f.g.s.j.l.G.l.j.s.d.&.s.s.s.s./ x y w.s.d.j.n.l.s.d.d.s.s.d.s.h.j.{ s.j.V.V.A.N.j.j.s.s.s.j.j.g.g.g.d.1.B.l.d.3.,.",
" Xl.g.s.d.s.d.d.s.s.z.:.D.x.s.s.s.s.s.s.s.s.i E r %Xz.s.s.s.s.s.s.s.s.s.s.j.%Xi _ g.j.F.1.$XN.j.g.s.s.j.1.j.g.s.s.s.s.s.d.d.3.$.",
" Xl.g.s.s.d.d.d.s.s.z.-.;.j.s.s.s.s.s.s.s.s./ L K y w.s.s.s.s.s.s.s.s.s.z.%Xy z r g.s.=.%Xp.-.j.0. .*.l.P.;.d.s.s.s.s.0.%.d.3.$.",
" Xl.g.s.s.s.&.s.s.s.s.s.d.s.s.s.s.s.s.s.s.s.y.e W P ..s %Xj.s.s.s.s.s.s.1.y z Y _ d.s.x.{ z.j.z.g.s.s.k.N.-.s.s.s.s.s.s.d.d.3.$.",
" Xl.g.s.s.s.k.s.s.s.s.g.g.d.s.s.s.s.j.g.h.l.:.O.P r ..r ^ %Xj.j.s.s.s.s.%Xr Y ' p.s.s.w.j g.g.z.g.j.g.g.j.g.g.s.s.s.s.z.s.d.3.$.",
" Xl.s.s.s.s.&.&.k.g.s.g.z.%.s.s.s.s.j.s.g.C.H.j.O.e w.x I L %Xj.s.s.s.s.{ r U y.g.j.s.w.r p g.s.s.j.g.g.g.g.g.s.s.s.s.z.s.d.3.$.",
"0Xl.g.s.s.j.c.c.s.h.d.z.x.N.k.s.s.s.j.g.g.l.B.j.s.) x.#.n V j %Xj.s.s.s.p.r ' j.g.j.j.w.r I h i.s.z.j.s.s.s.s.s.s.s.s.j.s.d.B.$.",
"qXx.g.s.d.s.Z.G.s.f.d.j.l.P.x.s.s.s.s.s.s.s.-.s.s.p.j.-.v J I y %Xs.s.s.j.` p.s.s.s.s.z.+.J W _ i.x.;.-.s.s.s.s.s.s.s.;.-.s.B.$.",
"0Xl.0.&.d.s.=.;.d.f.d.j.;.l.s.s.s.s.s.s.s.s.s.s.i.z.s.x.v r Q I t s.s.s.j.p.s.s.s.d.k.j.w.' W Y h 8.J.;.j.s.s.s.f.d.s.A.Z.s.B.o.",
"XX1. .&.s.s.-.-.d.g.s.j.k.j.s.s.s.s.s.s.s.s.s.s.p.j.s.i.r b ~ E ` s.s.s.s.s.s.s.s.s.-.>.x.t.I Q f 8.V.j.j.s.s.*.s.d.d.N.C.s.B.$.",
" Xl.z.s.d.s.k.&.d.s.s.s.d.d.s.s.s.s.u.e.s.s.s.s.s.s.i.j b H G E } s.j.d.d.s.s.s.s.s.=.L.m.) J W a z.j.j.j.s.s.d.z.b.s.-.j.s.B.$.",
"0Xl.g.s.d.s.s.s.s.s.s.s.d.s.s.s.s.s.e.j.s.s.s.s.s.i.j b H G D ' p.j.-.s.d.s.s.s.s.s.-.3.@.y U W a g.j.j.z.s.s.g.j.z.s.s.s.s.5.$.",
" X1.n.5.:.s.d.d.s.s.d.s.g.s.s.s.s.s.s.i.x.s.s.s.s.j b H G D ' p.k.l.<.-.s.9.s.s.s.d.j.w.) J W P %X*.j.z.z.s.s.j.<.4.l.s.s.s.5.$.",
" X<.H.wXN.s.s.s.s.s.s.d.g.g.s.s.s.-.%Xj w.s.s.s.s.e n G D n y.s.&.A.A.=.s.s.s.s.s.d.s.w.y v K ) r.s.j.j.g.s.s.;.K.qXN.s.g.s.5.$.",
"eX:.c.N.l.s.s.s.s.n.V.k.j.s.s.g.*.V.g ` e.g.j.z.=Xe W W.D l s.s.&.l.c.*.6 s.g.d.s.s.s.w.K ] @.e.x.1.V.k.g.d.&.-.l.N.l.j.s.s.3.$.",
"eXl.&.-.k.s.s.s.j.B.K.1.d.s.s.d.k.h b r ( z.j.s.{ y Q E D k s.s.j.k.s.6 7 s.g.g.g.s.s.w.] e. .0.l.B.L.:.s.d.s.k.-.%.s.j.s.s.3.$.",
"qXl.s.j.j.s.&.&.N.F.5.K.d.s.s.d.s.6 n W K @.j.s.e.) y Q R c { j.k.s.6 c b s.g.s.j.s.s.j.e.s.&.s.C.P.4.P.k.s.s.s.d.s.s.j.s.s.3.$.",
"qXl.s.j.s.s.&.&.l.S.6.N.j.*.s.d.s.i I E J P @.s.s.e.) y Q R J j.g.6 c H v g.s.;.4.k.s.s.e.%Xj.j.l.N.<.N.k.s.s.s.s.g.s.j.s.s.3.$.",
"0X:.s.j.s.s.s.k.s.N.K.d.;.d.s.s.s.a z W R r y.s.s.s.q.{ r r r { s.k W.m w.g.s.=.K.l.s.s.e.=Xj.j.j.k.-.;.s.s.j.s.s.g.s.s.s.s.3.$.",
" X;.d.s.s.s.s.k.s.j.k.%.d.s.0.s.s.q.f v Q r y.h.s.s.s.m.Y.m.} t s.k !.{.N s.s.j.l.j.s.z.=Xz.j.j.j.k.h.f.d.j.j.d.s.s.d.s.s.s.3.$.",
".X:.s.s.s.s.j.s.s.g.d.&.d.*.s.s.s.s.j.f U U y.g.s.s.s.j.3.l.q.} s.k !.}.H N g.z.z.j.s.s.z.s.j.j.s.g.g.f.s.s.s.d.g.s.s.s.s.d.3.$.",
" X:.g.g.g.j.j.s.s.g.g.s.d.d.j.j.s.s.d.a v Q y.s.s.s.s.s.j.s.s.e.s.r l !.^.~.N s.s.s.s.s.s.s.s.s.s.s.d. .s.s.s.d.s.;.k.s.s.s.3.$.",
" X:.s.s.g.g.g.s.s.j.j.g.g.g.g.g.s.s.*.=.N Q @.s.s.s.s.s.7 j.s.s.s.q.7 c /.}.^.x s.s.q.=Xs.s.s.s.s.j.s.s.s.s.s.*.-.A.N.&.s.s.3.$.",
" X:.s.s.s.f.g.g.j.:.l.j.j.g.f.d.s.s.-.9 U Q @.s.s.s.s.s.7 q.s.s.j.j.m.r !.).}.v s.q.=Xj.s.k.s.s.s.-.j.s.s.s.s.s.j.Z.N.j.s.s.3.$.",
" X:.s.j.;.;.d.g.j.N.P.;.-.j.k.s.s.s.a I Q J y.s.s.s.s.6 ..s.s.s.k.j.-.r !./.}.v s.w.f s.s.j.-.s.s.-.j.s.s.s.s.g.z.j.j.s.s.s.3.$.",
" X:.s.;.N.3.d.g.j.:.N.-.s.;.A.l.j.g.a W J O.g.s.s.s.f k j.s.s.s.d.g.s.r !.}.|.v w.r { s.s.C.B.s.g.s.s.s.s.s.s.g.z.j.j.s.s.s.3.$.",
" X:.s.;.F.6.;.g.j.j.j.s.g.l.D.:.j.g.=XK r @.g.s.s.e r w.s.s.7 j.d.g.d.c !.}.^.v ..7 g.s.d.Z.B.s.g.s.s.s.s.s.s.g.g.-.s.s.s.s.3.$.",
" Xl.s.s.H.S.j.d.j.s.s.g.g.s.k.j.s.s.s.=Xt @.g.s.e v c ..s.s.7 j.s.s.d.c !./.^.v ..k z { s.j.j.s.s.s.s.-.-.s.v.s.s.s.s.s.g.g.B.$.",
" Xl.s.s.n.1.s.d.j.s.s.s.s.s.s.s.s.s.s.s.s.s.g.N c ~.m ..j.7 j.s.s.s.k c !.^.W.v w.z c 7 g.g.s.s.s.s.d.l.V.l.g.s.s.s.s.j.g.g.3.$.",
" Xl.s.s.j.j.f.g.j.s.s.s.s.s.s.s.s.s.g.s.s.{ K F {.).m @.=.v j.g.s.c c !.}.W.7 s.w.J R K { s.s.s.s.s.d.x.K.1.-.s.s.s.s.j.g.g.3.o.",
"eXl.s.s.s.h.g.d.s.s.s.s.s.s.s.s.s.s.g.s.s.f _.}.}.D ..=.n c j.g.c !.!.}.^.W.e s.j.@.c U 6 s.s.s.s.s.s.-.<.L.:.s.s.s.s.j.g.s.4.o.",
"eXl.s.s.s.d.s.s.s.s.s.d.d.d.s.s.s.s.s.s.&.N ~.iX#XD ..B T.c j.q.!.!.}./.W.z e d.x.] E Q 6 j.s.s.s.s.g.-.j.N.-.s.s.s.s.&.s.s.3.$.",
"eXl.d.s.s.s.j.s.s.s.s.s.*.k.s.s.s.s.s.k.k.N ~.}.|.M ..E.^.m ..v /.}./.^.W.v j.s.y.J Q U 6 j.s.s.s.s.z.j.s.s.s.s.s.s.s.;.*.s.3.$.",
"eXl.s.s.s.j.j.s.s.g.s.k.:.P.l.s.d.s.s.C.C.N [.iX].V ..E.^.T.c ! /.}./.!.W.! 5 j.@.c U k a s.s.s.s.s.s.g.d.g.s.s.s.s.s.Z.C.s.B.$.",
"eXl.0.s.d.s.s.s.d.d.s.;.Z.D.V.k.d.s.&.N.D.N [.].(.V #.E.^.R.m H ).}./.!.!.! 5 j.w.r b a s.g.g.s.s.s.s.d.d.s.s.s.s.s.s.B.B.j.3.2.",
"eXl.s.s.s.s.s.j.;.s.s.l.P.<.P.x.d.s.*.j.Z.C ].(.}.T b A ^.}.R.m 3X}.).!.^.W.z s.@.e f d.g.s.d.s.s.j.j.-.j.s.s.s.s.s.s.-.-.s.3.2.",
"0Xl.j.j.d.g.j.Z.Z.j.s.k.c.=.l.k.s.s.s.j.l.B ~.(.}.[.V A ^.iX).R.W.#XaX^.!.W.v j.f g.g.s.j.s.d.s.j.j.n.H.j.s.g.s.k.s.s.s.f.f.3.$.",
"0X:.-.j.s.g.j.C.B.j.s.s.&.-.-.s.s.s.g.-.@.B Q.{.pX[.V c T.bXiX].m iXdX!.^.W.v s.w.w.s.j.l.l.d.s.s.j.n.A.-.s.g.s.s.s.s.s.f.f.3.$.",
"eX1.-.-.s.s.s.-.-.j.g.s. .s.s.s.s.g.g./ K m m ~.[.#X].n T.^.xXgXR.H 3X}.).!.V #.m x *.j.L.B.-.k.s.g.j.-.s.s.s.s.s.s.s.s.d.d.3.$.",
"eX1.C.l.s.s.s.s.s.g.g.s.s.z.z.s.s.g.w./ n R.m W._.pX#XT A ~./.nX].m H 3X}.(.W.c R.V @.S.5.D.N.j.s.f.d.s.s.s.s.s.s.s.s.j.s.*.4.$.",
"qX:.G.c.s.s.s.s.s.s.s.s.s.u.r.j.l.j.s x A {.D m _.[.aX,Xn T.^.NXgXQ.M '.4X,XE D {.A v p 4.D.C.&.s.g.d.s.d.s.j.d.x.-.j.s.s.s.3.$.",
"0X:.;.;.s.s.s.s.s.s.s.s.s.s.g.j.P.C.p b A {.R.m `.[.4X2XY T.).NXVXaX'.4X4X'.c R.{.A n h S.3.;.&.s.g.s.s.s.s.d.l.L.n.j.j.s.s.3.$.",
"0X:.&.k.s.s.s.s.s.s.s.s.s.s.g.j.N.l.> x A 3X`.D _.,X5X8X4X'.3XNXAXBXsX8X8X,XD ~.3XT.C 6 h l.&.s.s.g.s.s.s.s.k.B.7.D.l.j.s.s.3.$.",
"0X:.j.j.d.s.s.s.s.s.j.l.j.s.s.j.@.j.j.9 A zXgX`.m <X9XkXvXVXzXNXAXBXgXbX7X,X~.sXzXT.B f s s.s.s.s.s.s.s.s.s.l.K.4.6.N.d.s.d.3.$.",
"0Xl.s.&.s.s.s.s.s.s.c.H.k.d.s.y.t.w.e.f Z {.xXsXD <X9XkXnXCXBXVXAXCXVXbX7X,XaXbX].Z 7 5 @.s.s.s.s.s.s.s.s.s.j.<.qXB.l.s.s.s.3.$.",
"0Xl.0.s.d.s.s.s.s.s.l.Z.j.d.s.$Xy.d.( y n [.dXdX`.D 7XvXNXZXVXAXZXZXCXbX9X,XsXdXR.m x l f ..g.s.s.s.s.s.s.s.s.k.V.l.s.j.s.s.3.$.",
"0Xl.g.s.s.s.s.s.s.d.-.=.j.s.s.u.y.y.( ` F `.3XdXdX`.7XkXnXZXZXAXCXBXCXbX7X,XfX4X`.Z n x g U.g.s.k.k.j.s.s.s.s.h.g.-.g.g.s.s.3.$.",
" Xl.g.s.g.j.d.g.d.s.s.s.s.s.s.g.u.) ] _ L F '.2XdX8X7XkXbXBXVXVXCXBXBXxX,X<X4X'.F c 9 5 p s.s.&.N.V.-.s.s.s.s.d.d.j.z.s.s.s.N.o.",
" Xl.g.s.j.l.l.g.s.s.s.s.s.s.s.g.g.t.a _ ] | | &X1X1X9XkXvXlXnXnXmXmXvXzX8X1X>X>Xr b r 6 h @.@.s.N.Z.j.s.s.s.s.s.-.3.7.:.s.s.N.o.",
" Xl.g.s.k.G.Z.j.j.j.s.s.s.s.s.g.z.O.u q ; q - / a { ;XjXjX:XlXkXxXzX6X6X5X1X&X_ O w w 9 9 8 X.s.j.x.j.s.s.s.g.v.x.K..X3.s.s.N.o.",
" Xl.g.s.j.:.:.z.j.s.s.s.s.s.g.s.;.> 0 . X # 2 ( d 3 / -X{ ;XhX;X9X6X6X) &X6X;X$XX X # I.I.X.s.s.0.z.z.s.s.s.s.d.*.l.N.l.j.s.N.o.",
" Xl.g.s.j.-.-.z.s.s.s.s.s.s.g.s.=.+.= u $ $ , $   % $X3 < &X6X[ ] -X1X2 o 1 1 U.- ; @ -.z.j.s.s.s.g.s.s.s.s.s.d.d.d.s.s.j.s.B.o.",
" Xl.g.s.s.j.s.g.s.s.s.s.s.s.s.g.d.;.O.p - o 0 * $ , $ % < $X;X3 < 3 ;X2 $ o # ; h 0 8 s.g.s.s.s.s.s.s.s.s.s.s.z.s.s.s.s.s.s.N.o.",
"0Xl.f.d.d.d.g.d.d.*.g.s.g.d.g.v.g.s.d.- * $ . . * 0 # % % $X( 2 % ; 2 $X- # * i * + @ d.g.d.g.d.*.s.s.s.s.s.s.j.s.g.g.s.g.s.B.2.",
"0Xl.d.k.:.;.g.;.l.d.k.;.s.d.*.j.l.:.l.> > : : + . X & . o ( , = , u ; < X 0 * 4 * & : d.*.;.;.g.;.:.k.s.g.d.d.:.*.d.s.;.l.;.5.,.",
" X<.-.F.wXB.x.S.F.q.l.8.x.g.s.-.L.3.D.M.M.D.q.> > & & u = 2 0 i * X p , : > > > U.+.s.j.-.V.4.w.B.qXF.j.-.s.;.K.:.%.g.7..X6.5.$.",
".XD.6. XrX.X6.Y. X6.6..X7.6.D.7.qX*X XY..X.XS.F.7.X.U.i = $XU.s > : +.U.D.7.6.6. X7.F.S.S.*XY.6.*XOX.XS.6.F.D.0XS.6.Z.0XrX.XY.,.",
"tXyXwXOXOXrXrXrXoXOXrXoXrXoXrXrXoXtXrXOXrXrXrXOXOXrXyXU.U.rXtXOXoXrXtXtXrXoXrXyXtXoXrXoX+XyXyXrXtXrXOXtXoXyXyXtXyX@XrXtXyXwXyX,."
};
