/* XPM */
static char *_1204295186e4bad8f496ca1f5fe8242sVEDLHOXjKJej0tt[] = {
/* columns rows colors chars-per-pixel */
"64 64 245 2 ",
"   c #5D3B1B",
".  c #493627",
"X  c #553B27",
"o  c #493C33",
"O  c #653B25",
"+  c #3D4034",
"@  c #57471F",
"#  c #6F4A1B",
"$  c #4C463A",
"%  c #535030",
"&  c #575637",
"*  c #684926",
"=  c #6B4C2D",
"-  c #795727",
";  c #6B593A",
":  c #775934",
">  c #5C6532",
",  c #787727",
"<  c #6F6C32",
"1  c #545248",
"2  c #705E55",
"3  c #72694F",
"4  c #AB5918",
"5  c #BA581A",
"6  c #926F17",
"7  c #A6641B",
"8  c #BC6719",
"9  c #87592F",
"0  c #AB5828",
"q  c #B65826",
"w  c #A85732",
"e  c #B95D36",
"r  c #986A28",
"t  c #8B782B",
"y  c #8B6831",
"u  c #966D33",
"i  c #8B7934",
"p  c #937538",
"a  c #A66529",
"s  c #B56824",
"d  c #A97328",
"f  c #A76738",
"g  c #B7643B",
"h  c #A87334",
"j  c #C64E14",
"k  c #C8581C",
"l  c #D95718",
"z  c #DC5B1C",
"x  c #E15D18",
"c  c #C6681B",
"v  c #DA6618",
"b  c #D97919",
"n  c #EA6914",
"m  c #E3641B",
"M  c #E7771B",
"N  c #F5731A",
"B  c #F37C1C",
"V  c #C75924",
"C  c #D55D24",
"Z  c #C05B33",
"A  c #D96827",
"S  c #C56637",
"D  c #CF7130",
"F  c #E46828",
"G  c #E7792B",
"H  c #F2742A",
"J  c #8F6D44",
"K  c #85754B",
"L  c #997646",
"P  c #826D5A",
"I  c #977955",
"U  c #A86747",
"Y  c #B5664A",
"T  c #A37446",
"R  c #A56A53",
"E  c #A37557",
"W  c #977965",
"Q  c #C37A45",
"!  c #489E3E",
"~  c #5E9A3F",
"^  c #759F2E",
"/  c #688B38",
"(  c #768835",
")  c #66973B",
"_  c #759F31",
"`  c #75973A",
"'  c #4BA33B",
"]  c #4EA63E",
"[  c #4DA93D",
"{  c #55A835",
"}  c #52A63D",
"|  c #5AA43D",
" . c #54A93D",
".. c #5BAC3D",
"X. c #5EB13C",
"o. c #76A32A",
"O. c #66AC39",
"+. c #61AC3C",
"@. c #73A436",
"#. c #66B43D",
"$. c #6AB43D",
"%. c #6BB83B",
"&. c #77B83A",
"*. c #74BA3D",
"=. c #75C739",
"-. c #4B9F44",
";. c #579D45",
":. c #5B9C43",
">. c #5B9C4B",
",. c #768846",
"<. c #669747",
"1. c #6E914A",
"2. c #798D58",
"3. c #6B9553",
"4. c #739153",
"5. c #779155",
"6. c #4EA645",
"7. c #4CA844",
"8. c #47A748",
"9. c #4DA64A",
"0. c #4CA84A",
"q. c #51A543",
"w. c #53A942",
"e. c #5BAC43",
"r. c #51A44A",
"t. c #58A848",
"y. c #5DB247",
"u. c #4DA551",
"i. c #50A550",
"p. c #62AE44",
"a. c #67AE47",
"s. c #74AB4D",
"d. c #64B444",
"f. c #6AB443",
"g. c #6CBA45",
"h. c #64B44B",
"j. c #6BB64B",
"k. c #67B94B",
"l. c #6CBA4B",
"z. c #75B643",
"x. c #74BA41",
"c. c #7CBB43",
"v. c #77B94A",
"b. c #74BD4B",
"n. c #6BBA51",
"m. c #76BE53",
"M. c #6EC045",
"N. c #7AC344",
"B. c #75C14C",
"V. c #7AC249",
"C. c #76C255",
"Z. c #87811D",
"A. c #868736",
"S. c #928F37",
"D. c #86BE3C",
"F. c #D8881A",
"G. c #EB8816",
"H. c #F5841D",
"J. c #F88A1C",
"K. c #EF9116",
"L. c #F79B1C",
"P. c #F5A516",
"I. c #F6A919",
"U. c #DF8122",
"Y. c #DB8433",
"T. c #EA882F",
"R. c #F48A23",
"E. c #EA972C",
"W. c #F99423",
"Q. c #F79929",
"!. c #F79637",
"~. c #F9A929",
"^. c #F9B428",
"/. c #ECA538",
"(. c #FBA338",
"). c #FBBC32",
"_. c #F9B63A",
"`. c #8EC63E",
"'. c #8AC839",
"]. c #95CA37",
"[. c #95CC3B",
"{. c #96CB3D",
"}. c #99CA3C",
"|. c #95D036",
" X c #FBC53A",
".X c #878347",
"XX c #848557",
"oX c #968359",
"OX c #879359",
"+X c #B19554",
"@X c #83BD49",
"#X c #96BF45",
"$X c #928269",
"%X c #AF8E6D",
"&X c #C78C4A",
"*X c #D88D4A",
"=X c #F29750",
"-X c #D1A352",
";X c #E9AB4B",
":X c #F9A646",
">X c #F9B844",
",X c #F9A957",
"<X c #F9B757",
"1X c #CB9671",
"2X c #E79763",
"3X c #CCAA71",
"4X c #F8B96A",
"5X c #ECAA71",
"6X c #FDB57A",
"7X c #8DC643",
"8X c #8BC847",
"9X c #91C642",
"0X c #94CC43",
"qX c #99C947",
"wX c #94CC4B",
"eX c #8ED045",
"rX c #8ACA54",
"tX c #96CA52",
"yX c #9FD163",
"uX c #FCD345",
"iX c #FBCE50",
"pX c #FBC45C",
"aX c #F9C866",
"sX c #FACA76",
"dX c #A3BA88",
"fX c #CC9C89",
"gX c #D1B48D",
"hX c #EDB18D",
"jX c #F7B684",
"kX c #F9C782",
"lX c #FCD18B",
"zX c #F7C796",
"xX c #FADA93",
"cX c #C3E096",
"vX c #FBE290",
"bX c #EDC9A8",
"nX c #FDDAA9",
"mX c #F6D8B7",
"MX c #FBE6B0",
"NX c #DFD3C1",
"BX c #FAEACA",
"VX c #FBEDD6",
"CX c #FBF1DA",
"ZX c #FBF5E8",
"AX c #FCF8F2",
/* pixels */
"ZXyX[.0X].].].{.0X{.[.[.[.].].0X0X0X}.].}.}.0X{.{.{.{.{.{.0X{.{.{.{.{.{.{.{.{.{.}.{.{.[.].].[.[.[.[.}.}.}.}.{.[.[.].[.{.].[.cXNX",
"cX8Xg.x.&.*.*.*.*.*.*.*.*.*.*.x.x.*.&.*.x.x.x.x.x.x.x.x.x.x.x.x.x.x.x.x.x.x.x.x.x.*.x.x.*.x.*.*.*.*.x.x.x.x.*.*.*.*.*.x.*.*.yXdX",
"'...9.q.] 7.7.6.6.6.6.6.6.6.6.6. .{ } 6.6.6.6.6.q.q.q.6.] ] ] 6.6.q.q.q.6.6.6.6.6.6.6.6.6.6.6.6.6.6.6.6.6.6.6.] [ 7.7.7.8.[ $.@.",
"7Xe.[ w.6.[ 8.7.} 6.6.7.0.6.9.9.q.l.y.0.0.9.6.9.9.9.9.9.6.q.6.9.9.9.9.9.9.9.9.9.9.6.6.9.9.9.6.6.6.6.9.9.9.9.6.q.q.9.q.} q.9.f._ ",
"7Xe.q.t.h.e.9.9.q.q.q.q.q.q.q.q.} f.d.q.q.6.-.q.q.q.q.q.} p...q.q.3.q.q.q.q.q.6.q.q.q.w.a.e.q.q.q.q.q.q.q.q.q.q.6.6.X.$.e.9.f.@.",
"8Xe.] q.C.%.[ 8.6.q.q.q.q.q.q.6.] { } 6.6.6.6.6.6.6.6.6.} m.p.6.6.4.3.r.6.q.q.-.6.q.w.} b.f.q.q.q.q.q.6.6.6.q.r.r.w.c.9Xz.q.f._ ",
"'...u.r.e...7.8.9.6.q.e.n.t.q.6.7.] 6.6.6.6.9.6.7.7.6.7.q.p.e.6.7.7.L :.7.6.0.7.] 6.q.g.f.l.d.q.q.6.6.6.q.q.9.9.9.7.+.f.e.7.#.o.",
"`.e.9.6.7.6.7.7.6.6.r...x.t.6.6.6.6.6.6.6.6.6.6.6.6.6.6.6.6.6.6.6.6.T i :.6.8.6.} 9.q.b.+.g.d.q.9.6.6.w.+.w.9.6.6.6.6.6.7.7.$._ ",
"`.e.9.6.6.7.7.7.6.6.r.}  .q.6.6.6.6.6.6.6.6.6.6.6.6.6.6.6.6.6.6.6.6.4.q <.w.] 9.9.9.6. .} e.} q.-.! [ e.C. .7.6.6.6.6.-.' 7.$._ ",
"`.e.9.6.6.6.] 6.6.6.6.6.7.6.6.6.6.6.6.6.6.6.} 6.6.6.6.6.6.6.6.6.6.4.i 5 ` j.r.6.6.7.6.6.6.r.q.r.9.6.6.w.d.} 6.6.6.6.6.6.7.7.$._ ",
"`.e.9.6.6.6.w.6.6.6.6.9.9.7.6.6.6.6.q.6.0.e...6.6.6.6.q.q.q.q.q.6.f k j _ b.+.} 7.6.6.7.9.9.9.9.9.q.9.9.q.9.9.6.6.6.6.r.6.7.$._ ",
"`.e.6.6.6.6.] ] w.9.6.9.r.' 6.6.6.6.q.6.9.h.m.q.6.6.6.6.q.q.q.q.2.V z V ) f.N. .9.q.6.7.6.9.9.6.6.q.9.9.9.9.9.6.6.6.6.r.6.7.$._ ",
"7Xe.9.6.6.q.y.y.6.0.7.r.t.d.w.6.6.6.q.9.9.e.f.q.6.w.t.6.q.h.t.q.u C z i | t.h.q.9.r.q.6.6.6.7.6.6.r.q.6.6.6.6.6.6.6.6.q.6.7.f._ ",
"8Xt.9.6.7.6.j.n.6.8.8.q.e.C.t.6.6.6.6.6.6.6.} 6.6.q.6.} e.c.f.} 7 F F oXt.6.r.6.6.6.6.r.6.[ 7.6.r.t. .} 6.6.6.6.6.6.6.| } 6.f._ ",
"7Xe.-.] 7.6.|  .7.8.7.q.| e.6.6.6.6.6.6.6.6.6.6.6.6.6.t.B.f.b.h.7 F F S <.6.6.6.6.7.q.q.6.7.9.] #.=.M. .q.6.6.6.8.7.6.l.j.6.f.^ ",
"].+.! ] 6.6.} } 7.9.6.q.w.q.6.6.6.6.6.6.6.6.6.6.6.6.6.0.j...j.t.r k F l I q.6.6.6.6.} X.e.9.9.] X.=.g.q.q.6.6.[ 6.7.7.d.h.6.f._ ",
"`...r.6.8.6.w.] 7.6.6.6.7.7.6.6.6.6.6.6.6.6.6.6.6.6.6.4.2.:.4.>./ 0 l z e :.6.6.6.6.{ B.h.6.6.9.r.r.q.q.q.6.6.7.r.i.6.} q.6.f._ ",
"7Xe.9.6.7.6.6.6.6.6.6.6.7.6.6.6.6.6.6.6.6.6.6.6.6.6.4.U U XX3.r.0.( q z C u ;.6.6.6.} #.e.q.] 6.9.9.q.q.r.6.6.9.r.q.6.6.6.6.%._ ",
"`.+.p.$...6.7.7.6.6.7.6.9.6.6.6.6.6.6.6.6.6.6.6.6.2.U V q ,.r.6.w.e.I V k q XXr.6.7.q.} w.7.6.6.6.[ q.r.r.6.6.q.O.O.e.6.6.6.$._ ",
"].O.m.rXd.6.6.6.6.6.6.7.9.9.6.6.6.} } q.6.6.6.6.6.p D z Y >.7.6.] l.s.( L R U :.6.7.6.r.6.6.6.9.9.6.q.q.9.6.6. .N.eXd.6.9.6.%._ ",
"9X..y.d.e.6.6.6.6.p.g.w.q.6.6.9.[ f.N.d.8.9.q.t.w.u A F C I ;.6.] e.y.[ <.3.E q.6.6.6.6.6.6.6.9.t.+.g.w.9.7.] } e.d.e.q.6.6.$._ ",
"9Xe.] } w.6.6.6.q.f.N.+.7.6.6.8.w.b.rXh.7.6.q.6.6.) h F F e <.6.q.w.6.w.6.6.3.u.9.6.6.2.6.6.! -.t.f.B...6.7.6.w.} ' 6.q.6.6.$._ ",
"8Xe.6.q.6.6.] ] d.c.$.N.7.6.6.7.6.} | e.7.6.q.6.6.6.:.f F V ) 6.w.6.6.6.6.6.9.6.q.XXr.>.6.6.] q.h.B.$.C.w.6.6.6.7.6.6.q.6.6.$._ ",
"8Xe.6.q.6.6.] ] e.z.&.d.q.[ 6.7.6.q.q.q.6.6.6.6.6.6.6.u C Y W >.9.6.6.6.9.9.6.OX.X<.u q.6.6.q.q.e.d.+.d.w.6.6.6.6.9.6.q.6.6.$._ ",
"7X..6.q.6.6.6.w.6.d.N.7. .7.6.6.6.6.6.6.6.6.6.6.6.6.5.f Y OX<.q.6.6.6.K >.9.6.I w r q q.6.6.q.q.q.w.}  .6.6.q.6.6.9.6.6.6.6.$._ ",
"`...7.6.6.6.6.w.6.q.w.' 7.6.-.6.6.6.8.6.6.9.9.6.6.6.>.1.h ` 6.6.6.6..Xg <.6.6.f q A ` q.6.6.q.q.q.w.0.0.8.q.q.7.6.6.7.6.6.6.$._ ",
"'...6.6.6.6.q.6.6.9.8.] 8.[ 6.6.6.6.8.9.6.9.u.6.6.6.6.q.d 5 ) 6.6.9.:.a h :.K 0 A G q.6.6.6.q.q.6.9.9.8.6.6.6.7.9.6.6.6.6.7.$._ ",
"`...9.9.9.q.q.6.6.9.9.6.7.7.q.q.6.6.7.6.e. .0.6.6.6.6.i F.v 5 ) 6.9.w.a Z :.:.0 A F a a 6.6.6.6.6.6.7.! 6.6.6.8.6. .w.6.6.6.#._ ",
"`...7.6.9.9.9.6.6.q.r.9.9.9.9.6.6.6.[ } h.k.6.6.6.6.t k Q.R.l / r ) h.s A L ;.:.0 z F q 6.6.6.6.6.q.6.6.6.6.6.[ } l.d.] 6.6.#._ ",
"`...7.6.6.8.9.9.q...e.q.q.9.8.7.6.q.} q.h.h.6.6.6.t k M ~.W.l / 7 ) d l B g :.6.~ q N q 6.w.6.6.6.} q.6.6.6.6.6.w.k.d.q.6.6.#._ ",
"`...6.q. . .7.9.q.d.C. .} q.w.6.6.6.6.r.q.q.9.6.6.r M ~.I.v q ) s 5 j M ~.U ;.6.6.:.q q 6.q.} 6.6.} q.6.6.6.6.9.r.w.q.6.6.6.#._ ",
"`...6. .d.#.7.9.q...d.} 6. .l.e.q.9.9.9.q.q.9.2.f b ~.^.M k ( q.| k l ~.D W ;.6.6.9.:.:.6.h.f.6.9.6.6.6.6.6.6.9.r.q.q.6.6.6.#._ ",
"`...6. .b.&. .9.q.q.q.6.9.e.x...q.9.7.6.2.3.9.r.u E.^.L.m ( r.6.d l B m g <.6.6.6.9.9.6.7.j.f.6.9.6.6.6.6.6.6.9.9.} 6.6.6.6.#._ ",
"`.e.6.6.b.z.q.7.q.6.6.9.9.6.w.q.6.6.6.4.W 3.9.6.d Q.Q.m l ` 6.s M z B ~.v ~ 6.6.6.9.6.6.6.q.q.6.6.6.6.} } 6.u.6.6.6.6.6.9.9.f._ ",
"`.e.6.6.p.+.6.7.q.6.6.6.6.6.6.6.6.6.6.6.q.6.2.<.d Q.).M A.q.6.s B x B ^.W.z ~ 6.6.6.6.6.9.9.6.6.6.6.7.e.g.e.9.6.6.6.6.q.9.9.$._ ",
"`.e.6.6.q.q.8.9.q.6.6.6.6.6.6.6.6.6.9.6.2.R ,.6.d K.^.W.m ` s M ~.E.k H.P.P.v ~ 6.q.6.6.6.6.6.6.6.6.7.t.N.+.} 6.6.6.6.q.9.9.$.^ ",
"9Xe.6.6.6.0.9.7.6.6.6.6.6.6.6.6.6.6.9.5.4.p E 3.q.s K.^.W.v B ~.).W.k l L.).I.v ) } } 6.6.6.6.6.6.6.6.} +.V...6.6.6.6.q.9.6.%.^ ",
"9Xe.6.6.6.7.6.6.6.6.6.7.7.7.6.6.6.6.6.6.5.f f E 1.6.s K.^.W._.^.Q.x ` c B P.).m <.f.e.7.6.q.6.6.6.6.9.} w.d.} 6.6.6.6.] 6.6.$._ ",
"9Xe.7.6.6.6.q.6.6.6.6.6.[ w.6.6.6.6.6.w.5.e q Y.Q 1.s K.^.~.^.~.m s.b.c B P.).m <.m.oX6.6.q.6.6.6.6.r.q.6.6.6.6.6.6.6. .[ 6.$._ ",
"9Xe.6.6.6.q.q.6.6.9.6.w...C.e.6.7.6.6.OXOXr v G.D R V l Q.).uXiX;Xv l M /.)._.x ) q | 8.6.6.6.6.6.6.6.9.7.9.6.6.6.6.6.k.k.6.f._ ",
"9Xe.-.6.7.6.6.6.7.7.6. .j.x.f.w.8.6.] d.OXR G J.G.g U G  X XuXiX-X*X(.>XiXI.I.x E j j r.7.9.9.6.6.6.6.7.7.6.6.6.6.6.6.f.f.q.$.@.",
"9Xe.6.6.6.6.6.q. .6.6.e.C.+.C.t.7.6.[ r.OXY V H.L.~.D U. X XuX<X:X>X>XE.Q.L.G x k P.x j 9.6.7.6.6.q.w.} q.6.6.6.6.6.6.} } 6.$.@.",
"7Xe.q.q.7.9.q.j.j.q.6.w.y.| e.w.6.q.6.q.e.i k /.>X_.Y.:XuX XpX<X!._.iXpXW.U.J.x H.).J.j r.6.7.6.q.r.p.m.} 6.9.6.w.6.6.6.8.8.$._ ",
"7X..} q.6.9.q.h.f.q.6.6.] } } 6.6.6.9.] q.r.p c E.~.L.^.).L.<XvX<X>XiXaXE.J.x H.J.).J.k e.e.7.6.6.q.p.l.} 6.9.6.6.6.6.6.8.8.$._ ",
"9X+.} } 6.6.6.} } q.9.6.! 6.6.6.6.9.9.6.,.,.i S ;X^.=X5X*XG ,XvXsXaXaXpXW.x H.J.P.).J.| B.f.} w.6.9.q.} 6.6.6.6.6.6.6.6.7.7.$._ ",
"9X+.k.e.6.6.6.6.6.9.9.6.7.7.r.r.6.9.6.9.3 g A.S.Y.:XaXjX2XG =XlXxXsXsX:XW.x R.P.^.J.5 f.@.x.d.q.6.8.7.6.6.6.6.6.6.6.6.q.6.[ %._ ",
"8X..n.y.6.6.6.6.6.6.6.6.6.6.3.4.e.w.q.6..Xf D g S !.<X2X2X5X5XkXlXlXlX4X(.!.!.I.G.n ) l.a &.h.] 6.9.7.6.0.6.q.7.t.} q.6.6.6.$._ ",
"7X.. . .6.6.6.6.6.6.6.6.6.6.9.q.B.h.r.9.A.s D v n R./.2X5XzXxXnXmXMXMXxX4X<X~.I.Q.B v @.d s  .] 6.9.6.6.6.6.7.e.V.p.q.q.6.6.$._ ",
"7X..] w.6.6.6.6.6.6.6.6.6.6.9.q.d.e.r.9.A.7 c U.E.(.:X=XhXbXBXBXVXCXBXxXxX4X:X(.(.Q.@.b 4 s ] 6.6.9.6.6.6.6.w.f.*.x.e.q.6.6.$._ ",
"7X..q.q.7.6.6.6.6.6.q.e.q.6.7.q.} q.q.7.( a c G.Q.(.=X5XhXbXBXCXZXZXVXBXnX6X:X!.:XQ.L.b s r 6.6.6.6.6.6.6.6.e.N.$.&.d.7.6.6.$._ ",
"7Xe.6.] 6.6.6.6.6.6.y.m.w.7.6.q.| ,.<.q.K 0 5 v !.<X<X:XjXnXVXCXAXCXVXVXnX6X=X:XaX:XM k 5 ) 6.6.6.6.6.6.6.6.q.+.8Xf.e.6.6.6.$._ ",
"7Xe.-.6.7.6.6.6.6.6.e.j.w.7.6.r.,.1.6.,.R e k m !.pXaXaXzXmXCXAXAXAXZXCXnXjX,XaXaX,XH V j 5 :.6.6.6.6.6.6.6.6.w.f.t.6.q.6.6.$._ ",
"7Xe.9.6.6.6.6.6.6.7.} | q.6.6.9.1.1.>.XXR Y S F T.:XpXsXzXmXCXZXAXCXBXCXnX5X6XsX>X!.H A l s t 6.w.w.q.6.6.6.6.0.9.} 9.9.6.6.$._ ",
"`.e.9.6.9.q.7.9.7.6.6.6.6.6.6.9.8.1.I E R U R S F =X,X4XjXnXBXVXCXCXBXBXnX5X4X<X:XH C 8 0 s 7.] d.g.} 6.6.6.6.7.7.q.r.6.6.6.d.^ ",
"`.e.9.6.q.e.e.9.6.6.6.6.6.6.6.9.u.r.,.p U R R f e *X&X1XhXzXbXmXmXMXMXmXzX4X-X&X*XZ V s 4 a ) ) d.j.q.6.6.6.6.6.} #.*...6.6.d.^ ",
"`.e.9.6.w.n.j.r.q.q.6.6.6.6.6.9.r.t.~ < 9 9 9 : J L I %XfXfX3XgXhXlXlXgX5X2X-X+XT O 0 0 8 8 7 Z.q.t.q.6.6.6.9.u.t.N.'.$.6.6.d.^ ",
"`.e.9.6.q.....r.q.6.6.6.6.6.9.6. .x.< - * . @ : I J P P oXW %X%X1X5X5X3XoX&X3X+X+X. . . 6 6 Z.6.-.r.r.6.6.6.6.7.[ e.d.e.q.6.d.^ ",
"`.e.9.6.q.} } r.6.6.6.6.6.6.9.6.{ %./ - 9 = $ ; & + & L P 1 T 3X$XE oX+XK $ ; 2 S.; ; 6 r.q.6.6.6.9.6.6.6.6.6.7.7.7.6.6.q.6.f.^ ",
"`.e.9.6.6.q.6.9.6.6.6.6.6.6.6.9.8. .w./ t : $ - - % ; & $ 1 K %XP 1 2 %X3 % o o ; d 9 6 9.6.9.6.6.6.6.6.6.6.6.r.6.6.6.6.6.6.d.^ ",
"7Xe.8.7.7.7.9.8.7.[ 9.6.9.7.9.u.9.6.7.6.> # = X   * 9 * & $ K I 3 1 ; 3 oX; % - r - # # 9.7.9.7.[ 6.6.6.6.7.6.r.6.9.9.6.9.6.f.@.",
"7Xe.8.w... .9. .e.7.w. .6.7.[ q.e...e.w./ < > & *   . * X . K K ; < y : 1 o 9 = - # * @ 6. . .9. ...w.6.9.7.7...[ 7.6. .e. .$.o.",
"`.O.} b.rXf.t.z.v.;...=.t.9.6.} B.#.x.s.j.x.;.9./ , * O 9 : 2 9 r - X y y & < , , , , } } x.%.:.a.8Xb.} } 6. .N.X.' 9.*.'.&.$._ ",
"'.c.&.`.0X'.&.D.`.&.&.'.*.&.x.*.8X@X7XD.'.'.z.z.*.&.A.t r - ,.i t < > < S.&.*.*.`.*.z.z.z.@XD.&.@X{.'.z.&.z.c.7Xc.&.j.7X0X'.D.o.",
"eXrXwX{.}.0XeX0X[.{.0X[.0X[.0X0X[.wX0X{.0XeX0X{.{.0XtXwXS.S.#X[.[.0XeXwX0X[.0XtXqX[.0X[.}.tXtX0XwX0X{.wX[.tXtXwXtX|.0XwXtXrXtXo."
};
